<?xml version="1.0" encoding="UTF-8" standalone="no"?><svg xmlns="http://www.w3.org/2000/svg" xmlns:xlink="http://www.w3.org/1999/xlink" contentScriptType="application/ecmascript" contentStyleType="text/css" height="1044px" preserveAspectRatio="none" style="width:1461px;height:1044px;" version="1.1" viewBox="0 0 1461 1044" width="1461px" zoomAndPan="magnify"><defs><filter height="300%" id="f9txlizy0xyvv" width="300%" x="-1" y="-1"><feGaussianBlur result="blurOut" stdDeviation="2.0"/><feColorMatrix in="blurOut" result="blurOut2" type="matrix" values="0 0 0 0 0 0 0 0 0 0 0 0 0 0 0 0 0 0 .4 0"/><feOffset dx="4.0" dy="4.0" in="blurOut2" result="blurOut3"/><feBlend in="SourceGraphic" in2="blurOut3" mode="normal"/></filter></defs><g><rect fill="#DDDDDD" height="1032.125" style="stroke:#383838;stroke-width:1.0;" width="526" x="346" y="6"/><text fill="#000000" font-family="sans-serif" font-size="24" font-weight="bold" lengthAdjust="spacing" textLength="205" x="506.5" y="30.9141">Payment Manager</text><line style="stroke:#383838;stroke-width:1.0;stroke-dasharray:5.0,5.0;" x1="125" x2="125" y1="89.375" y2="985.9375"/><line style="stroke:#383838;stroke-width:1.0;stroke-dasharray:5.0,5.0;" x1="443" x2="443" y1="89.375" y2="985.9375"/><line style="stroke:#383838;stroke-width:1.0;stroke-dasharray:5.0,5.0;" x1="751" x2="751" y1="89.375" y2="985.9375"/><line style="stroke:#383838;stroke-width:1.0;stroke-dasharray:5.0,5.0;" x1="1105" x2="1105" y1="89.375" y2="985.9375"/><rect fill="#F8F8F8" filter="url(#f9txlizy0xyvv)" height="44.1875" style="stroke:#383838;stroke-width:1.5;" width="237" x="5" y="40.1875"/><text fill="#000000" font-family="sans-serif" font-size="24" lengthAdjust="spacing" textLength="223" x="12" y="72.1016">DFSP Core Backend</text><rect fill="#F8F8F8" filter="url(#f9txlizy0xyvv)" height="44.1875" style="stroke:#383838;stroke-width:1.5;" width="237" x="5" y="984.9375"/><text fill="#000000" font-family="sans-serif" font-size="24" lengthAdjust="spacing" textLength="223" x="12" y="1016.8516">DFSP Core Backend</text><rect fill="#F8F8F8" filter="url(#f9txlizy0xyvv)" height="44.1875" style="stroke:#383838;stroke-width:1.5;" width="183" x="350" y="40.1875"/><text fill="#000000" font-family="sans-serif" font-size="24" lengthAdjust="spacing" textLength="169" x="357" y="72.1016">Core Connector</text><rect fill="#F8F8F8" filter="url(#f9txlizy0xyvv)" height="44.1875" style="stroke:#383838;stroke-width:1.5;" width="183" x="350" y="984.9375"/><text fill="#000000" font-family="sans-serif" font-size="24" lengthAdjust="spacing" textLength="169" x="357" y="1016.8516">Core Connector</text><rect fill="#F8F8F8" filter="url(#f9txlizy0xyvv)" height="44.1875" style="stroke:#383838;stroke-width:1.5;" width="229" x="635" y="40.1875"/><text fill="#000000" font-family="sans-serif" font-size="24" lengthAdjust="spacing" textLength="215" x="642" y="72.1016">Mojaloop Connector</text><rect fill="#F8F8F8" filter="url(#f9txlizy0xyvv)" height="44.1875" style="stroke:#383838;stroke-width:1.5;" width="229" x="635" y="984.9375"/><text fill="#000000" font-family="sans-serif" font-size="24" lengthAdjust="spacing" textLength="215" x="642" y="1016.8516">Mojaloop Connector</text><rect fill="#F8F8F8" filter="url(#f9txlizy0xyvv)" height="44.1875" style="stroke:#383838;stroke-width:1.5;" width="189" x="1009" y="40.1875"/><text fill="#000000" font-family="sans-serif" font-size="24" lengthAdjust="spacing" textLength="175" x="1016" y="72.1016">Mojaloop Switch</text><rect fill="#F8F8F8" filter="url(#f9txlizy0xyvv)" height="44.1875" style="stroke:#383838;stroke-width:1.5;" width="189" x="1009" y="984.9375"/><text fill="#000000" font-family="sans-serif" font-size="24" lengthAdjust="spacing" textLength="175" x="1016" y="1016.8516">Mojaloop Switch</text><rect fill="#EEEEEE" filter="url(#f9txlizy0xyvv)" height="3" style="stroke:#EEEEEE;stroke-width:1.0;" width="1454.5" x="0" y="127.4688"/><line style="stroke:#000000;stroke-width:1.0;" x1="0" x2="1454.5" y1="127.4688" y2="127.4688"/><line style="stroke:#000000;stroke-width:1.0;" x1="0" x2="1454.5" y1="130.4688" y2="130.4688"/><rect fill="#EEEEEE" filter="url(#f9txlizy0xyvv)" height="38.1875" style="stroke:#000000;stroke-width:2.0;" width="161" x="646.75" y="109.375"/><text fill="#000000" font-family="sans-serif" font-size="24" font-weight="bold" lengthAdjust="spacing" textLength="140" x="652.75" y="138.2891">send money</text><polygon fill="#383838" points="431.5,189.75,441.5,193.75,431.5,197.75,435.5,193.75" style="stroke:#383838;stroke-width:1.0;"/><line style="stroke:#383838;stroke-width:1.0;" x1="125.5" x2="437.5" y1="193.75" y2="193.75"/><text fill="#000000" font-family="sans-serif" font-size="24" font-weight="bold" lengthAdjust="spacing" textLength="13" x="132.5" y="186.4766">1</text><text fill="#000000" font-family="sans-serif" font-size="24" lengthAdjust="spacing" textLength="277" x="149.5" y="186.4766">POST /sendmoney (sync)</text><polygon fill="#383838" points="739.5,233.9375,749.5,237.9375,739.5,241.9375,743.5,237.9375" style="stroke:#383838;stroke-width:1.0;"/><line style="stroke:#383838;stroke-width:1.0;" x1="443.5" x2="745.5" y1="237.9375" y2="237.9375"/><text fill="#000000" font-family="sans-serif" font-size="24" font-weight="bold" lengthAdjust="spacing" textLength="13" x="450.5" y="230.6641">2</text><text fill="#000000" font-family="sans-serif" font-size="24" lengthAdjust="spacing" textLength="246" x="467.5" y="230.6641">POST /transfers (sync)</text><polygon fill="#383838" points="1093.5,278.125,1103.5,282.125,1093.5,286.125,1097.5,282.125" style="stroke:#383838;stroke-width:1.0;"/><line style="stroke:#383838;stroke-width:1.0;" x1="751.5" x2="1099.5" y1="282.125" y2="282.125"/><text fill="#000000" font-family="sans-serif" font-size="24" font-weight="bold" lengthAdjust="spacing" textLength="13" x="758.5" y="274.8516">3</text><text fill="#000000" font-family="sans-serif" font-size="24" lengthAdjust="spacing" textLength="246" x="775.5" y="274.8516">GET /parties/{type}/{id}</text><polygon fill="#383838" points="762.5,322.3125,752.5,326.3125,762.5,330.3125,758.5,326.3125" style="stroke:#383838;stroke-width:1.0;"/><line style="stroke:#383838;stroke-width:1.0;" x1="756.5" x2="1104.5" y1="326.3125" y2="326.3125"/><text fill="#000000" font-family="sans-serif" font-size="24" font-weight="bold" lengthAdjust="spacing" textLength="13" x="768.5" y="319.0391">4</text><text fill="#000000" font-family="sans-serif" font-size="24" lengthAdjust="spacing" textLength="244" x="785.5" y="319.0391">PUT /parties/{type}/{id}</text><polygon fill="#383838" points="1093.5,366.5,1103.5,370.5,1093.5,374.5,1097.5,370.5" style="stroke:#383838;stroke-width:1.0;"/><line style="stroke:#383838;stroke-width:1.0;" x1="751.5" x2="1099.5" y1="370.5" y2="370.5"/><text fill="#000000" font-family="sans-serif" font-size="24" font-weight="bold" lengthAdjust="spacing" textLength="13" x="758.5" y="363.2266">5</text><text fill="#000000" font-family="sans-serif" font-size="24" lengthAdjust="spacing" textLength="152" x="775.5" y="363.2266">POST /quotes</text><polygon fill="#383838" points="762.5,410.6875,752.5,414.6875,762.5,418.6875,758.5,414.6875" style="stroke:#383838;stroke-width:1.0;"/><line style="stroke:#383838;stroke-width:1.0;" x1="756.5" x2="1104.5" y1="414.6875" y2="414.6875"/><text fill="#000000" font-family="sans-serif" font-size="24" font-weight="bold" lengthAdjust="spacing" textLength="13" x="768.5" y="407.4141">6</text><text fill="#000000" font-family="sans-serif" font-size="24" lengthAdjust="spacing" textLength="176" x="785.5" y="407.4141">PUT /quotes/{id}</text><line style="stroke:#383838;stroke-width:1.0;" x1="751.5" x2="793.5" y1="458.875" y2="458.875"/><line style="stroke:#383838;stroke-width:1.0;" x1="793.5" x2="793.5" y1="458.875" y2="471.875"/><line style="stroke:#383838;stroke-width:1.0;" x1="752.5" x2="793.5" y1="471.875" y2="471.875"/><polygon fill="#383838" points="762.5,467.875,752.5,471.875,762.5,475.875,758.5,471.875" style="stroke:#383838;stroke-width:1.0;"/><text fill="#000000" font-family="sans-serif" font-size="24" font-weight="bold" lengthAdjust="spacing" textLength="13" x="758.5" y="451.6016">7</text><text fill="#000000" font-family="sans-serif" font-size="24" lengthAdjust="spacing" textLength="196" x="775.5" y="451.6016">Check quote rules</text><polygon fill="#383838" points="1093.5,512.0625,1103.5,516.0625,1093.5,520.0625,1097.5,516.0625" style="stroke:#383838;stroke-width:1.0;"/><line style="stroke:#383838;stroke-width:1.0;" x1="751.5" x2="1099.5" y1="516.0625" y2="516.0625"/><text fill="#000000" font-family="sans-serif" font-size="24" font-weight="bold" lengthAdjust="spacing" textLength="13" x="758.5" y="508.7891">8</text><text fill="#000000" font-family="sans-serif" font-size="24" lengthAdjust="spacing" textLength="173" x="775.5" y="508.7891">POST /transfers</text><line style="stroke:#383838;stroke-width:1.0;" x1="1105.5" x2="1147.5" y1="560.25" y2="560.25"/><line style="stroke:#383838;stroke-width:1.0;" x1="1147.5" x2="1147.5" y1="560.25" y2="573.25"/><line style="stroke:#383838;stroke-width:1.0;" x1="1106.5" x2="1147.5" y1="573.25" y2="573.25"/><polygon fill="#383838" points="1116.5,569.25,1106.5,573.25,1116.5,577.25,1112.5,573.25" style="stroke:#383838;stroke-width:1.0;"/><text fill="#000000" font-family="sans-serif" font-size="24" font-weight="bold" lengthAdjust="spacing" textLength="13" x="1112.5" y="552.9766">9</text><text fill="#000000" font-family="sans-serif" font-size="24" lengthAdjust="spacing" textLength="318" x="1129.5" y="552.9766">Perform (NDC) liquidity check</text><line style="stroke:#383838;stroke-width:1.0;" x1="1105.5" x2="1147.5" y1="617.4375" y2="617.4375"/><line style="stroke:#383838;stroke-width:1.0;" x1="1147.5" x2="1147.5" y1="617.4375" y2="630.4375"/><line style="stroke:#383838;stroke-width:1.0;" x1="1106.5" x2="1147.5" y1="630.4375" y2="630.4375"/><polygon fill="#383838" points="1116.5,626.4375,1106.5,630.4375,1116.5,634.4375,1112.5,630.4375" style="stroke:#383838;stroke-width:1.0;"/><text fill="#000000" font-family="sans-serif" font-size="24" font-weight="bold" lengthAdjust="spacing" textLength="26" x="1112.5" y="610.1641">10</text><text fill="#000000" font-family="sans-serif" font-size="24" lengthAdjust="spacing" textLength="155" x="1142.5" y="610.1641">Reserve funds</text><line style="stroke:#383838;stroke-width:1.0;" x1="1105.5" x2="1147.5" y1="674.625" y2="674.625"/><line style="stroke:#383838;stroke-width:1.0;" x1="1147.5" x2="1147.5" y1="674.625" y2="687.625"/><line style="stroke:#383838;stroke-width:1.0;" x1="1106.5" x2="1147.5" y1="687.625" y2="687.625"/><polygon fill="#383838" points="1116.5,683.625,1106.5,687.625,1116.5,691.625,1112.5,687.625" style="stroke:#383838;stroke-width:1.0;"/><text fill="#000000" font-family="sans-serif" font-size="24" font-weight="bold" lengthAdjust="spacing" textLength="26" x="1112.5" y="667.3516">11</text><text fill="#000000" font-family="sans-serif" font-size="24" lengthAdjust="spacing" textLength="193" x="1142.5" y="667.3516">Perform validation</text><line style="stroke:#383838;stroke-width:1.0;" x1="1105.5" x2="1147.5" y1="731.8125" y2="731.8125"/><line style="stroke:#383838;stroke-width:1.0;" x1="1147.5" x2="1147.5" y1="731.8125" y2="744.8125"/><line style="stroke:#383838;stroke-width:1.0;" x1="1106.5" x2="1147.5" y1="744.8125" y2="744.8125"/><polygon fill="#383838" points="1116.5,740.8125,1106.5,744.8125,1116.5,748.8125,1112.5,744.8125" style="stroke:#383838;stroke-width:1.0;"/><text fill="#000000" font-family="sans-serif" font-size="24" font-weight="bold" lengthAdjust="spacing" textLength="26" x="1112.5" y="724.5391">12</text><text fill="#000000" font-family="sans-serif" font-size="24" lengthAdjust="spacing" textLength="150" x="1142.5" y="724.5391">Commit funds</text><polygon fill="#383838" points="762.5,815.1875,752.5,819.1875,762.5,823.1875,758.5,819.1875" style="stroke:#383838;stroke-width:1.0;"/><line style="stroke:#383838;stroke-width:1.0;" x1="756.5" x2="1104.5" y1="819.1875" y2="819.1875"/><text fill="#000000" font-family="sans-serif" font-size="24" font-weight="bold" lengthAdjust="spacing" textLength="26" x="768.5" y="796.8203">13</text><text fill="#000000" font-family="sans-serif" font-size="24" lengthAdjust="spacing" textLength="197" x="798.5" y="781.7266">PUT /transfers/{id}</text><text fill="#000000" font-family="sans-serif" font-size="24" lengthAdjust="spacing" textLength="293" x="805.5" y="811.9141">transferState=COMMITTED</text><polygon fill="#383838" points="454.5,889.5625,444.5,893.5625,454.5,897.5625,450.5,893.5625" style="stroke:#383838;stroke-width:1.0;"/><line style="stroke:#383838;stroke-width:1.0;" x1="448.5" x2="750.5" y1="893.5625" y2="893.5625"/><text fill="#000000" font-family="sans-serif" font-size="24" font-weight="bold" lengthAdjust="spacing" textLength="26" x="460.5" y="871.1953">14</text><text fill="#000000" font-family="sans-serif" font-size="24" lengthAdjust="spacing" textLength="210" x="490.5" y="856.1016">Transfer successful</text><text fill="#000000" font-family="sans-serif" font-size="24" lengthAdjust="spacing" textLength="247" x="497.5" y="886.2891">HTTP 200 result (sync)</text><polygon fill="#383838" points="136.5,963.9375,126.5,967.9375,136.5,971.9375,132.5,967.9375" style="stroke:#383838;stroke-width:1.0;"/><line style="stroke:#383838;stroke-width:1.0;" x1="130.5" x2="442.5" y1="967.9375" y2="967.9375"/><text fill="#000000" font-family="sans-serif" font-size="24" font-weight="bold" lengthAdjust="spacing" textLength="26" x="142.5" y="945.5703">15</text><text fill="#000000" font-family="sans-serif" font-size="24" lengthAdjust="spacing" textLength="210" x="172.5" y="930.4766">Transfer successful</text><text fill="#000000" font-family="sans-serif" font-size="24" lengthAdjust="spacing" textLength="247" x="179.5" y="960.6641">HTTP 200 result (sync)</text><!--MD5=[460e8abfac323e31febfd77ee76c1471]
@startuml

autonumber
skinparam activityFontSize 4
skinparam activityDiamondFontSize 30
skinparam activityArrowFontSize 24
skinparam defaultFontSize 24
skinparam noteFontSize 24
skinparam monochrome true

participant "DFSP Core Backend" as backend

box Payment Manager
participant "Core Connector" as cc
participant "Mojaloop Connector" as sob
end box

participant "Mojaloop Switch" as sw


== send money ==

    backend -> cc: POST /sendmoney (sync)
    cc->sob: POST /transfers (sync)
    sob -> sw: GET /parties/{type}/{id}
    sw -> sob: PUT /parties/{type}/{id}
    sob -> sw: POST /quotes
    sw -> sob: PUT /quotes/{id}
    sob -> sob: Check quote rules
    sob -> sw: POST /transfers
    sw -> sw: Perform (NDC) liquidity check
    sw -> sw: Reserve funds
    sw -> sw: Perform validation
    sw -> sw: Commit funds
    sw -> sob: PUT /transfers/{id} \n transferState=COMMITTED
    sob -> cc: Transfer successful \n HTTP 200 result (sync)
    cc -> backend: Transfer successful \n HTTP 200 result (sync)

@enduml

PlantUML version 1.2021.00(Sun Jan 10 11:25:05 CET 2021)
(GPL source distribution)
Java Runtime: Java(TM) SE Runtime Environment
JVM: Java HotSpot(TM) 64-Bit Server VM
Default Encoding: Cp1250
Language: en
Country: US
--></g></svg>