<svg version="1.1" viewBox="0.0 0.0 960.0 540.0" fill="none" stroke="none" stroke-linecap="square" stroke-miterlimit="10" xmlns:xlink="http://www.w3.org/1999/xlink" xmlns="http://www.w3.org/2000/svg"><clipPath id="p.0"><path d="m0 0l960.0 0l0 540.0l-960.0 0l0 -540.0z" clip-rule="nonzero"/></clipPath><g clip-path="url(#p.0)"><path fill="#ffffff" d="m0 0l960.0 0l0 540.0l-960.0 0z" fill-rule="evenodd"/><path fill="#1a85d3" d="m327.74014 120.30971l209.0079 0l0 259.62207l-209.0079 0z" fill-rule="evenodd"/><path fill="#ffffff" d="m371.7427 144.66971l-0.9375 0l-0.484375 -5.25q-0.3125 -3.046875 -0.421875 -4.765625l-2.75 8.71875l-0.90625 0l-2.859375 -8.71875q-0.078125 1.546875 -0.3125 4.109375l-0.046875 0.625l-0.484375 5.28125l-0.90625 0l1.03125 -10.953125l1.328125 0l2.71875 8.515625l2.625 -8.515625l1.34375 0l1.0625 10.953125zm5.6793823 -8.546875q1.65625 0 2.59375 1.15625q0.9375 1.140625 0.9375 3.1875q0 2.03125 -0.953125 3.203125q-0.953125 1.171875 -2.59375 1.171875q-1.671875 0 -2.609375 -1.15625q-0.921875 -1.15625 -0.921875 -3.1875q0 -1.328125 0.421875 -2.3125q0.4375 -1.0 1.234375 -1.53125q0.796875 -0.53125 1.890625 -0.53125zm0 0.78125q-1.21875 0 -1.890625 0.921875q-0.671875 0.90625 -0.671875 2.671875q0 1.734375 0.65625 2.65625q0.671875 0.90625 1.890625 0.90625q1.21875 0 1.890625 -0.90625q0.6875 -0.921875 0.6875 -2.6875q0 -1.75 -0.671875 -2.65625q-0.65625 -0.90625 -1.890625 -0.90625zm7.182892 7.46875q0 1.078125 -0.25 1.71875q-0.234375 0.65625 -0.703125 1.046875q-0.453125 0.390625 -1.296875 0.78125l-0.28125 -0.671875q0.609375 -0.3125 0.9375 -0.609375q0.328125 -0.28125 0.5 -0.8125q0.171875 -0.515625 0.171875 -1.421875l0 -8.109375l0.921875 0l0 8.078125zm-0.484375 -11.75q0.328125 0 0.515625 0.203125q0.1875 0.1875 0.1875 0.46875q0 0.28125 -0.1875 0.484375q-0.1875 0.1875 -0.515625 0.1875q-0.296875 0 -0.5 -0.1875q-0.1875 -0.203125 -0.1875 -0.484375q0 -0.28125 0.1875 -0.46875q0.203125 -0.203125 0.5 -0.203125zm9.070007 10.1875q0 0.65625 0.171875 0.953125q0.171875 0.28125 0.53125 0.421875l-0.203125 0.65625q-0.578125 -0.109375 -0.890625 -0.421875q-0.3125 -0.328125 -0.40625 -0.984375q-0.859375 1.40625 -2.609375 1.40625q-1.203125 0 -1.90625 -0.671875q-0.6875 -0.6875 -0.6875 -1.8125q0 -1.296875 0.921875 -2.0q0.921875 -0.71875 2.5625 -0.71875l1.59375 0l0 -0.8125q0 -1.0 -0.453125 -1.453125q-0.4375 -0.46875 -1.484375 -0.46875q-0.953125 0 -2.265625 0.484375l-0.25 -0.703125q1.40625 -0.5625 2.640625 -0.5625q2.734375 0 2.734375 2.65625l0 4.03125zm-3.25 1.28125q1.515625 0 2.328125 -1.46875l0 -2.3125l-1.453125 0q-1.28125 0 -1.953125 0.5q-0.671875 0.5 -0.671875 1.484375q0 0.875 0.453125 1.34375q0.46875 0.453125 1.296875 0.453125zm7.8691406 0.75q-0.6875 0 -1.09375 -0.390625q-0.390625 -0.40625 -0.390625 -1.1875l0 -10.375l0.9375 -0.109375l0 10.453125q0 0.8125 0.671875 0.8125q0.328125 0 0.578125 -0.109375l0.25 0.6875q-0.453125 0.21875 -0.953125 0.21875zm5.948395 -8.71875q1.65625 0 2.59375 1.15625q0.9375 1.140625 0.9375 3.1875q0 2.03125 -0.953125 3.203125q-0.953125 1.171875 -2.59375 1.171875q-1.671875 0 -2.609375 -1.15625q-0.921875 -1.15625 -0.921875 -3.1875q0 -1.328125 0.421875 -2.3125q0.4375 -1.0 1.234375 -1.53125q0.796875 -0.53125 1.890625 -0.53125zm0 0.78125q-1.21875 0 -1.890625 0.921875q-0.671875 0.90625 -0.671875 2.671875q0 1.734375 0.65625 2.65625q0.671875 0.90625 1.890625 0.90625q1.21875 0 1.890625 -0.90625q0.6875 -0.921875 0.6875 -2.6875q0 -1.75 -0.671875 -2.65625q-0.65625 -0.90625 -1.890625 -0.90625zm9.136017 -0.78125q1.65625 0 2.59375 1.15625q0.9375 1.140625 0.9375 3.1875q0 2.03125 -0.953125 3.203125q-0.953125 1.171875 -2.59375 1.171875q-1.671875 0 -2.609375 -1.15625q-0.921875 -1.15625 -0.921875 -3.1875q0 -1.328125 0.421875 -2.3125q0.4375 -1.0 1.234375 -1.53125q0.796875 -0.53125 1.890625 -0.53125zm0 0.78125q-1.21875 0 -1.890625 0.921875q-0.671875 0.90625 -0.671875 2.671875q0 1.734375 0.65625 2.65625q0.671875 0.90625 1.890625 0.90625q1.21875 0 1.890625 -0.90625q0.6875 -0.921875 0.6875 -2.6875q0 -1.75 -0.671875 -2.65625q-0.65625 -0.90625 -1.890625 -0.90625zm9.714142 -0.78125q1.515625 0 2.265625 1.140625q0.765625 1.125 0.765625 3.1875q0 2.015625 -0.828125 3.203125q-0.8125 1.1875 -2.34375 1.1875q-0.765625 0 -1.375 -0.3125q-0.59375 -0.3125 -1.015625 -0.828125l0 4.125l-0.921875 0.125l0 -11.65625l0.796875 0l0.078125 1.21875q0.46875 -0.65625 1.125 -1.015625q0.671875 -0.375 1.453125 -0.375zm-0.328125 7.9375q1.15625 0 1.765625 -0.90625q0.609375 -0.921875 0.609375 -2.703125q0 -3.5625 -2.234375 -3.5625q-0.75 0 -1.296875 0.390625q-0.546875 0.375 -1.046875 1.046875l0 4.453125q0.828125 1.28125 2.203125 1.28125zm14.41626 -10.53125q0.921875 0 1.546875 0.25q0.625 0.25 1.265625 0.765625l-0.5 0.640625q-0.5625 -0.453125 -1.078125 -0.640625q-0.515625 -0.1875 -1.171875 -0.1875q-1.546875 0 -2.515625 1.1875q-0.96875 1.171875 -0.96875 3.640625q0 1.59375 0.4375 2.6875q0.453125 1.078125 1.234375 1.609375q0.78125 0.515625 1.765625 0.515625q0.78125 0 1.328125 -0.234375q0.546875 -0.234375 1.109375 -0.671875l0.5 0.625q-1.203125 1.125 -2.96875 1.125q-1.28125 0 -2.28125 -0.65625q-1.0 -0.65625 -1.5625 -1.921875q-0.5625 -1.28125 -0.5625 -3.078125q0 -1.8125 0.578125 -3.078125q0.59375 -1.28125 1.59375 -1.921875q1.0 -0.65625 2.25 -0.65625zm7.573761 2.59375q1.65625 0 2.59375 1.15625q0.9375 1.140625 0.9375 3.1875q0 2.03125 -0.953125 3.203125q-0.953125 1.171875 -2.59375 1.171875q-1.671875 0 -2.609375 -1.15625q-0.921875 -1.15625 -0.921875 -3.1875q0 -1.328125 0.421875 -2.3125q0.4375 -1.0 1.234375 -1.53125q0.796875 -0.53125 1.890625 -0.53125zm0 0.78125q-1.21875 0 -1.890625 0.921875q-0.671875 0.90625 -0.671875 2.671875q0 1.734375 0.65625 2.65625q0.671875 0.90625 1.890625 0.90625q1.21875 0 1.890625 -0.90625q0.6875 -0.921875 0.6875 -2.6875q0 -1.75 -0.671875 -2.65625q-0.65625 -0.90625 -1.890625 -0.90625zm9.948517 -0.78125q1.140625 0 1.734375 0.671875q0.609375 0.671875 0.609375 1.890625l0 5.984375l-0.9375 0l0 -5.859375q0 -1.0 -0.40625 -1.46875q-0.390625 -0.46875 -1.171875 -0.46875q-0.796875 0 -1.421875 0.453125q-0.609375 0.4375 -1.171875 1.28125l0 6.0625l-0.921875 0l0 -8.375l0.796875 0l0.09375 1.4375q0.515625 -0.765625 1.21875 -1.1875q0.703125 -0.421875 1.578125 -0.421875zm9.344025 0q1.140625 0 1.734375 0.671875q0.609375 0.671875 0.609375 1.890625l0 5.984375l-0.9375 0l0 -5.859375q0 -1.0 -0.40625 -1.46875q-0.390625 -0.46875 -1.171875 -0.46875q-0.796875 0 -1.421875 0.453125q-0.609375 0.4375 -1.171875 1.28125l0 6.0625l-0.921875 0l0 -8.375l0.796875 0l0.09375 1.4375q0.515625 -0.765625 1.21875 -1.1875q0.703125 -0.421875 1.578125 -0.421875zm11.5784 4.046875q0 0.359375 -0.03125 0.671875l-5.578125 0q0.078125 1.640625 0.765625 2.4375q0.703125 0.78125 1.84375 0.78125q0.65625 0 1.15625 -0.203125q0.5 -0.203125 1.09375 -0.625l0.4375 0.59375q-0.625 0.5 -1.28125 0.765625q-0.65625 0.25 -1.453125 0.25q-1.671875 0 -2.609375 -1.125q-0.9375 -1.140625 -0.9375 -3.15625q0 -1.328125 0.40625 -2.328125q0.40625 -1.0 1.15625 -1.546875q0.765625 -0.5625 1.78125 -0.5625q1.59375 0 2.421875 1.078125q0.828125 1.078125 0.828125 2.96875zm-0.90625 -0.28125q0 -1.40625 -0.59375 -2.203125q-0.578125 -0.796875 -1.71875 -0.796875q-1.046875 0 -1.6875 0.8125q-0.640625 0.796875 -0.703125 2.421875l4.703125 0l0 -0.234375zm6.4197693 -3.765625q0.71875 0 1.28125 0.203125q0.5625 0.203125 1.078125 0.640625l-0.453125 0.609375q-0.421875 -0.328125 -0.859375 -0.484375q-0.4375 -0.171875 -1.0 -0.171875q-1.1875 0 -1.890625 0.921875q-0.703125 0.921875 -0.703125 2.6875q0 1.734375 0.6875 2.625q0.703125 0.875 1.890625 0.875q0.5625 0 1.015625 -0.171875q0.453125 -0.171875 0.921875 -0.53125l0.4375 0.625q-1.046875 0.890625 -2.390625 0.890625q-1.078125 0 -1.875 -0.5q-0.796875 -0.515625 -1.234375 -1.484375q-0.4375 -0.96875 -0.4375 -2.3125q0 -1.328125 0.4375 -2.328125q0.4375 -1.0 1.234375 -1.546875q0.796875 -0.546875 1.859375 -0.546875zm8.441528 8.1875q-0.796875 0.53125 -1.75 0.53125q-0.96875 0 -1.515625 -0.5625q-0.53125 -0.5625 -0.53125 -1.640625l0 -5.578125l-1.421875 0l0 -0.765625l1.421875 0l0 -2.0l0.921875 -0.109375l0 2.109375l2.15625 0l-0.109375 0.765625l-2.046875 0l0 5.53125q0 0.734375 0.296875 1.09375q0.3125 0.359375 0.9375 0.359375q0.640625 0 1.28125 -0.359375l0.359375 0.625zm4.3421326 -8.1875q1.65625 0 2.59375 1.15625q0.9375 1.140625 0.9375 3.1875q0 2.03125 -0.953125 3.203125q-0.953125 1.171875 -2.59375 1.171875q-1.671875 0 -2.609375 -1.15625q-0.921875 -1.15625 -0.921875 -3.1875q0 -1.328125 0.421875 -2.3125q0.4375 -1.0 1.234375 -1.53125q0.796875 -0.53125 1.890625 -0.53125zm0 0.78125q-1.21875 0 -1.890625 0.921875q-0.671875 0.90625 -0.671875 2.671875q0 1.734375 0.65625 2.65625q0.671875 0.90625 1.890625 0.90625q1.21875 0 1.890625 -0.90625q0.6875 -0.921875 0.6875 -2.6875q0 -1.75 -0.671875 -2.65625q-0.65625 -0.90625 -1.890625 -0.90625zm9.495392 -0.78125q0.5 0 0.84375 0.09375l-0.1875 0.890625q-0.34375 -0.09375 -0.734375 -0.09375q-0.84375 0 -1.375 0.609375q-0.515625 0.609375 -0.859375 1.921875l0 5.125l-0.921875 0l0 -8.375l0.796875 0l0.078125 1.875q0.328125 -1.03125 0.90625 -1.53125q0.59375 -0.515625 1.453125 -0.515625z" fill-rule="nonzero"/><path fill="#4fc7e7" d="m344.74408 298.58398l0 0c0 4.207367 13.643005 7.618103 30.472443 7.618103c16.829468 0 30.472443 -3.410736 30.472443 -7.618103l0 61.299225c0 4.207367 -13.642975 7.618103 -30.472443 7.618103c-16.829437 0 -30.472443 -3.410736 -30.472443 -7.618103z" fill-rule="evenodd"/><path fill="#95ddf0" d="m344.74408 298.58398l0 0c0 -4.207367 13.643005 -7.618103 30.472443 -7.618103c16.829468 0 30.472443 3.410736 30.472443 7.618103l0 0c0 4.207367 -13.642975 7.618103 -30.472443 7.618103c-16.829437 0 -30.472443 -3.410736 -30.472443 -7.618103z" fill-rule="evenodd"/><path fill="#000000" fill-opacity="0.0" d="m405.68896 298.58398l0 0c0 4.207367 -13.642975 7.618103 -30.472443 7.618103c-16.829437 0 -30.472443 -3.410736 -30.472443 -7.618103l0 0c0 -4.207367 13.643005 -7.618103 30.472443 -7.618103c16.829468 0 30.472443 3.410736 30.472443 7.618103l0 61.299225c0 4.207367 -13.642975 7.618103 -30.472443 7.618103c-16.829437 0 -30.472443 -3.410736 -30.472443 -7.618103l0 -61.299225" fill-rule="evenodd"/><path fill="#000000" d="m368.89026 329.48578l-2.375 7.296875l-0.703125 0l-2.390625 -7.296875l0.6875 0l2.0625 6.640625l2.0625 -6.640625l0.65625 0zm4.3448486 6.0625q0 0.4375 0.109375 0.625q0.109375 0.1875 0.359375 0.296875l-0.140625 0.4375q-0.375 -0.078125 -0.59375 -0.296875q-0.203125 -0.21875 -0.265625 -0.65625q-0.578125 0.953125 -1.734375 0.953125q-0.796875 0 -1.265625 -0.453125q-0.46875 -0.453125 -0.46875 -1.21875q0 -0.859375 0.609375 -1.328125q0.625 -0.46875 1.703125 -0.46875l1.0625 0l0 -0.546875q0 -0.671875 -0.296875 -0.96875q-0.296875 -0.3125 -0.984375 -0.3125q-0.640625 0 -1.515625 0.328125l-0.15625 -0.46875q0.9375 -0.375 1.75 -0.375q1.828125 0 1.828125 1.765625l0 2.6875zm-2.171875 0.84375q1.015625 0 1.546875 -0.96875l0 -1.546875l-0.96875 0q-0.84375 0 -1.296875 0.34375q-0.453125 0.328125 -0.453125 0.984375q0 0.578125 0.3125 0.890625q0.3125 0.296875 0.859375 0.296875zm8.336792 0.390625l-0.546875 0l-0.03125 -0.984375q-0.65625 1.109375 -1.8125 1.109375q-0.765625 0 -1.171875 -0.4375q-0.40625 -0.453125 -0.40625 -1.28125l0 -3.984375l0.609375 0l0 3.921875q0 0.65625 0.265625 0.96875q0.28125 0.296875 0.84375 0.296875q0.96875 0 1.625 -1.140625l0 -4.046875l0.625 0l0 5.578125zm3.185669 0.125q-0.46875 0 -0.734375 -0.265625q-0.25 -0.28125 -0.25 -0.796875l0 -6.90625l0.609375 -0.078125l0 6.96875q0 0.53125 0.453125 0.53125q0.21875 0 0.390625 -0.0625l0.171875 0.453125q-0.3125 0.15625 -0.640625 0.15625zm4.6357727 -0.359375q-0.53125 0.359375 -1.171875 0.359375q-0.640625 0 -1.015625 -0.375q-0.359375 -0.390625 -0.359375 -1.109375l0 -3.71875l-0.9375 0l0 -0.5l0.9375 0l0 -1.328125l0.625 -0.078125l0 1.40625l1.4375 0l-0.078125 0.5l-1.359375 0l0 3.6875q0 0.5 0.203125 0.734375q0.203125 0.234375 0.609375 0.234375q0.4375 0 0.859375 -0.234375l0.25 0.421875z" fill-rule="nonzero"/><path fill="#4fc7e7" d="m433.50388 331.1916l69.70477 0l0 0c9.1315 0 16.534088 7.1336975 16.534088 15.933563c0 8.799835 -7.402588 15.933533 -16.534088 15.933533l-69.70477 0l0 0c-9.1315 0 -16.534058 -7.1336975 -16.534058 -15.933533c0 -8.799866 7.4025574 -15.933563 16.534058 -15.933563z" fill-rule="evenodd"/><path fill="#000000" d="m433.90512 337.06827l0 7.296875l-0.640625 0l0 -7.296875l0.640625 0zm3.8125 0l-3.015625 3.359375l3.203125 3.9375l-0.78125 0l-3.1875 -3.90625l3.046875 -3.390625l0.734375 0zm5.1385193 4.296875q0 0.234375 -0.015625 0.453125l-3.71875 0q0.046875 1.09375 0.515625 1.625q0.46875 0.515625 1.21875 0.515625q0.4375 0 0.765625 -0.125q0.34375 -0.140625 0.734375 -0.421875l0.296875 0.390625q-0.421875 0.34375 -0.859375 0.515625q-0.4375 0.171875 -0.96875 0.171875q-1.109375 0 -1.734375 -0.75q-0.625 -0.765625 -0.625 -2.109375q0 -0.890625 0.265625 -1.546875q0.265625 -0.671875 0.765625 -1.03125q0.515625 -0.375 1.1875 -0.375q1.0625 0 1.609375 0.71875q0.5625 0.71875 0.5625 1.96875zm-0.609375 -0.1875q0 -0.9375 -0.390625 -1.453125q-0.375 -0.53125 -1.140625 -0.53125q-0.703125 0 -1.125 0.53125q-0.421875 0.53125 -0.46875 1.609375l3.125 0l0 -0.15625zm4.12796 3.203125q-0.21875 0.65625 -0.484375 1.0625q-0.265625 0.421875 -0.703125 0.6875q-0.421875 0.28125 -1.09375 0.40625l-0.0625 -0.484375q0.5625 -0.125 0.875 -0.328125q0.3125 -0.203125 0.5 -0.515625q0.1875 -0.296875 0.375 -0.84375l-0.21875 0l-1.9375 -5.578125l0.671875 0l1.6875 5.125l1.65625 -5.125l0.640625 0l-1.90625 5.59375zm5.8153076 -8.578125l0.53125 0.140625l-2.46875 9.484375l-0.53125 -0.140625l2.46875 -9.484375zm8.43631 1.140625q0.609375 0 1.03125 0.171875q0.421875 0.15625 0.84375 0.5l-0.34375 0.4375q-0.375 -0.3125 -0.71875 -0.4375q-0.328125 -0.125 -0.765625 -0.125q-1.03125 0 -1.6875 0.796875q-0.640625 0.78125 -0.640625 2.421875q0 1.0625 0.296875 1.796875q0.296875 0.71875 0.8125 1.0625q0.515625 0.34375 1.1875 0.34375q0.515625 0 0.875 -0.140625q0.359375 -0.15625 0.734375 -0.46875l0.328125 0.421875q-0.796875 0.765625 -1.96875 0.765625q-0.84375 0 -1.515625 -0.4375q-0.671875 -0.4375 -1.046875 -1.28125q-0.375 -0.859375 -0.375 -2.0625q0 -1.203125 0.390625 -2.046875q0.390625 -0.84375 1.0625 -1.28125q0.671875 -0.4375 1.5 -0.4375zm7.0695496 4.421875q0 0.234375 -0.015625 0.453125l-3.71875 0q0.046875 1.09375 0.515625 1.625q0.46875 0.515625 1.21875 0.515625q0.4375 0 0.765625 -0.125q0.34375 -0.140625 0.734375 -0.421875l0.296875 0.390625q-0.421875 0.34375 -0.859375 0.515625q-0.4375 0.171875 -0.96875 0.171875q-1.109375 0 -1.734375 -0.75q-0.625 -0.765625 -0.625 -2.109375q0 -0.890625 0.265625 -1.546875q0.265625 -0.671875 0.765625 -1.03125q0.515625 -0.375 1.1875 -0.375q1.0625 0 1.609375 0.71875q0.5625 0.71875 0.5625 1.96875zm-0.609375 -0.1875q0 -0.9375 -0.390625 -1.453125q-0.375 -0.53125 -1.140625 -0.53125q-0.703125 0 -1.125 0.53125q-0.421875 0.53125 -0.46875 1.609375l3.125 0l0 -0.15625zm4.539917 -2.5q0.328125 0 0.546875 0.0625l-0.109375 0.578125q-0.234375 -0.0625 -0.5 -0.0625q-0.5625 0 -0.90625 0.421875q-0.34375 0.40625 -0.578125 1.28125l0 3.40625l-0.625 0l0 -5.578125l0.53125 0l0.0625 1.25q0.21875 -0.6875 0.609375 -1.015625q0.390625 -0.34375 0.96875 -0.34375zm4.349823 5.453125q-0.53125 0.359375 -1.171875 0.359375q-0.640625 0 -1.015625 -0.375q-0.359375 -0.390625 -0.359375 -1.109375l0 -3.71875l-0.9375 0l0 -0.5l0.9375 0l0 -1.328125l0.625 -0.078125l0 1.40625l1.4375 0l-0.078125 0.5l-1.359375 0l0 3.6875q0 0.5 0.203125 0.734375q0.203125 0.234375 0.609375 0.234375q0.4375 0 0.859375 -0.234375l0.25 0.421875zm1.7119446 -5.34375l0 5.578125l-0.625 0l0 -5.578125l0.625 0zm-0.3125 -2.453125q0.203125 0 0.328125 0.140625q0.140625 0.125 0.140625 0.3125q0 0.1875 -0.140625 0.328125q-0.125 0.125 -0.328125 0.125q-0.203125 0 -0.34375 -0.125q-0.125 -0.140625 -0.125 -0.328125q0 -0.1875 0.125 -0.3125q0.140625 -0.140625 0.34375 -0.140625zm4.205353 0.109375q0.84375 0 1.578125 0.40625l-0.234375 0.4375q-0.671875 -0.3125 -1.3125 -0.3125q-0.546875 0 -0.796875 0.21875q-0.234375 0.21875 -0.234375 0.71875l0 0.875l3.109375 0l0 5.578125l-0.625 0l0 -5.078125l-2.484375 0l0 5.078125l-0.625 0l0 -5.078125l-0.921875 0l0 -0.5l0.921875 0l0 -0.90625q0 -0.671875 0.421875 -1.046875q0.421875 -0.390625 1.203125 -0.390625zm6.2651367 2.234375q0.484375 0 0.859375 0.140625q0.375 0.125 0.71875 0.421875l-0.296875 0.40625q-0.28125 -0.21875 -0.578125 -0.328125q-0.296875 -0.109375 -0.671875 -0.109375q-0.78125 0 -1.25 0.609375q-0.46875 0.609375 -0.46875 1.78125q0 1.171875 0.453125 1.765625q0.46875 0.578125 1.265625 0.578125q0.375 0 0.671875 -0.109375q0.296875 -0.125 0.609375 -0.359375l0.296875 0.40625q-0.703125 0.609375 -1.59375 0.609375q-0.71875 0 -1.25 -0.34375q-0.53125 -0.34375 -0.828125 -0.984375q-0.28125 -0.65625 -0.28125 -1.546875q0 -0.890625 0.28125 -1.546875q0.296875 -0.671875 0.828125 -1.03125q0.53125 -0.359375 1.234375 -0.359375zm6.4536743 4.453125q0 0.4375 0.109375 0.625q0.109375 0.1875 0.359375 0.296875l-0.140625 0.4375q-0.375 -0.078125 -0.59375 -0.296875q-0.203125 -0.21875 -0.265625 -0.65625q-0.578125 0.953125 -1.734375 0.953125q-0.796875 0 -1.265625 -0.453125q-0.46875 -0.453125 -0.46875 -1.21875q0 -0.859375 0.609375 -1.328125q0.625 -0.46875 1.703125 -0.46875l1.0625 0l0 -0.546875q0 -0.671875 -0.296875 -0.96875q-0.296875 -0.3125 -0.984375 -0.3125q-0.640625 0 -1.515625 0.328125l-0.15625 -0.46875q0.9375 -0.375 1.75 -0.375q1.828125 0 1.828125 1.765625l0 2.6875zm-2.171875 0.84375q1.015625 0 1.546875 -0.96875l0 -1.546875l-0.96875 0q-0.84375 0 -1.296875 0.34375q-0.453125 0.328125 -0.453125 0.984375q0 0.578125 0.3125 0.890625q0.3125 0.296875 0.859375 0.296875zm6.961792 0.15625q-0.53125 0.359375 -1.171875 0.359375q-0.640625 0 -1.015625 -0.375q-0.359375 -0.390625 -0.359375 -1.109375l0 -3.71875l-0.9375 0l0 -0.5l0.9375 0l0 -1.328125l0.625 -0.078125l0 1.40625l1.4375 0l-0.078125 0.5l-1.359375 0l0 3.6875q0 0.5 0.203125 0.734375q0.203125 0.234375 0.609375 0.234375q0.4375 0 0.859375 -0.234375l0.25 0.421875zm4.912079 -2.765625q0 0.234375 -0.015625 0.453125l-3.71875 0q0.046875 1.09375 0.515625 1.625q0.46875 0.515625 1.21875 0.515625q0.4375 0 0.765625 -0.125q0.34375 -0.140625 0.734375 -0.421875l0.296875 0.390625q-0.421875 0.34375 -0.859375 0.515625q-0.4375 0.171875 -0.96875 0.171875q-1.109375 0 -1.734375 -0.75q-0.625 -0.765625 -0.625 -2.109375q0 -0.890625 0.265625 -1.546875q0.265625 -0.671875 0.765625 -1.03125q0.515625 -0.375 1.1875 -0.375q1.0625 0 1.609375 0.71875q0.5625 0.71875 0.5625 1.96875zm-0.609375 -0.1875q0 -0.9375 -0.390625 -1.453125q-0.375 -0.53125 -1.140625 -0.53125q-0.703125 0 -1.125 0.53125q-0.421875 0.53125 -0.46875 1.609375l3.125 0l0 -0.15625z" fill-rule="nonzero"/><path fill="#000000" d="m448.55063 349.94327q0.625 0 1.078125 0.1875q0.453125 0.171875 0.921875 0.546875l-0.375 0.40625q-0.40625 -0.3125 -0.78125 -0.453125q-0.359375 -0.140625 -0.84375 -0.140625q-0.625 0 -1.171875 0.328125q-0.53125 0.328125 -0.875 1.046875q-0.328125 0.71875 -0.328125 1.828125q0 1.625 0.609375 2.4375q0.625 0.8125 1.734375 0.8125q0.859375 0 1.53125 -0.390625l0 -2.59375l-1.421875 0l-0.078125 -0.53125l2.125 0l0 3.453125q-1.03125 0.609375 -2.15625 0.609375q-1.390625 0 -2.203125 -0.96875q-0.8125 -0.984375 -0.8125 -2.828125q0 -1.203125 0.421875 -2.046875q0.421875 -0.859375 1.109375 -1.28125q0.703125 -0.421875 1.515625 -0.421875zm7.9137573 4.421875q0 0.234375 -0.015625 0.453125l-3.71875 0q0.046875 1.09375 0.515625 1.625q0.46875 0.515625 1.21875 0.515625q0.4375 0 0.765625 -0.125q0.34375 -0.140625 0.734375 -0.421875l0.296875 0.390625q-0.421875 0.34375 -0.859375 0.515625q-0.4375 0.171875 -0.96875 0.171875q-1.109375 0 -1.734375 -0.75q-0.625 -0.765625 -0.625 -2.109375q0 -0.890625 0.265625 -1.546875q0.265625 -0.671875 0.765625 -1.03125q0.515625 -0.375 1.1875 -0.375q1.0625 0 1.609375 0.71875q0.5625 0.71875 0.5625 1.96875zm-0.609375 -0.1875q0 -0.9375 -0.390625 -1.453125q-0.375 -0.53125 -1.140625 -0.53125q-0.703125 0 -1.125 0.53125q-0.421875 0.53125 -0.46875 1.609375l3.125 0l0 -0.15625zm4.8368225 -2.5q0.75 0 1.140625 0.453125q0.40625 0.4375 0.40625 1.25l0 3.984375l-0.609375 0l0 -3.90625q0 -0.671875 -0.265625 -0.96875q-0.265625 -0.3125 -0.796875 -0.3125q-0.53125 0 -0.9375 0.296875q-0.40625 0.28125 -0.78125 0.859375l0 4.03125l-0.625 0l0 -5.578125l0.53125 0l0.0625 0.953125q0.34375 -0.5 0.8125 -0.78125q0.46875 -0.28125 1.0625 -0.28125zm7.707672 2.6875q0 0.234375 -0.015625 0.453125l-3.71875 0q0.046875 1.09375 0.515625 1.625q0.46875 0.515625 1.21875 0.515625q0.4375 0 0.765625 -0.125q0.34375 -0.140625 0.734375 -0.421875l0.296875 0.390625q-0.421875 0.34375 -0.859375 0.515625q-0.4375 0.171875 -0.96875 0.171875q-1.109375 0 -1.734375 -0.75q-0.625 -0.765625 -0.625 -2.109375q0 -0.890625 0.265625 -1.546875q0.265625 -0.671875 0.765625 -1.03125q0.515625 -0.375 1.1875 -0.375q1.0625 0 1.609375 0.71875q0.5625 0.71875 0.5625 1.96875zm-0.609375 -0.1875q0 -0.9375 -0.390625 -1.453125q-0.375 -0.53125 -1.140625 -0.53125q-0.703125 0 -1.125 0.53125q-0.421875 0.53125 -0.46875 1.609375l3.125 0l0 -0.15625zm4.5399475 -2.5q0.328125 0 0.546875 0.0625l-0.109375 0.578125q-0.234375 -0.0625 -0.5 -0.0625q-0.5625 0 -0.90625 0.421875q-0.34375 0.40625 -0.578125 1.28125l0 3.40625l-0.625 0l0 -5.578125l0.53125 0l0.0625 1.25q0.21875 -0.6875 0.609375 -1.015625q0.390625 -0.34375 0.96875 -0.34375zm4.898346 4.453125q0 0.4375 0.109375 0.625q0.109375 0.1875 0.359375 0.296875l-0.140625 0.4375q-0.375 -0.078125 -0.59375 -0.296875q-0.203125 -0.21875 -0.265625 -0.65625q-0.578125 0.953125 -1.734375 0.953125q-0.796875 0 -1.265625 -0.453125q-0.46875 -0.453125 -0.46875 -1.21875q0 -0.859375 0.609375 -1.328125q0.625 -0.46875 1.703125 -0.46875l1.0625 0l0 -0.546875q0 -0.671875 -0.296875 -0.96875q-0.296875 -0.3125 -0.984375 -0.3125q-0.640625 0 -1.515625 0.328125l-0.15625 -0.46875q0.9375 -0.375 1.75 -0.375q1.828125 0 1.828125 1.765625l0 2.6875zm-2.171875 0.84375q1.015625 0 1.546875 -0.96875l0 -1.546875l-0.96875 0q-0.84375 0 -1.296875 0.34375q-0.453125 0.328125 -0.453125 0.984375q0 0.578125 0.3125 0.890625q0.3125 0.296875 0.859375 0.296875zm6.9618225 0.15625q-0.53125 0.359375 -1.171875 0.359375q-0.640625 0 -1.015625 -0.375q-0.359375 -0.390625 -0.359375 -1.109375l0 -3.71875l-0.9375 0l0 -0.5l0.9375 0l0 -1.328125l0.625 -0.078125l0 1.40625l1.4375 0l-0.078125 0.5l-1.359375 0l0 3.6875q0 0.5 0.203125 0.734375q0.203125 0.234375 0.609375 0.234375q0.4375 0 0.859375 -0.234375l0.25 0.421875zm2.8807983 -5.453125q1.109375 0 1.734375 0.765625q0.625 0.75 0.625 2.125q0 1.34375 -0.640625 2.140625q-0.625 0.78125 -1.734375 0.78125q-1.109375 0 -1.734375 -0.765625q-0.609375 -0.78125 -0.609375 -2.140625q0 -0.890625 0.28125 -1.546875q0.28125 -0.65625 0.8125 -1.0q0.546875 -0.359375 1.265625 -0.359375zm0 0.515625q-0.8125 0 -1.265625 0.609375q-0.4375 0.609375 -0.4375 1.78125q0 1.15625 0.4375 1.765625q0.453125 0.609375 1.25 0.609375q0.8125 0 1.265625 -0.609375q0.453125 -0.609375 0.453125 -1.78125q0 -1.171875 -0.4375 -1.765625q-0.4375 -0.609375 -1.265625 -0.609375zm6.334778 -0.515625q0.328125 0 0.546875 0.0625l-0.109375 0.578125q-0.234375 -0.0625 -0.5 -0.0625q-0.5625 0 -0.90625 0.421875q-0.34375 0.40625 -0.578125 1.28125l0 3.40625l-0.625 0l0 -5.578125l0.53125 0l0.0625 1.25q0.21875 -0.6875 0.609375 -1.015625q0.390625 -0.34375 0.96875 -0.34375z" fill-rule="nonzero"/><path fill="#4fc7e7" d="m418.8622 290.96588l100.88187 0l0 30.299225l-100.88187 0z" fill-rule="evenodd"/><path fill="#000000" d="m450.616 309.8555l-0.609375 0l-0.34375 -3.5q-0.203125 -2.03125 -0.265625 -3.171875l-1.84375 5.8125l-0.609375 0l-1.890625 -5.8125q-0.046875 1.03125 -0.21875 2.734375l-0.03125 0.421875l-0.3125 3.515625l-0.609375 0l0.6875 -7.296875l0.890625 0l1.8125 5.671875l1.75 -5.671875l0.890625 0l0.703125 7.296875zm4.2862244 -7.421875q0.609375 0 1.03125 0.171875q0.421875 0.15625 0.84375 0.5l-0.34375 0.4375q-0.375 -0.3125 -0.71875 -0.4375q-0.328125 -0.125 -0.765625 -0.125q-1.03125 0 -1.6875 0.796875q-0.640625 0.78125 -0.640625 2.421875q0 1.0625 0.296875 1.796875q0.296875 0.71875 0.8125 1.0625q0.515625 0.34375 1.1875 0.34375q0.515625 0 0.875 -0.140625q0.359375 -0.15625 0.734375 -0.46875l0.328125 0.421875q-0.796875 0.765625 -1.96875 0.765625q-0.84375 0 -1.515625 -0.4375q-0.671875 -0.4375 -1.046875 -1.28125q-0.375 -0.859375 -0.375 -2.0625q0 -1.203125 0.390625 -2.046875q0.390625 -0.84375 1.0625 -1.28125q0.671875 -0.4375 1.5 -0.4375zm9.620178 7.421875l-0.609375 0l-0.34375 -3.5q-0.203125 -2.03125 -0.265625 -3.171875l-1.84375 5.8125l-0.609375 0l-1.890625 -5.8125q-0.046875 1.03125 -0.21875 2.734375l-0.03125 0.421875l-0.3125 3.515625l-0.609375 0l0.6875 -7.296875l0.890625 0l1.8125 5.671875l1.75 -5.671875l0.890625 0l0.703125 7.296875zm7.366028 -7.421875q0.609375 0 1.03125 0.171875q0.421875 0.15625 0.84375 0.5l-0.34375 0.4375q-0.375 -0.3125 -0.71875 -0.4375q-0.328125 -0.125 -0.765625 -0.125q-1.03125 0 -1.6875 0.796875q-0.640625 0.78125 -0.640625 2.421875q0 1.0625 0.296875 1.796875q0.296875 0.71875 0.8125 1.0625q0.515625 0.34375 1.1875 0.34375q0.515625 0 0.875 -0.140625q0.359375 -0.15625 0.734375 -0.46875l0.328125 0.421875q-0.796875 0.765625 -1.96875 0.765625q-0.84375 0 -1.515625 -0.4375q-0.671875 -0.4375 -1.046875 -1.28125q-0.375 -0.859375 -0.375 -2.0625q0 -1.203125 0.390625 -2.046875q0.390625 -0.84375 1.0625 -1.28125q0.671875 -0.4375 1.5 -0.4375zm4.160553 7.546875q-0.46875 0 -0.734375 -0.265625q-0.25 -0.28125 -0.25 -0.796875l0 -6.90625l0.609375 -0.078125l0 6.96875q0 0.53125 0.453125 0.53125q0.21875 0 0.390625 -0.0625l0.171875 0.453125q-0.3125 0.15625 -0.640625 0.15625zm2.7139282 -5.703125l0 5.578125l-0.625 0l0 -5.578125l0.625 0zm-0.3125 -2.453125q0.203125 0 0.328125 0.140625q0.140625 0.125 0.140625 0.3125q0 0.1875 -0.140625 0.328125q-0.125 0.125 -0.328125 0.125q-0.203125 0 -0.34375 -0.125q-0.125 -0.140625 -0.125 -0.328125q0 -0.1875 0.125 -0.3125q0.140625 -0.140625 0.34375 -0.140625zm6.5178223 5.03125q0 0.234375 -0.015625 0.453125l-3.71875 0q0.046875 1.09375 0.515625 1.625q0.46875 0.515625 1.21875 0.515625q0.4375 0 0.765625 -0.125q0.34375 -0.140625 0.734375 -0.421875l0.296875 0.390625q-0.421875 0.34375 -0.859375 0.515625q-0.4375 0.171875 -0.96875 0.171875q-1.109375 0 -1.734375 -0.75q-0.625 -0.765625 -0.625 -2.109375q0 -0.890625 0.265625 -1.546875q0.265625 -0.671875 0.765625 -1.03125q0.515625 -0.375 1.1875 -0.375q1.0625 0 1.609375 0.71875q0.5625 0.71875 0.5625 1.96875zm-0.609375 -0.1875q0 -0.9375 -0.390625 -1.453125q-0.375 -0.53125 -1.140625 -0.53125q-0.703125 0 -1.125 0.53125q-0.421875 0.53125 -0.46875 1.609375l3.125 0l0 -0.15625zm4.8368225 -2.5q0.75 0 1.140625 0.453125q0.40625 0.4375 0.40625 1.25l0 3.984375l-0.609375 0l0 -3.90625q0 -0.671875 -0.265625 -0.96875q-0.265625 -0.3125 -0.796875 -0.3125q-0.53125 0 -0.9375 0.296875q-0.40625 0.28125 -0.78125 0.859375l0 4.03125l-0.625 0l0 -5.578125l0.53125 0l0.0625 0.953125q0.34375 -0.5 0.8125 -0.78125q0.46875 -0.28125 1.0625 -0.28125zm6.301422 5.453125q-0.53125 0.359375 -1.171875 0.359375q-0.640625 0 -1.015625 -0.375q-0.359375 -0.390625 -0.359375 -1.109375l0 -3.71875l-0.9375 0l0 -0.5l0.9375 0l0 -1.328125l0.625 -0.078125l0 1.40625l1.4375 0l-0.078125 0.5l-1.359375 0l0 3.6875q0 0.5 0.203125 0.734375q0.203125 0.234375 0.609375 0.234375q0.4375 0 0.859375 -0.234375l0.25 0.421875z" fill-rule="nonzero"/><path fill="#4fc7e7" d="m344.74408 158.39633l60.944885 0l0 121.543304l-60.944885 0z" fill-rule="evenodd"/><path fill="#000000" d="m364.17517 213.1036q1.171875 0 2.015625 0.34375q0.859375 0.34375 1.65625 1.078125l-0.65625 0.703125q-0.71875 -0.609375 -1.421875 -0.890625q-0.6875 -0.28125 -1.5625 -0.28125q-1.1875 0 -1.921875 0.59375q-0.71875 0.578125 -0.71875 1.5625q0 0.671875 0.265625 1.109375q0.265625 0.4375 0.890625 0.796875q0.640625 0.34375 1.828125 0.6875q1.265625 0.390625 2.046875 0.84375q0.78125 0.453125 1.203125 1.15625q0.4375 0.703125 0.4375 1.796875q0 1.078125 -0.53125 1.921875q-0.515625 0.828125 -1.484375 1.296875q-0.953125 0.46875 -2.21875 0.46875q-2.390625 0 -4.078125 -1.609375l0.625 -0.703125q0.78125 0.671875 1.578125 1.015625q0.8125 0.34375 1.859375 0.34375q1.375 0 2.234375 -0.71875q0.875 -0.734375 0.875 -1.984375q0 -0.78125 -0.296875 -1.28125q-0.28125 -0.515625 -0.921875 -0.875q-0.640625 -0.359375 -1.8125 -0.734375q-1.96875 -0.59375 -2.8125 -1.375q-0.828125 -0.78125 -0.828125 -2.125q0 -0.90625 0.46875 -1.625q0.484375 -0.71875 1.328125 -1.109375q0.84375 -0.40625 1.953125 -0.40625zm9.680725 0.203125q2.640625 0 4.296875 1.34375q1.65625 1.34375 1.65625 4.9375q0 3.609375 -1.671875 5.0625q-1.671875 1.4375 -4.078125 1.4375l-2.734375 0l0 -12.78125l2.53125 0zm-1.421875 0.9375l0 10.90625l1.703125 0q4.5 0 4.5 -5.5625q0 -2.1875 -0.65625 -3.359375q-0.65625 -1.1875 -1.65625 -1.578125q-1.0 -0.40625 -2.328125 -0.40625l-1.5625 0zm11.7907715 -0.9375l0 12.78125l-1.109375 0l0 -12.78125l1.109375 0zm6.703125 0l-5.296875 5.875l5.609375 6.90625l-1.359375 0l-5.578125 -6.84375l5.328125 -5.9375l1.296875 0z" fill-rule="nonzero"/><path fill="#4fc7e7" d="m596.01575 233.00262l126.96063 0l0 146.92914l-126.96063 0z" fill-rule="evenodd"/><path fill="#000000" d="m627.59357 245.8795q0.828125 0 1.40625 0.234375q0.578125 0.21875 1.171875 0.6875l-0.46875 0.59375q-0.515625 -0.421875 -0.984375 -0.59375q-0.46875 -0.171875 -1.078125 -0.171875q-1.40625 0 -2.296875 1.09375q-0.890625 1.078125 -0.890625 3.328125q0 1.46875 0.40625 2.46875q0.421875 1.0 1.125 1.484375q0.71875 0.46875 1.625 0.46875q0.71875 0 1.203125 -0.21875q0.5 -0.21875 1.015625 -0.625l0.453125 0.578125q-1.09375 1.0312347 -2.703125 1.0312347q-1.171875 0 -2.09375 -0.59373474q-0.90625 -0.609375 -1.4375 -1.765625q-0.515625 -1.171875 -0.515625 -2.828125q0 -1.65625 0.53125 -2.8125q0.546875 -1.171875 1.46875 -1.765625q0.921875 -0.59375 2.0625 -0.59375zm6.923889 2.375q1.53125 0 2.390625 1.046875q0.859375 1.046875 0.859375 2.921875q0 1.859375 -0.875 2.9375q-0.875 1.0781097 -2.390625 1.0781097q-1.515625 0 -2.375 -1.0624847q-0.859375 -1.0625 -0.859375 -2.921875q0 -1.21875 0.390625 -2.125q0.40625 -0.90625 1.125 -1.390625q0.734375 -0.484375 1.734375 -0.484375zm0 0.71875q-1.109375 0 -1.734375 0.84375q-0.609375 0.828125 -0.609375 2.4375q0 1.59375 0.609375 2.4375q0.609375 0.828125 1.71875 0.828125q1.125 0 1.734375 -0.828125q0.625 -0.84375 0.625 -2.46875q0 -1.59375 -0.609375 -2.421875q-0.609375 -0.828125 -1.734375 -0.828125zm9.118713 -0.71875q1.046875 0 1.59375 0.625q0.546875 0.609375 0.546875 1.71875l0 5.4843597l-0.84375 0l0 -5.3593597q0 -0.921875 -0.375 -1.34375q-0.359375 -0.4375 -1.078125 -0.4375q-0.734375 0 -1.296875 0.40625q-0.5625 0.40625 -1.078125 1.171875l0 5.5624847l-0.859375 0l0 -7.6718597l0.734375 0l0.09375 1.3125q0.46875 -0.6875 1.109375 -1.078125q0.65625 -0.390625 1.453125 -0.390625zm8.559265 0q1.046875 0 1.59375 0.625q0.546875 0.609375 0.546875 1.71875l0 5.4843597l-0.84375 0l0 -5.3593597q0 -0.921875 -0.375 -1.34375q-0.359375 -0.4375 -1.078125 -0.4375q-0.734375 0 -1.296875 0.40625q-0.5625 0.40625 -1.078125 1.171875l0 5.5624847l-0.859375 0l0 -7.6718597l0.734375 0l0.09375 1.3125q0.46875 -0.6875 1.109375 -1.078125q0.65625 -0.390625 1.453125 -0.390625zm10.606201 3.703125q0 0.328125 -0.015625 0.625l-5.125 0q0.078125 1.484375 0.703125 2.21875q0.640625 0.71875 1.6875 0.71875q0.609375 0 1.0625 -0.171875q0.46875 -0.1875 1.0 -0.578125l0.40625 0.53125q-0.578125 0.46875 -1.1875 0.70310974q-0.59375 0.234375 -1.328125 0.234375q-1.515625 0 -2.390625 -1.0312347q-0.859375 -1.046875 -0.859375 -2.890625q0 -1.21875 0.375 -2.125q0.375 -0.921875 1.0625 -1.421875q0.703125 -0.515625 1.625 -0.515625q1.46875 0 2.21875 1.0q0.765625 0.984375 0.765625 2.703125zm-0.828125 -0.25q0 -1.296875 -0.546875 -2.015625q-0.53125 -0.734375 -1.578125 -0.734375q-0.953125 0 -1.546875 0.734375q-0.578125 0.734375 -0.640625 2.234375l4.3125 0l0 -0.21875zm5.871399 -3.453125q0.671875 0 1.171875 0.1875q0.515625 0.1875 1.0 0.59375l-0.421875 0.546875q-0.375 -0.296875 -0.78125 -0.4375q-0.40625 -0.15625 -0.921875 -0.15625q-1.078125 0 -1.734375 0.84375q-0.640625 0.84375 -0.640625 2.453125q0 1.59375 0.640625 2.40625q0.640625 0.796875 1.71875 0.796875q0.515625 0 0.9375 -0.15625q0.421875 -0.15625 0.84375 -0.484375l0.40625 0.578125q-0.96875 0.81248474 -2.203125 0.81248474q-0.984375 0 -1.71875 -0.46873474q-0.71875 -0.46875 -1.125 -1.34375q-0.40625 -0.890625 -0.40625 -2.125q0 -1.21875 0.40625 -2.125q0.40625 -0.921875 1.125 -1.421875q0.734375 -0.5 1.703125 -0.5zm7.7487793 7.5q-0.734375 0.48435974 -1.625 0.48435974q-0.875 0 -1.375 -0.51560974q-0.5 -0.515625 -0.5 -1.5l0 -5.109375l-1.28125 0l0 -0.703125l1.28125 0l0 -1.828125l0.859375 -0.09375l0 1.921875l1.96875 0l-0.09375 0.703125l-1.875 0l0 5.0625q0 0.671875 0.265625 1.0q0.28125 0.328125 0.859375 0.328125q0.59375 0 1.171875 -0.328125l0.34375 0.578125zm2.3571777 -7.34375l0 7.6718597l-0.859375 0l0 -7.6718597l0.859375 0zm-0.4375 -3.359375q0.28125 0 0.453125 0.171875q0.1875 0.171875 0.1875 0.4375q0 0.265625 -0.1875 0.4375q-0.171875 0.171875 -0.453125 0.171875q-0.28125 0 -0.46875 -0.171875q-0.171875 -0.171875 -0.171875 -0.4375q0 -0.265625 0.171875 -0.4375q0.1875 -0.171875 0.46875 -0.171875zm6.1759644 3.203125q1.53125 0 2.390625 1.046875q0.859375 1.046875 0.859375 2.921875q0 1.859375 -0.875 2.9375q-0.875 1.0781097 -2.390625 1.0781097q-1.515625 0 -2.375 -1.0624847q-0.859375 -1.0625 -0.859375 -2.921875q0 -1.21875 0.390625 -2.125q0.40625 -0.90625 1.125 -1.390625q0.734375 -0.484375 1.734375 -0.484375zm0 0.71875q-1.109375 0 -1.734375 0.84375q-0.609375 0.828125 -0.609375 2.4375q0 1.59375 0.609375 2.4375q0.609375 0.828125 1.71875 0.828125q1.125 0 1.734375 -0.828125q0.625 -0.84375 0.625 -2.46875q0 -1.59375 -0.609375 -2.421875q-0.609375 -0.828125 -1.734375 -0.828125zm9.118713 -0.71875q1.046875 0 1.59375 0.625q0.546875 0.609375 0.546875 1.71875l0 5.4843597l-0.84375 0l0 -5.3593597q0 -0.921875 -0.375 -1.34375q-0.359375 -0.4375 -1.078125 -0.4375q-0.734375 0 -1.296875 0.40625q-0.5625 0.40625 -1.078125 1.171875l0 5.5624847l-0.859375 0l0 -7.6718597l0.734375 0l0.09375 1.3125q0.46875 -0.6875 1.109375 -1.078125q0.65625 -0.390625 1.453125 -0.390625z" fill-rule="nonzero"/><path fill="#000000" d="m641.82056 274.08264l-0.859375 0l-0.453125 -4.8125q-0.28125 -2.796875 -0.375 -4.359375l-2.53125 7.984375l-0.828125 0l-2.609375 -7.984375q-0.078125 1.421875 -0.296875 3.765625l-0.046875 0.5625l-0.4375 4.84375l-0.828125 0l0.953125 -10.046875l1.21875 0l2.484375 7.8125l2.40625 -7.8125l1.234375 0l0.96875 10.046875zm7.3165894 -1.703125q0 0.609375 0.15625 0.875q0.15625 0.25 0.5 0.390625l-0.203125 0.59375q-0.515625 -0.09375 -0.8125 -0.390625q-0.28125 -0.296875 -0.375 -0.890625q-0.78125 1.28125 -2.390625 1.28125q-1.09375 0 -1.734375 -0.609375q-0.625 -0.625 -0.625 -1.671875q0 -1.1875 0.828125 -1.828125q0.84375 -0.65625 2.34375 -0.65625l1.46875 0l0 -0.734375q0 -0.921875 -0.421875 -1.34375q-0.40625 -0.421875 -1.359375 -0.421875q-0.875 0 -2.078125 0.4375l-0.21875 -0.640625q1.296875 -0.515625 2.421875 -0.515625q2.5 0 2.5 2.4375l0 3.6875zm-2.96875 1.171875q1.375 0 2.125 -1.34375l0 -2.109375l-1.328125 0q-1.1875 0 -1.796875 0.453125q-0.609375 0.453125 -0.609375 1.359375q0 0.796875 0.421875 1.21875q0.421875 0.421875 1.1875 0.421875zm9.449524 -7.296875q1.046875 0 1.59375 0.625q0.546875 0.609375 0.546875 1.71875l0 5.484375l-0.84375 0l0 -5.359375q0 -0.921875 -0.375 -1.34375q-0.359375 -0.4375 -1.078125 -0.4375q-0.734375 0 -1.296875 0.40625q-0.5625 0.40625 -1.078125 1.171875l0 5.5625l-0.859375 0l0 -7.671875l0.734375 0l0.09375 1.3125q0.46875 -0.6875 1.109375 -1.078125q0.65625 -0.390625 1.453125 -0.390625zm9.934265 6.125q0 0.609375 0.15625 0.875q0.15625 0.25 0.5 0.390625l-0.203125 0.59375q-0.515625 -0.09375 -0.8125 -0.390625q-0.28125 -0.296875 -0.375 -0.890625q-0.78125 1.28125 -2.390625 1.28125q-1.09375 0 -1.734375 -0.609375q-0.625 -0.625 -0.625 -1.671875q0 -1.1875 0.828125 -1.828125q0.84375 -0.65625 2.34375 -0.65625l1.46875 0l0 -0.734375q0 -0.921875 -0.421875 -1.34375q-0.40625 -0.421875 -1.359375 -0.421875q-0.875 0 -2.078125 0.4375l-0.21875 -0.640625q1.296875 -0.515625 2.421875 -0.515625q2.5 0 2.5 2.4375l0 3.6875zm-2.96875 1.171875q1.375 0 2.125 -1.34375l0 -2.109375l-1.328125 0q-1.1875 0 -1.796875 0.453125q-0.609375 0.453125 -0.609375 1.359375q0 0.796875 0.421875 1.21875q0.421875 0.421875 1.1875 0.421875zm11.615356 -6.96875q-0.703125 0.1875 -2.125 0.21875q1.3125 0.609375 1.3125 2.078125q0 1.125 -0.75 1.828125q-0.75 0.6875 -2.015625 0.6875q-0.578125 0 -1.0 -0.140625q-0.28125 0.15625 -0.4375 0.390625q-0.15625 0.21875 -0.15625 0.484375q0 0.796875 1.21875 0.796875l1.25 0q1.125 0 1.78125 0.546875q0.671875 0.546875 0.671875 1.421875q0 1.046875 -0.84375 1.609375q-0.828125 0.578125 -2.484375 0.578125q-1.703125 0 -2.453125 -0.515625q-0.734375 -0.515625 -0.734375 -1.671875l0.796875 0q0.015625 0.546875 0.234375 0.875q0.21875 0.328125 0.71875 0.46875q0.515625 0.140625 1.4375 0.140625q1.296875 0 1.875 -0.375q0.59375 -0.375 0.59375 -1.078125q0 -0.609375 -0.453125 -0.9375q-0.453125 -0.328125 -1.28125 -0.328125l-1.234375 0q-0.921875 0 -1.40625 -0.375q-0.484375 -0.390625 -0.484375 -0.96875q0 -0.390625 0.21875 -0.71875q0.21875 -0.34375 0.609375 -0.59375q-0.65625 -0.34375 -0.96875 -0.859375q-0.3125 -0.53125 -0.3125 -1.296875q0 -1.15625 0.765625 -1.875q0.78125 -0.71875 2.046875 -0.71875q1.390625 0.015625 2.015625 -0.09375q0.640625 -0.125 1.328125 -0.40625l0.265625 0.828125zm-3.609375 0.328125q-0.953125 0 -1.453125 0.53125q-0.484375 0.53125 -0.484375 1.40625q0 0.90625 0.515625 1.421875q0.515625 0.515625 1.421875 0.515625q0.9375 0 1.421875 -0.5q0.5 -0.515625 0.5 -1.421875q0 -0.921875 -0.484375 -1.4375q-0.484375 -0.515625 -1.4375 -0.515625zm10.5252075 3.046875q0 0.328125 -0.015625 0.625l-5.125 0q0.078125 1.484375 0.703125 2.21875q0.640625 0.71875 1.6875 0.71875q0.609375 0 1.0625 -0.171875q0.46875 -0.1875 1.0 -0.578125l0.40625 0.53125q-0.578125 0.46875 -1.1875 0.703125q-0.59375 0.234375 -1.328125 0.234375q-1.515625 0 -2.390625 -1.03125q-0.859375 -1.046875 -0.859375 -2.890625q0 -1.21875 0.375 -2.125q0.375 -0.921875 1.0625 -1.421875q0.703125 -0.515625 1.625 -0.515625q1.46875 0 2.21875 1.0q0.765625 0.984375 0.765625 2.703125zm-0.828125 -0.25q0 -1.296875 -0.546875 -2.015625q-0.53125 -0.734375 -1.578125 -0.734375q-0.953125 0 -1.546875 0.734375q-0.578125 0.734375 -0.640625 2.234375l4.3125 0l0 -0.21875zm6.230774 -3.453125q0.453125 0 0.765625 0.09375l-0.171875 0.796875q-0.3125 -0.078125 -0.671875 -0.078125q-0.78125 0 -1.265625 0.5625q-0.46875 0.5625 -0.78125 1.765625l0 4.6875l-0.859375 0l0 -7.671875l0.734375 0l0.078125 1.71875q0.3125 -0.953125 0.84375 -1.40625q0.53125 -0.46875 1.328125 -0.46875z" fill-rule="nonzero"/><path fill="#1a85d3" d="m609.96063 290.29266l0 0c0 2.8070679 22.174255 5.082672 49.527527 5.082672c27.353333 0 49.527588 -2.2756042 49.527588 -5.082672l0 30.496063c0 2.8070679 -22.174255 5.082672 -49.527588 5.082672c-27.353271 0 -49.527527 -2.2756042 -49.527527 -5.082672z" fill-rule="evenodd"/><path fill="#75b5e4" d="m609.96063 290.29266l0 0c0 -2.8070984 22.174255 -5.0827026 49.527527 -5.0827026c27.353333 0 49.527588 2.2756042 49.527588 5.0827026l0 0c0 2.8070679 -22.174255 5.082672 -49.527588 5.082672c-27.353271 0 -49.527527 -2.2756042 -49.527527 -5.082672z" fill-rule="evenodd"/><path fill="#000000" fill-opacity="0.0" d="m709.01575 290.29266l0 0c0 2.8070679 -22.174255 5.082672 -49.527588 5.082672c-27.353271 0 -49.527527 -2.2756042 -49.527527 -5.082672l0 0c0 -2.8070984 22.174255 -5.0827026 49.527527 -5.0827026c27.353333 0 49.527588 2.2756042 49.527588 5.0827026l0 30.496063c0 2.8070679 -22.174255 5.082672 -49.527588 5.082672c-27.353271 0 -49.527527 -2.2756042 -49.527527 -5.082672l0 -30.496063" fill-rule="evenodd"/><path fill="#ffffff" d="m653.1619 304.52515l-2.375 7.296875l-0.703125 0l-2.390625 -7.296875l0.6875 0l2.0625 6.640625l2.0625 -6.640625l0.65625 0zm4.3448486 6.0625q0 0.4375 0.109375 0.625q0.109375 0.1875 0.359375 0.296875l-0.140625 0.4375q-0.375 -0.078125 -0.59375 -0.296875q-0.203125 -0.21875 -0.265625 -0.65625q-0.578125 0.953125 -1.734375 0.953125q-0.796875 0 -1.265625 -0.453125q-0.46875 -0.453125 -0.46875 -1.21875q0 -0.859375 0.609375 -1.328125q0.625 -0.46875 1.703125 -0.46875l1.0625 0l0 -0.546875q0 -0.671875 -0.296875 -0.96875q-0.296875 -0.3125 -0.984375 -0.3125q-0.640625 0 -1.515625 0.328125l-0.15625 -0.46875q0.9375 -0.375 1.75 -0.375q1.828125 0 1.828125 1.765625l0 2.6875zm-2.171875 0.84375q1.015625 0 1.546875 -0.96875l0 -1.546875l-0.96875 0q-0.84375 0 -1.296875 0.34375q-0.453125 0.328125 -0.453125 0.984375q0 0.578125 0.3125 0.890625q0.3125 0.296875 0.859375 0.296875zm8.336792 0.390625l-0.546875 0l-0.03125 -0.984375q-0.65625 1.109375 -1.8125 1.109375q-0.765625 0 -1.171875 -0.4375q-0.40625 -0.453125 -0.40625 -1.28125l0 -3.984375l0.609375 0l0 3.921875q0 0.65625 0.265625 0.96875q0.28125 0.296875 0.84375 0.296875q0.96875 0 1.625 -1.140625l0 -4.046875l0.625 0l0 5.578125zm3.185669 0.125q-0.46875 0 -0.734375 -0.265625q-0.25 -0.28125 -0.25 -0.796875l0 -6.90625l0.609375 -0.078125l0 6.96875q0 0.53125 0.453125 0.53125q0.21875 0 0.390625 -0.0625l0.171875 0.453125q-0.3125 0.15625 -0.640625 0.15625zm4.635742 -0.359375q-0.53125 0.359375 -1.171875 0.359375q-0.640625 0 -1.015625 -0.375q-0.359375 -0.390625 -0.359375 -1.109375l0 -3.71875l-0.9375 0l0 -0.5l0.9375 0l0 -1.328125l0.625 -0.078125l0 1.40625l1.4375 0l-0.078125 0.5l-1.359375 0l0 3.6875q0 0.5 0.203125 0.734375q0.203125 0.234375 0.609375 0.234375q0.4375 0 0.859375 -0.234375l0.25 0.421875z" fill-rule="nonzero"/><path fill="#1a85d3" d="m622.1221 333.2673l74.74188 0l0 0c9.791443 0 17.728882 7.579132 17.728882 16.928497c0 9.349365 -7.937439 16.928497 -17.728882 16.928497l-74.74188 0l0 0c-9.791382 0 -17.728882 -7.579132 -17.728882 -16.928497c0 -9.349365 7.9375 -16.928497 17.728882 -16.928497z" fill-rule="evenodd"/><path fill="#ffffff" d="m625.0419 340.13892l0 7.296875l-0.640625 0l0 -7.296875l0.640625 0zm3.8125 0l-3.015625 3.359375l3.203125 3.9375l-0.78125 0l-3.1875 -3.90625l3.046875 -3.390625l0.734375 0zm5.138489 4.296875q0 0.234375 -0.015625 0.453125l-3.71875 0q0.046875 1.09375 0.515625 1.625q0.46875 0.515625 1.21875 0.515625q0.4375 0 0.765625 -0.125q0.34375 -0.140625 0.734375 -0.421875l0.296875 0.390625q-0.421875 0.34375 -0.859375 0.515625q-0.4375 0.171875 -0.96875 0.171875q-1.109375 0 -1.734375 -0.75q-0.625 -0.765625 -0.625 -2.109375q0 -0.890625 0.265625 -1.546875q0.265625 -0.671875 0.765625 -1.03125q0.515625 -0.375 1.1875 -0.375q1.0625 0 1.609375 0.71875q0.5625 0.71875 0.5625 1.96875zm-0.609375 -0.1875q0 -0.9375 -0.390625 -1.453125q-0.375 -0.53125 -1.140625 -0.53125q-0.703125 0 -1.125 0.53125q-0.421875 0.53125 -0.46875 1.609375l3.125 0l0 -0.15625zm4.1279907 3.203125q-0.21875 0.65625 -0.484375 1.0625q-0.265625 0.421875 -0.703125 0.6875q-0.421875 0.28125 -1.09375 0.40625l-0.0625 -0.484375q0.5625 -0.125 0.875 -0.328125q0.3125 -0.203125 0.5 -0.515625q0.1875 -0.296875 0.375 -0.84375l-0.21875 0l-1.9375 -5.578125l0.671875 0l1.6875 5.125l1.65625 -5.125l0.640625 0l-1.90625 5.59375zm5.8153076 -8.578125l0.53125 0.140625l-2.46875 9.484375l-0.53125 -0.140625l2.46875 -9.484375zm8.43634 1.140625q0.609375 0 1.03125 0.171875q0.421875 0.15625 0.84375 0.5l-0.34375 0.4375q-0.375 -0.3125 -0.71875 -0.4375q-0.328125 -0.125 -0.765625 -0.125q-1.03125 0 -1.6875 0.796875q-0.640625 0.78125 -0.640625 2.421875q0 1.0625 0.296875 1.796875q0.296875 0.71875 0.8125 1.0625q0.515625 0.34375 1.1875 0.34375q0.515625 0 0.875 -0.140625q0.359375 -0.15625 0.734375 -0.46875l0.328125 0.421875q-0.796875 0.765625 -1.96875 0.765625q-0.84375 0 -1.515625 -0.4375q-0.671875 -0.4375 -1.046875 -1.28125q-0.375 -0.859375 -0.375 -2.0625q0 -1.203125 0.390625 -2.046875q0.390625 -0.84375 1.0625 -1.28125q0.671875 -0.4375 1.5 -0.4375zm7.069519 4.421875q0 0.234375 -0.015625 0.453125l-3.71875 0q0.046875 1.09375 0.515625 1.625q0.46875 0.515625 1.21875 0.515625q0.4375 0 0.765625 -0.125q0.34375 -0.140625 0.734375 -0.421875l0.296875 0.390625q-0.421875 0.34375 -0.859375 0.515625q-0.4375 0.171875 -0.96875 0.171875q-1.109375 0 -1.734375 -0.75q-0.625 -0.765625 -0.625 -2.109375q0 -0.890625 0.265625 -1.546875q0.265625 -0.671875 0.765625 -1.03125q0.515625 -0.375 1.1875 -0.375q1.0625 0 1.609375 0.71875q0.5625 0.71875 0.5625 1.96875zm-0.609375 -0.1875q0 -0.9375 -0.390625 -1.453125q-0.375 -0.53125 -1.140625 -0.53125q-0.703125 0 -1.125 0.53125q-0.421875 0.53125 -0.46875 1.609375l3.125 0l0 -0.15625zm4.539917 -2.5q0.328125 0 0.546875 0.0625l-0.109375 0.578125q-0.234375 -0.0625 -0.5 -0.0625q-0.5625 0 -0.90625 0.421875q-0.34375 0.40625 -0.578125 1.28125l0 3.40625l-0.625 0l0 -5.578125l0.53125 0l0.0625 1.25q0.21875 -0.6875 0.609375 -1.015625q0.390625 -0.34375 0.96875 -0.34375zm4.3498535 5.453125q-0.53125 0.359375 -1.171875 0.359375q-0.640625 0 -1.015625 -0.375q-0.359375 -0.390625 -0.359375 -1.109375l0 -3.71875l-0.9375 0l0 -0.5l0.9375 0l0 -1.328125l0.625 -0.078125l0 1.40625l1.4375 0l-0.078125 0.5l-1.359375 0l0 3.6875q0 0.5 0.203125 0.734375q0.203125 0.234375 0.609375 0.234375q0.4375 0 0.859375 -0.234375l0.25 0.421875zm1.7119141 -5.34375l0 5.578125l-0.625 0l0 -5.578125l0.625 0zm-0.3125 -2.453125q0.203125 0 0.328125 0.140625q0.140625 0.125 0.140625 0.3125q0 0.1875 -0.140625 0.328125q-0.125 0.125 -0.328125 0.125q-0.203125 0 -0.34375 -0.125q-0.125 -0.140625 -0.125 -0.328125q0 -0.1875 0.125 -0.3125q0.140625 -0.140625 0.34375 -0.140625zm4.2053223 0.109375q0.84375 0 1.578125 0.40625l-0.234375 0.4375q-0.671875 -0.3125 -1.3125 -0.3125q-0.546875 0 -0.796875 0.21875q-0.234375 0.21875 -0.234375 0.71875l0 0.875l3.109375 0l0 5.578125l-0.625 0l0 -5.078125l-2.484375 0l0 5.078125l-0.625 0l0 -5.078125l-0.921875 0l0 -0.5l0.921875 0l0 -0.90625q0 -0.671875 0.421875 -1.046875q0.421875 -0.390625 1.203125 -0.390625zm6.2651978 2.234375q0.484375 0 0.859375 0.140625q0.375 0.125 0.71875 0.421875l-0.296875 0.40625q-0.28125 -0.21875 -0.578125 -0.328125q-0.296875 -0.109375 -0.671875 -0.109375q-0.78125 0 -1.25 0.609375q-0.46875 0.609375 -0.46875 1.78125q0 1.171875 0.453125 1.765625q0.46875 0.578125 1.265625 0.578125q0.375 0 0.671875 -0.109375q0.296875 -0.125 0.609375 -0.359375l0.296875 0.40625q-0.703125 0.609375 -1.59375 0.609375q-0.71875 0 -1.25 -0.34375q-0.53125 -0.34375 -0.828125 -0.984375q-0.28125 -0.65625 -0.28125 -1.546875q0 -0.890625 0.28125 -1.546875q0.296875 -0.671875 0.828125 -1.03125q0.53125 -0.359375 1.234375 -0.359375zm6.4536133 4.453125q0 0.4375 0.109375 0.625q0.109375 0.1875 0.359375 0.296875l-0.140625 0.4375q-0.375 -0.078125 -0.59375 -0.296875q-0.203125 -0.21875 -0.265625 -0.65625q-0.578125 0.953125 -1.734375 0.953125q-0.796875 0 -1.265625 -0.453125q-0.46875 -0.453125 -0.46875 -1.21875q0 -0.859375 0.609375 -1.328125q0.625 -0.46875 1.703125 -0.46875l1.0625 0l0 -0.546875q0 -0.671875 -0.296875 -0.96875q-0.296875 -0.3125 -0.984375 -0.3125q-0.640625 0 -1.515625 0.328125l-0.15625 -0.46875q0.9375 -0.375 1.75 -0.375q1.828125 0 1.828125 1.765625l0 2.6875zm-2.171875 0.84375q1.015625 0 1.546875 -0.96875l0 -1.546875l-0.96875 0q-0.84375 0 -1.296875 0.34375q-0.453125 0.328125 -0.453125 0.984375q0 0.578125 0.3125 0.890625q0.3125 0.296875 0.859375 0.296875zm6.961853 0.15625q-0.53125 0.359375 -1.171875 0.359375q-0.640625 0 -1.015625 -0.375q-0.359375 -0.390625 -0.359375 -1.109375l0 -3.71875l-0.9375 0l0 -0.5l0.9375 0l0 -1.328125l0.625 -0.078125l0 1.40625l1.4375 0l-0.078125 0.5l-1.359375 0l0 3.6875q0 0.5 0.203125 0.734375q0.203125 0.234375 0.609375 0.234375q0.4375 0 0.859375 -0.234375l0.25 0.421875zm4.9120483 -2.765625q0 0.234375 -0.015625 0.453125l-3.71875 0q0.046875 1.09375 0.515625 1.625q0.46875 0.515625 1.21875 0.515625q0.4375 0 0.765625 -0.125q0.34375 -0.140625 0.734375 -0.421875l0.296875 0.390625q-0.421875 0.34375 -0.859375 0.515625q-0.4375 0.171875 -0.96875 0.171875q-1.109375 0 -1.734375 -0.75q-0.625 -0.765625 -0.625 -2.109375q0 -0.890625 0.265625 -1.546875q0.265625 -0.671875 0.765625 -1.03125q0.515625 -0.375 1.1875 -0.375q1.0625 0 1.609375 0.71875q0.5625 0.71875 0.5625 1.96875zm-0.609375 -0.1875q0 -0.9375 -0.390625 -1.453125q-0.375 -0.53125 -1.140625 -0.53125q-0.703125 0 -1.125 0.53125q-0.421875 0.53125 -0.46875 1.609375l3.125 0l0 -0.15625z" fill-rule="nonzero"/><path fill="#ffffff" d="m639.6874 353.01392q0.625 0 1.078125 0.1875q0.453125 0.171875 0.921875 0.546875l-0.375 0.40625q-0.40625 -0.3125 -0.78125 -0.453125q-0.359375 -0.140625 -0.84375 -0.140625q-0.625 0 -1.171875 0.328125q-0.53125 0.328125 -0.875 1.046875q-0.328125 0.71875 -0.328125 1.828125q0 1.625 0.609375 2.4375q0.625 0.8125 1.734375 0.8125q0.859375 0 1.53125 -0.390625l0 -2.59375l-1.421875 0l-0.078125 -0.53125l2.125 0l0 3.453125q-1.03125 0.609375 -2.15625 0.609375q-1.390625 0 -2.203125 -0.96875q-0.8125 -0.984375 -0.8125 -2.828125q0 -1.203125 0.421875 -2.046875q0.421875 -0.859375 1.109375 -1.28125q0.703125 -0.421875 1.515625 -0.421875zm7.9137573 4.421875q0 0.234375 -0.015625 0.453125l-3.71875 0q0.046875 1.09375 0.515625 1.625q0.46875 0.515625 1.21875 0.515625q0.4375 0 0.765625 -0.125q0.34375 -0.140625 0.734375 -0.421875l0.296875 0.390625q-0.421875 0.34375 -0.859375 0.515625q-0.4375 0.171875 -0.96875 0.171875q-1.109375 0 -1.734375 -0.75q-0.625 -0.765625 -0.625 -2.109375q0 -0.890625 0.265625 -1.546875q0.265625 -0.671875 0.765625 -1.03125q0.515625 -0.375 1.1875 -0.375q1.0625 0 1.609375 0.71875q0.5625 0.71875 0.5625 1.96875zm-0.609375 -0.1875q0 -0.9375 -0.390625 -1.453125q-0.375 -0.53125 -1.140625 -0.53125q-0.703125 0 -1.125 0.53125q-0.421875 0.53125 -0.46875 1.609375l3.125 0l0 -0.15625zm4.836792 -2.5q0.75 0 1.140625 0.453125q0.40625 0.4375 0.40625 1.25l0 3.984375l-0.609375 0l0 -3.90625q0 -0.671875 -0.265625 -0.96875q-0.265625 -0.3125 -0.796875 -0.3125q-0.53125 0 -0.9375 0.296875q-0.40625 0.28125 -0.78125 0.859375l0 4.03125l-0.625 0l0 -5.578125l0.53125 0l0.0625 0.953125q0.34375 -0.5 0.8125 -0.78125q0.46875 -0.28125 1.0625 -0.28125zm7.7077026 2.6875q0 0.234375 -0.015625 0.453125l-3.71875 0q0.046875 1.09375 0.515625 1.625q0.46875 0.515625 1.21875 0.515625q0.4375 0 0.765625 -0.125q0.34375 -0.140625 0.734375 -0.421875l0.296875 0.390625q-0.421875 0.34375 -0.859375 0.515625q-0.4375 0.171875 -0.96875 0.171875q-1.109375 0 -1.734375 -0.75q-0.625 -0.765625 -0.625 -2.109375q0 -0.890625 0.265625 -1.546875q0.265625 -0.671875 0.765625 -1.03125q0.515625 -0.375 1.1875 -0.375q1.0625 0 1.609375 0.71875q0.5625 0.71875 0.5625 1.96875zm-0.609375 -0.1875q0 -0.9375 -0.390625 -1.453125q-0.375 -0.53125 -1.140625 -0.53125q-0.703125 0 -1.125 0.53125q-0.421875 0.53125 -0.46875 1.609375l3.125 0l0 -0.15625zm4.539917 -2.5q0.328125 0 0.546875 0.0625l-0.109375 0.578125q-0.234375 -0.0625 -0.5 -0.0625q-0.5625 0 -0.90625 0.421875q-0.34375 0.40625 -0.578125 1.28125l0 3.40625l-0.625 0l0 -5.578125l0.53125 0l0.0625 1.25q0.21875 -0.6875 0.609375 -1.015625q0.390625 -0.34375 0.96875 -0.34375zm4.8983765 4.453125q0 0.4375 0.109375 0.625q0.109375 0.1875 0.359375 0.296875l-0.140625 0.4375q-0.375 -0.078125 -0.59375 -0.296875q-0.203125 -0.21875 -0.265625 -0.65625q-0.578125 0.953125 -1.734375 0.953125q-0.796875 0 -1.265625 -0.453125q-0.46875 -0.453125 -0.46875 -1.21875q0 -0.859375 0.609375 -1.328125q0.625 -0.46875 1.703125 -0.46875l1.0625 0l0 -0.546875q0 -0.671875 -0.296875 -0.96875q-0.296875 -0.3125 -0.984375 -0.3125q-0.640625 0 -1.515625 0.328125l-0.15625 -0.46875q0.9375 -0.375 1.75 -0.375q1.828125 0 1.828125 1.765625l0 2.6875zm-2.171875 0.84375q1.015625 0 1.546875 -0.96875l0 -1.546875l-0.96875 0q-0.84375 0 -1.296875 0.34375q-0.453125 0.328125 -0.453125 0.984375q0 0.578125 0.3125 0.890625q0.3125 0.296875 0.859375 0.296875zm6.961792 0.15625q-0.53125 0.359375 -1.171875 0.359375q-0.640625 0 -1.015625 -0.375q-0.359375 -0.390625 -0.359375 -1.109375l0 -3.71875l-0.9375 0l0 -0.5l0.9375 0l0 -1.328125l0.625 -0.078125l0 1.40625l1.4375 0l-0.078125 0.5l-1.359375 0l0 3.6875q0 0.5 0.203125 0.734375q0.203125 0.234375 0.609375 0.234375q0.4375 0 0.859375 -0.234375l0.25 0.421875zm2.8808594 -5.453125q1.109375 0 1.734375 0.765625q0.625 0.75 0.625 2.125q0 1.34375 -0.640625 2.140625q-0.625 0.78125 -1.734375 0.78125q-1.109375 0 -1.734375 -0.765625q-0.609375 -0.78125 -0.609375 -2.140625q0 -0.890625 0.28125 -1.546875q0.28125 -0.65625 0.8125 -1.0q0.546875 -0.359375 1.265625 -0.359375zm0 0.515625q-0.8125 0 -1.265625 0.609375q-0.4375 0.609375 -0.4375 1.78125q0 1.15625 0.4375 1.765625q0.453125 0.609375 1.25 0.609375q0.8125 0 1.265625 -0.609375q0.453125 -0.609375 0.453125 -1.78125q0 -1.171875 -0.4375 -1.765625q-0.4375 -0.609375 -1.265625 -0.609375zm6.334778 -0.515625q0.328125 0 0.546875 0.0625l-0.109375 0.578125q-0.234375 -0.0625 -0.5 -0.0625q-0.5625 0 -0.90625 0.421875q-0.34375 0.40625 -0.578125 1.28125l0 3.40625l-0.625 0l0 -5.578125l0.53125 0l0.0625 1.25q0.21875 -0.6875 0.609375 -1.015625q0.390625 -0.34375 0.96875 -0.34375z" fill-rule="nonzero"/><path fill="#4fc7e7" d="m596.0864 172.5327l26.338623 -52.677147l74.28345 0l26.338562 52.677147l-26.338562 52.67714l-74.28345 0z" fill-rule="evenodd"/><path fill="#000000" d="m634.0358 179.4527l-1.078125 0l-0.578125 -6.125q-0.359375 -3.5625 -0.484375 -5.546875l-3.21875 10.15625l-1.0625 0l-3.3125 -10.15625q-0.09375 1.796875 -0.375 4.78125l-0.0625 0.734375l-0.5625 6.15625l-1.0625 0l1.21875 -12.78125l1.546875 0l3.171875 9.953125l3.0625 -9.953125l1.5625 0l1.234375 12.78125zm6.6153564 -9.96875q1.953125 0 3.03125 1.34375q1.09375 1.328125 1.09375 3.71875q0 2.375 -1.109375 3.75q-1.109375 1.359375 -3.03125 1.359375q-1.9375 0 -3.03125 -1.34375q-1.09375 -1.359375 -1.09375 -3.734375q0 -1.546875 0.5 -2.703125q0.515625 -1.15625 1.4375 -1.765625q0.9375 -0.625 2.203125 -0.625zm0 0.921875q-1.40625 0 -2.203125 1.0625q-0.78125 1.0625 -0.78125 3.109375q0 2.046875 0.78125 3.109375q0.78125 1.0625 2.1875 1.0625q1.421875 0 2.21875 -1.0625q0.796875 -1.0625 0.796875 -3.140625q0 -2.03125 -0.78125 -3.078125q-0.78125 -1.0625 -2.21875 -1.0625zm8.387085 8.6875q0 1.28125 -0.28125 2.03125q-0.28125 0.75 -0.828125 1.203125q-0.53125 0.46875 -1.53125 0.90625l-0.3125 -0.78125q0.71875 -0.34375 1.09375 -0.703125q0.375 -0.34375 0.578125 -0.953125q0.203125 -0.59375 0.203125 -1.65625l0 -9.4375l1.078125 0l0 9.390625zm-0.5625 -13.6875q0.375 0 0.59375 0.234375q0.21875 0.21875 0.21875 0.546875q0 0.34375 -0.21875 0.5625q-0.21875 0.21875 -0.59375 0.21875q-0.359375 0 -0.59375 -0.21875q-0.21875 -0.21875 -0.21875 -0.5625q0 -0.328125 0.21875 -0.546875q0.234375 -0.234375 0.59375 -0.234375zm10.584045 11.875q0 0.765625 0.1875 1.109375q0.203125 0.328125 0.625 0.5l-0.234375 0.765625q-0.671875 -0.125 -1.046875 -0.5q-0.359375 -0.375 -0.46875 -1.140625q-1.015625 1.640625 -3.046875 1.640625q-1.390625 0 -2.203125 -0.78125q-0.8125 -0.796875 -0.8125 -2.125q0 -1.515625 1.0625 -2.328125q1.078125 -0.828125 2.984375 -0.828125l1.859375 0l0 -0.953125q0 -1.171875 -0.53125 -1.703125q-0.515625 -0.53125 -1.71875 -0.53125q-1.125 0 -2.65625 0.5625l-0.28125 -0.828125q1.65625 -0.65625 3.078125 -0.65625q3.203125 0 3.203125 3.109375l0 4.6875zm-3.796875 1.5q1.75 0 2.703125 -1.71875l0 -2.6875l-1.6875 0q-1.5 0 -2.28125 0.578125q-0.78125 0.578125 -0.78125 1.734375q0 1.015625 0.53125 1.5625q0.546875 0.53125 1.515625 0.53125zm9.15686 0.875q-0.796875 0 -1.25 -0.46875q-0.453125 -0.46875 -0.453125 -1.375l0 -12.09375l1.078125 -0.125l0 12.1875q0 0.9375 0.78125 0.9375q0.390625 0 0.671875 -0.125l0.296875 0.796875q-0.515625 0.265625 -1.125 0.265625zm6.939392 -10.171875q1.953125 0 3.03125 1.34375q1.09375 1.328125 1.09375 3.71875q0 2.375 -1.109375 3.75q-1.109375 1.359375 -3.03125 1.359375q-1.9375 0 -3.03125 -1.34375q-1.09375 -1.359375 -1.09375 -3.734375q0 -1.546875 0.5 -2.703125q0.515625 -1.15625 1.4375 -1.765625q0.9375 -0.625 2.203125 -0.625zm0 0.921875q-1.40625 0 -2.203125 1.0625q-0.78125 1.0625 -0.78125 3.109375q0 2.046875 0.78125 3.109375q0.78125 1.0625 2.1875 1.0625q1.421875 0 2.21875 -1.0625q0.796875 -1.0625 0.796875 -3.140625q0 -2.03125 -0.78125 -3.078125q-0.78125 -1.0625 -2.21875 -1.0625zm10.65271 -0.921875q1.953125 0 3.03125 1.34375q1.09375 1.328125 1.09375 3.71875q0 2.375 -1.109375 3.75q-1.109375 1.359375 -3.03125 1.359375q-1.9375 0 -3.03125 -1.34375q-1.09375 -1.359375 -1.09375 -3.734375q0 -1.546875 0.5 -2.703125q0.515625 -1.15625 1.4375 -1.765625q0.9375 -0.625 2.203125 -0.625zm0 0.921875q-1.40625 0 -2.203125 1.0625q-0.78125 1.0625 -0.78125 3.109375q0 2.046875 0.78125 3.109375q0.78125 1.0625 2.1875 1.0625q1.421875 0 2.21875 -1.0625q0.796875 -1.0625 0.796875 -3.140625q0 -2.03125 -0.78125 -3.078125q-0.78125 -1.0625 -2.21875 -1.0625zm11.324646 -0.921875q1.78125 0 2.65625 1.328125q0.890625 1.3125 0.890625 3.71875q0 2.34375 -0.96875 3.734375q-0.953125 1.390625 -2.734375 1.390625q-0.875 0 -1.59375 -0.359375q-0.703125 -0.359375 -1.1875 -0.984375l0 4.8125l-1.078125 0.15625l0 -13.578125l0.921875 0l0.09375 1.40625q0.546875 -0.765625 1.3125 -1.1875q0.78125 -0.4375 1.6875 -0.4375zm-0.359375 9.265625q1.34375 0 2.046875 -1.0625q0.703125 -1.0625 0.703125 -3.15625q0 -4.140625 -2.59375 -4.140625q-0.875 0 -1.515625 0.453125q-0.640625 0.4375 -1.21875 1.21875l0 5.1875q0.96875 1.5 2.578125 1.5z" fill-rule="nonzero"/><path fill="#9ca7c0" d="m554.66406 379.93176l0 -259.62207l22.929138 0l0 259.62207z" fill-rule="evenodd"/><path fill="#000000" d="m571.2086 282.51724l-2.734375 0.875l0 4.21875l2.734375 0.890625l0 0.890625l-10.046875 -3.359375l0 -1.09375l10.046875 -3.34375l0 0.921875zm-3.484375 4.859375l0 -3.75l-5.84375 1.859375l5.84375 1.890625zm-6.5625 -10.015198q0 -1.796875 0.75 -2.75q0.734375 -0.953125 2.265625 -0.953125q1.609375 0 2.375 1.0q0.75 1.0 0.75 2.75l0 1.4375l3.90625 0l0 0.875l-10.046875 0l0 -2.359375zm5.421875 0.046875q0 -1.375 -0.546875 -2.09375q-0.546875 -0.734375 -1.84375 -0.734375q-1.234375 0 -1.765625 0.71875q-0.546875 0.703125 -0.546875 2.078125l0 1.46875l4.703125 0l0 -1.4375zm-5.421875 -6.9165955l10.046875 0l0 0.875l-10.046875 0l0 -0.875zm-0.15625 -10.878418q0 -0.859375 0.25 -1.484375q0.234375 -0.625 0.75 -1.28125l0.5625 0.53125q-0.4375 0.546875 -0.625 1.0625q-0.1875 0.515625 -0.1875 1.171875q0 0.859375 0.453125 1.609375q0.453125 0.734375 1.453125 1.203125q0.984375 0.453125 2.484375 0.453125q2.25 0 3.359375 -0.84375q1.109375 -0.859375 1.109375 -2.375q0 -1.171875 -0.515625 -2.109375l-3.5625 0l0 1.953125l-0.734375 0.109375l0 -2.9375l4.75 0q0.8125 1.4375 0.8125 2.984375q0 1.921875 -1.328125 3.03125q-1.328125 1.109375 -3.890625 1.109375q-1.65625 0 -2.8125 -0.578125q-1.171875 -0.578125 -1.75 -1.53125q-0.578125 -0.96875 -0.578125 -2.078125zm8.5 -10.213867q0.609375 0 0.875 -0.15625q0.25 -0.15625 0.390625 -0.5l0.59375 0.203125q-0.09375 0.515625 -0.390625 0.8125q-0.296875 0.28125 -0.890625 0.375q1.28125 0.78125 1.28125 2.390625q0 1.09375 -0.609375 1.734375q-0.625 0.625 -1.671875 0.625q-1.1875 0 -1.828125 -0.828125q-0.65625 -0.84375 -0.65625 -2.34375l0 -1.46875l-0.734375 0q-0.921875 0 -1.34375 0.421875q-0.421875 0.40625 -0.421875 1.359375q0 0.875 0.4375 2.078125l-0.640625 0.21875q-0.515625 -1.296875 -0.515625 -2.421875q0 -2.5 2.4375 -2.5l3.6875 0zm1.171875 2.96875q0 -1.375 -1.34375 -2.125l-2.109375 0l0 1.328125q0 1.1875 0.453125 1.796875q0.453125 0.609375 1.359375 0.609375q0.796875 0 1.21875 -0.421875q0.421875 -0.421875 0.421875 -1.1875zm0.203125 -9.558899q0.484375 0.734375 0.484375 1.625q0 0.875 -0.515625 1.375q-0.515625 0.5 -1.5 0.5l-5.109375 0l0 1.28125l-0.703125 0l0 -1.28125l-1.828125 0l-0.09375 -0.859375l1.921875 0l0 -1.96875l0.703125 0.09375l0 1.875l5.0625 0q0.671875 0 1.0 -0.265625q0.328125 -0.28125 0.328125 -0.859375q0 -0.59375 -0.328125 -1.171875l0.578125 -0.34375zm-3.796875 -6.759308q0.328125 0 0.625 0.015625l0 5.125q1.484375 -0.078125 2.21875 -0.703125q0.71875 -0.640625 0.71875 -1.6875q0 -0.609375 -0.171875 -1.0625q-0.1875 -0.46875 -0.578125 -1.0l0.53125 -0.40625q0.46875 0.578125 0.703125 1.1875q0.234375 0.59375 0.234375 1.328125q0 1.515625 -1.03125 2.390625q-1.046875 0.859375 -2.890625 0.859375q-1.21875 0 -2.125 -0.375q-0.921875 -0.375 -1.421875 -1.0625q-0.515625 -0.703125 -0.515625 -1.625q0 -1.46875 1.0 -2.21875q0.984375 -0.765625 2.703125 -0.765625zm-0.25 0.828125q-1.296875 0 -2.015625 0.546875q-0.734375 0.53125 -0.734375 1.578125q0 0.953125 0.734375 1.546875q0.734375 0.578125 2.234375 0.640625l0 -4.3125l-0.21875 0zm-3.296875 -11.558899l7.671875 1.875l0 1.140625l-6.875 1.703125l6.875 1.71875l0 1.140625l-7.671875 1.921875l0 -0.890625l7.015625 -1.640625l-7.015625 -1.78125l0 -0.96875l7.03125 -1.765625l-7.03125 -1.625l0 -0.828125zm5.96875 -6.521881q0.609375 0 0.875 -0.15625q0.25 -0.15625 0.390625 -0.5l0.59375 0.203125q-0.09375 0.515625 -0.390625 0.8125q-0.296875 0.28125 -0.890625 0.375q1.28125 0.78125 1.28125 2.390625q0 1.09375 -0.609375 1.734375q-0.625 0.625 -1.671875 0.625q-1.1875 0 -1.828125 -0.828125q-0.65625 -0.84375 -0.65625 -2.34375l0 -1.46875l-0.734375 0q-0.921875 0 -1.34375 0.421875q-0.421875 0.40625 -0.421875 1.359375q0 0.875 0.4375 2.078125l-0.640625 0.21875q-0.515625 -1.296875 -0.515625 -2.421875q0 -2.5 2.4375 -2.5l3.6875 0zm1.171875 2.96875q0 -1.375 -1.34375 -2.125l-2.109375 0l0 1.328125q0 1.1875 0.453125 1.796875q0.453125 0.609375 1.359375 0.609375q0.796875 0 1.21875 -0.421875q0.421875 -0.421875 0.421875 -1.1875zm0.5625 -8.292023q0.890625 0.3125 1.453125 0.6875q0.578125 0.359375 0.953125 0.953125q0.375 0.578125 0.546875 1.5l-0.65625 0.078125q-0.1875 -0.75 -0.46875 -1.1875q-0.28125 -0.4375 -0.703125 -0.6875q-0.40625 -0.265625 -1.15625 -0.53125l0 0.296875l-7.671875 2.671875l0 -0.921875l7.046875 -2.3125l-7.046875 -2.28125l0 -0.890625l7.703125 2.625z" fill-rule="nonzero"/><path fill="#000000" fill-opacity="0.0" d="m404.87402 172.5328l191.1496 0" fill-rule="evenodd"/><path stroke="#000000" stroke-width="1.0" stroke-linejoin="round" stroke-linecap="butt" d="m408.3011 172.5328l184.29547 0" fill-rule="evenodd"/><path fill="#000000" stroke="#000000" stroke-width="1.0" stroke-linecap="butt" d="m408.30112 172.5328l1.1245728 -1.124588l-3.0897827 1.124588l3.0897827 1.124588z" fill-rule="evenodd"/><path fill="#000000" stroke="#000000" stroke-width="1.0" stroke-linecap="butt" d="m592.59656 172.5328l-1.1246338 1.124588l3.0897827 -1.124588l-3.0897827 -1.124588z" fill-rule="evenodd"/><path fill="#000000" fill-opacity="0.0" d="m554.66406 250.12073l-85.35434 0l0 40.850403" fill-rule="evenodd"/><path stroke="#000000" stroke-width="1.0" stroke-linejoin="round" stroke-linecap="butt" d="m551.23694 250.12073l-81.927216 0l0 37.42331" fill-rule="evenodd"/><path fill="#000000" stroke="#000000" stroke-width="1.0" stroke-linecap="butt" d="m551.23694 250.12073l-1.1245728 1.124588l3.0897827 -1.124588l-3.0897827 -1.1245728z" fill-rule="evenodd"/><path fill="#000000" stroke="#000000" stroke-width="1.0" stroke-linecap="butt" d="m469.30972 287.54404l-1.1246033 -1.1245728l1.1246033 3.0897522l1.1245728 -3.0897522z" fill-rule="evenodd"/><path fill="#000000" fill-opacity="0.0" d="m302.57217 172.5328l42.173218 0" fill-rule="evenodd"/><path stroke="#000000" stroke-width="1.0" stroke-linejoin="round" stroke-linecap="butt" d="m302.57217 172.5328l38.746155 0" fill-rule="evenodd"/><path fill="#000000" stroke="#000000" stroke-width="1.0" stroke-linecap="butt" d="m341.31833 172.5328l-1.1246033 1.124588l3.0897827 -1.124588l-3.0897827 -1.124588z" fill-rule="evenodd"/><path fill="#000000" fill-opacity="0.0" d="m250.38583 152.08136l77.35431 0l0 98.23622l-77.35431 0z" fill-rule="evenodd"/><path fill="#000000" d="m264.41708 164.95824q0.828125 0 1.40625 0.234375q0.578125 0.21875 1.171875 0.6875l-0.46875 0.59375q-0.515625 -0.421875 -0.984375 -0.59375q-0.46875 -0.171875 -1.078125 -0.171875q-1.40625 0 -2.296875 1.09375q-0.890625 1.078125 -0.890625 3.328125q0 1.46875 0.40625 2.46875q0.421875 1.0 1.125 1.484375q0.71875 0.46875 1.625 0.46875q0.71875 0 1.203125 -0.21875q0.5 -0.21875 1.015625 -0.625l0.453125 0.578125q-1.09375 1.03125 -2.703125 1.03125q-1.171875 0 -2.09375 -0.59375q-0.90625 -0.609375 -1.4375 -1.765625q-0.515625 -1.171875 -0.515625 -2.828125q0 -1.65625 0.53125 -2.8125q0.546875 -1.171875 1.46875 -1.765625q0.921875 -0.59375 2.0625 -0.59375zm6.923889 2.375q1.53125 0 2.390625 1.046875q0.859375 1.046875 0.859375 2.921875q0 1.859375 -0.875 2.9375q-0.875 1.078125 -2.390625 1.078125q-1.515625 0 -2.375 -1.0625q-0.859375 -1.0625 -0.859375 -2.921875q0 -1.21875 0.390625 -2.125q0.40625 -0.90625 1.125 -1.390625q0.734375 -0.484375 1.734375 -0.484375zm0 0.71875q-1.109375 0 -1.734375 0.84375q-0.609375 0.828125 -0.609375 2.4375q0 1.59375 0.609375 2.4375q0.609375 0.828125 1.71875 0.828125q1.125 0 1.734375 -0.828125q0.625 -0.84375 0.625 -2.46875q0 -1.59375 -0.609375 -2.421875q-0.609375 -0.828125 -1.734375 -0.828125zm8.712494 -0.71875q0.453125 0 0.765625 0.09375l-0.171875 0.796875q-0.3125 -0.078125 -0.671875 -0.078125q-0.78125 0 -1.265625 0.5625q-0.46875 0.5625 -0.78125 1.765625l0 4.6875l-0.859375 0l0 -7.671875l0.734375 0l0.078125 1.71875q0.3125 -0.953125 0.84375 -1.40625q0.53125 -0.46875 1.328125 -0.46875zm7.4799194 3.703125q0 0.328125 -0.015625 0.625l-5.125 0q0.078125 1.484375 0.703125 2.21875q0.640625 0.71875 1.6875 0.71875q0.609375 0 1.0625 -0.171875q0.46875 -0.1875 1.0 -0.578125l0.40625 0.53125q-0.578125 0.46875 -1.1875 0.703125q-0.59375 0.234375 -1.328125 0.234375q-1.515625 0 -2.390625 -1.03125q-0.859375 -1.046875 -0.859375 -2.890625q0 -1.21875 0.375 -2.125q0.375 -0.921875 1.0625 -1.421875q0.703125 -0.515625 1.625 -0.515625q1.46875 0 2.21875 1.0q0.765625 0.984375 0.765625 2.703125zm-0.828125 -0.25q0 -1.296875 -0.546875 -2.015625q-0.53125 -0.734375 -1.578125 -0.734375q-0.953125 0 -1.546875 0.734375q-0.578125 0.734375 -0.640625 2.234375l4.3125 0l0 -0.21875z" fill-rule="nonzero"/><path fill="#000000" d="m263.3702 183.11449q1.796875 0 2.75 0.75q0.953125 0.734375 0.953125 2.265625q0 1.609375 -1.0 2.375q-1.0 0.75 -2.75 0.75l-1.4375 0l0 3.90625l-0.875 0l0 -10.046875l2.359375 0zm-0.046875 5.421875q1.375 0 2.09375 -0.546875q0.734375 -0.546875 0.734375 -1.84375q0 -1.234375 -0.71875 -1.765625q-0.703125 -0.546875 -2.078125 -0.546875l-1.46875 0l0 4.703125l1.4375 0zm9.878418 2.921875q0 0.609375 0.15625 0.875q0.15625 0.25 0.5 0.390625l-0.203125 0.59375q-0.515625 -0.09375 -0.8125 -0.390625q-0.28125 -0.296875 -0.375 -0.890625q-0.78125 1.28125 -2.390625 1.28125q-1.09375 0 -1.734375 -0.609375q-0.625 -0.625 -0.625 -1.671875q0 -1.1875 0.828125 -1.828125q0.84375 -0.65625 2.34375 -0.65625l1.46875 0l0 -0.734375q0 -0.921875 -0.421875 -1.34375q-0.40625 -0.421875 -1.359375 -0.421875q-0.875 0 -2.078125 0.4375l-0.21875 -0.640625q1.296875 -0.515625 2.421875 -0.515625q2.5 0 2.5 2.4375l0 3.6875zm-2.96875 1.171875q1.375 0 2.125 -1.34375l0 -2.109375l-1.328125 0q-1.1875 0 -1.796875 0.453125q-0.609375 0.453125 -0.609375 1.359375q0 0.796875 0.421875 1.21875q0.421875 0.421875 1.1875 0.421875zm8.292023 0.5625q-0.3125 0.890625 -0.6875 1.453125q-0.359375 0.578125 -0.953125 0.953125q-0.578125 0.375 -1.5 0.546875l-0.078125 -0.65625q0.75 -0.1875 1.1875 -0.46875q0.4375 -0.28125 0.6875 -0.703125q0.265625 -0.40625 0.53125 -1.15625l-0.296875 0l-2.671875 -7.671875l0.921875 0l2.3125 7.046875l2.28125 -7.046875l0.890625 0l-2.625 7.703125zm11.890411 -7.859375q0.921875 0 1.453125 0.640625q0.53125 0.625 0.53125 1.703125l0 5.484375l-0.84375 0l0 -5.359375q0 -0.90625 -0.34375 -1.34375q-0.34375 -0.4375 -0.96875 -0.4375q-0.640625 0 -1.15625 0.421875q-0.5 0.40625 -0.984375 1.15625l0 5.5625l-0.859375 0l0 -5.359375q0 -0.90625 -0.34375 -1.34375q-0.34375 -0.4375 -0.953125 -0.4375q-0.65625 0 -1.171875 0.421875q-0.515625 0.40625 -0.984375 1.15625l0 5.5625l-0.859375 0l0 -7.671875l0.734375 0l0.078125 1.3125q0.4375 -0.6875 1.03125 -1.078125q0.609375 -0.390625 1.328125 -0.390625q0.734375 0 1.234375 0.40625q0.5 0.40625 0.671875 1.125q0.453125 -0.71875 1.0625 -1.125q0.609375 -0.40625 1.34375 -0.40625zm10.454956 3.703125q0 0.328125 -0.015625 0.625l-5.125 0q0.078125 1.484375 0.703125 2.21875q0.640625 0.71875 1.6875 0.71875q0.609375 0 1.0625 -0.171875q0.46875 -0.1875 1.0 -0.578125l0.40625 0.53125q-0.578125 0.46875 -1.1875 0.703125q-0.59375 0.234375 -1.328125 0.234375q-1.515625 0 -2.390625 -1.03125q-0.859375 -1.046875 -0.859375 -2.890625q0 -1.21875 0.375 -2.125q0.375 -0.921875 1.0625 -1.421875q0.703125 -0.515625 1.625 -0.515625q1.46875 0 2.21875 1.0q0.765625 0.984375 0.765625 2.703125zm-0.828125 -0.25q0 -1.296875 -0.546875 -2.015625q-0.53125 -0.734375 -1.578125 -0.734375q-0.953125 0 -1.546875 0.734375q-0.578125 0.734375 -0.640625 2.234375l4.3125 0l0 -0.21875zm6.637024 -3.453125q1.046875 0 1.59375 0.625q0.546875 0.609375 0.546875 1.71875l0 5.484375l-0.84375 0l0 -5.359375q0 -0.921875 -0.375 -1.34375q-0.359375 -0.4375 -1.078125 -0.4375q-0.734375 0 -1.296875 0.40625q-0.5625 0.40625 -1.078125 1.171875l0 5.5625l-0.859375 0l0 -7.671875l0.734375 0l0.09375 1.3125q0.46875 -0.6875 1.109375 -1.078125q0.65625 -0.390625 1.453125 -0.390625zm8.66864 7.5q-0.734375 0.484375 -1.625 0.484375q-0.875 0 -1.375 -0.515625q-0.5 -0.515625 -0.5 -1.5l0 -5.109375l-1.28125 0l0 -0.703125l1.28125 0l0 -1.828125l0.859375 -0.09375l0 1.921875l1.96875 0l-0.09375 0.703125l-1.875 0l0 5.0625q0 0.671875 0.265625 1.0q0.28125 0.328125 0.859375 0.328125q0.59375 0 1.171875 -0.328125l0.34375 0.578125z" fill-rule="nonzero"/><path fill="#000000" d="m269.66708 211.16136l-0.859375 0l-0.453125 -4.8125q-0.28125 -2.796875 -0.375 -4.359375l-2.53125 7.984375l-0.828125 0l-2.609375 -7.984375q-0.078125 1.421875 -0.296875 3.765625l-0.046875 0.5625l-0.4375 4.84375l-0.828125 0l0.953125 -10.046875l1.21875 0l2.484375 7.8125l2.40625 -7.8125l1.234375 0l0.96875 10.046875zm7.3165894 -1.703125q0 0.609375 0.15625 0.875q0.15625 0.25 0.5 0.390625l-0.203125 0.59375q-0.515625 -0.09375 -0.8125 -0.390625q-0.28125 -0.296875 -0.375 -0.890625q-0.78125 1.28125 -2.390625 1.28125q-1.09375 0 -1.734375 -0.609375q-0.625 -0.625 -0.625 -1.671875q0 -1.1875 0.828125 -1.828125q0.84375 -0.65625 2.34375 -0.65625l1.46875 0l0 -0.734375q0 -0.921875 -0.421875 -1.34375q-0.40625 -0.421875 -1.359375 -0.421875q-0.875 0 -2.078125 0.4375l-0.21875 -0.640625q1.296875 -0.515625 2.421875 -0.515625q2.5 0 2.5 2.4375l0 3.6875zm-2.96875 1.171875q1.375 0 2.125 -1.34375l0 -2.109375l-1.328125 0q-1.1875 0 -1.796875 0.453125q-0.609375 0.453125 -0.609375 1.359375q0 0.796875 0.421875 1.21875q0.421875 0.421875 1.1875 0.421875zm9.449524 -7.296875q1.046875 0 1.59375 0.625q0.546875 0.609375 0.546875 1.71875l0 5.484375l-0.84375 0l0 -5.359375q0 -0.921875 -0.375 -1.34375q-0.359375 -0.4375 -1.078125 -0.4375q-0.734375 0 -1.296875 0.40625q-0.5625 0.40625 -1.078125 1.171875l0 5.5625l-0.859375 0l0 -7.671875l0.734375 0l0.09375 1.3125q0.46875 -0.6875 1.109375 -1.078125q0.65625 -0.390625 1.453125 -0.390625zm9.934296 6.125q0 0.609375 0.15625 0.875q0.15625 0.25 0.5 0.390625l-0.203125 0.59375q-0.515625 -0.09375 -0.8125 -0.390625q-0.28125 -0.296875 -0.375 -0.890625q-0.78125 1.28125 -2.390625 1.28125q-1.09375 0 -1.734375 -0.609375q-0.625 -0.625 -0.625 -1.671875q0 -1.1875 0.828125 -1.828125q0.84375 -0.65625 2.34375 -0.65625l1.46875 0l0 -0.734375q0 -0.921875 -0.421875 -1.34375q-0.40625 -0.421875 -1.359375 -0.421875q-0.875 0 -2.078125 0.4375l-0.21875 -0.640625q1.296875 -0.515625 2.421875 -0.515625q2.5 0 2.5 2.4375l0 3.6875zm-2.96875 1.171875q1.375 0 2.125 -1.34375l0 -2.109375l-1.328125 0q-1.1875 0 -1.796875 0.453125q-0.609375 0.453125 -0.609375 1.359375q0 0.796875 0.421875 1.21875q0.421875 0.421875 1.1875 0.421875zm11.615356 -6.96875q-0.703125 0.1875 -2.125 0.21875q1.3125 0.609375 1.3125 2.078125q0 1.125 -0.75 1.828125q-0.75 0.6875 -2.015625 0.6875q-0.578125 0 -1.0 -0.140625q-0.28125 0.15625 -0.4375 0.390625q-0.15625 0.21875 -0.15625 0.484375q0 0.796875 1.21875 0.796875l1.25 0q1.125 0 1.78125 0.546875q0.671875 0.546875 0.671875 1.421875q0 1.046875 -0.84375 1.609375q-0.828125 0.578125 -2.484375 0.578125q-1.703125 0 -2.453125 -0.515625q-0.734375 -0.515625 -0.734375 -1.671875l0.796875 0q0.015625 0.546875 0.234375 0.875q0.21875 0.328125 0.71875 0.46875q0.515625 0.140625 1.4375 0.140625q1.296875 0 1.875 -0.375q0.59375 -0.375 0.59375 -1.078125q0 -0.609375 -0.453125 -0.9375q-0.453125 -0.328125 -1.28125 -0.328125l-1.234375 0q-0.921875 0 -1.40625 -0.375q-0.484375 -0.390625 -0.484375 -0.96875q0 -0.390625 0.21875 -0.71875q0.21875 -0.34375 0.609375 -0.59375q-0.65625 -0.34375 -0.96875 -0.859375q-0.3125 -0.53125 -0.3125 -1.296875q0 -1.15625 0.765625 -1.875q0.78125 -0.71875 2.046875 -0.71875q1.390625 0.015625 2.015625 -0.09375q0.640625 -0.125 1.328125 -0.40625l0.265625 0.828125zm-3.609375 0.328125q-0.953125 0 -1.453125 0.53125q-0.484375 0.53125 -0.484375 1.40625q0 0.90625 0.515625 1.421875q0.515625 0.515625 1.421875 0.515625q0.9375 0 1.421875 -0.5q0.5 -0.515625 0.5 -1.421875q0 -0.921875 -0.484375 -1.4375q-0.484375 -0.515625 -1.4375 -0.515625zm10.525177 3.046875q0 0.328125 -0.015625 0.625l-5.125 0q0.078125 1.484375 0.703125 2.21875q0.640625 0.71875 1.6875 0.71875q0.609375 0 1.0625 -0.171875q0.46875 -0.1875 1.0 -0.578125l0.40625 0.53125q-0.578125 0.46875 -1.1875 0.703125q-0.59375 0.234375 -1.328125 0.234375q-1.515625 0 -2.390625 -1.03125q-0.859375 -1.046875 -0.859375 -2.890625q0 -1.21875 0.375 -2.125q0.375 -0.921875 1.0625 -1.421875q0.703125 -0.515625 1.625 -0.515625q1.46875 0 2.21875 1.0q0.765625 0.984375 0.765625 2.703125zm-0.828125 -0.25q0 -1.296875 -0.546875 -2.015625q-0.53125 -0.734375 -1.578125 -0.734375q-0.953125 0 -1.546875 0.734375q-0.578125 0.734375 -0.640625 2.234375l4.3125 0l0 -0.21875zm6.230774 -3.453125q0.453125 0 0.765625 0.09375l-0.171875 0.796875q-0.3125 -0.078125 -0.671875 -0.078125q-0.78125 0 -1.265625 0.5625q-0.46875 0.5625 -0.78125 1.765625l0 4.6875l-0.859375 0l0 -7.671875l0.734375 0l0.078125 1.71875q0.3125 -0.953125 0.84375 -1.40625q0.53125 -0.46875 1.328125 -0.46875z" fill-rule="nonzero"/><path fill="#000000" fill-opacity="0.0" d="m530.17725 306.11548l65.82678 0.34646606" fill-rule="evenodd"/><path stroke="#000000" stroke-width="1.0" stroke-linejoin="round" stroke-linecap="butt" d="m533.6043 306.13354l58.972656 0.31036377" fill-rule="evenodd"/><path fill="#000000" stroke="#000000" stroke-width="1.0" stroke-linecap="butt" d="m533.6043 306.1335l1.1304932 -1.1186523l-3.0957031 1.1083069l3.0838623 1.1408386z" fill-rule="evenodd"/><path fill="#000000" stroke="#000000" stroke-width="1.0" stroke-linecap="butt" d="m592.57697 306.4439l-1.1304932 1.1186523l3.095642 -1.1083069l-3.0838013 -1.1408386z" fill-rule="evenodd"/></g></svg>