<?xml version="1.0" encoding="UTF-8" standalone="no"?><svg xmlns="http://www.w3.org/2000/svg" xmlns:xlink="http://www.w3.org/1999/xlink" contentScriptType="application/ecmascript" contentStyleType="text/css" height="1548px" preserveAspectRatio="none" style="width:1777px;height:1548px;" version="1.1" viewBox="0 0 1777 1548" width="1777px" zoomAndPan="magnify"><defs><filter height="300%" id="f1x26vqltk0myb" width="300%" x="-1" y="-1"><feGaussianBlur result="blurOut" stdDeviation="2.0"/><feColorMatrix in="blurOut" result="blurOut2" type="matrix" values="0 0 0 0 0 0 0 0 0 0 0 0 0 0 0 0 0 0 .4 0"/><feOffset dx="4.0" dy="4.0" in="blurOut2" result="blurOut3"/><feBlend in="SourceGraphic" in2="blurOut3" mode="normal"/></filter></defs><g><rect fill="#FFFFFF" filter="url(#f1x26vqltk0myb)" height="843.75" style="stroke:#000000;stroke-width:2.0;" width="1753.5" x="10" y="294.9375"/><rect fill="#FFFFFF" height="619.625" style="stroke:none;stroke-width:1.0;" width="1753.5" x="10" y="519.0625"/><line style="stroke:#383838;stroke-width:1.0;stroke-dasharray:5.0,5.0;" x1="83" x2="83" y1="102.1875" y2="1450"/><line style="stroke:#383838;stroke-width:1.0;stroke-dasharray:5.0,5.0;" x1="540.5" x2="540.5" y1="102.1875" y2="1450"/><line style="stroke:#383838;stroke-width:1.0;stroke-dasharray:5.0,5.0;" x1="925" x2="925" y1="102.1875" y2="1450"/><line style="stroke:#383838;stroke-width:1.0;stroke-dasharray:5.0,5.0;" x1="1459" x2="1459" y1="102.1875" y2="1450"/><text fill="#000000" font-family="sans-serif" font-size="24" lengthAdjust="spacing" textLength="121" x="20" y="96.9141">DFSP User</text><ellipse cx="83.5" cy="15" fill="#F8F8F8" filter="url(#f1x26vqltk0myb)" rx="8" ry="8" style="stroke:#383838;stroke-width:2.0;"/><path d="M83.5,23 L83.5,50 M70.5,31 L96.5,31 M83.5,50 L70.5,65 M83.5,50 L96.5,65 " fill="none" filter="url(#f1x26vqltk0myb)" style="stroke:#383838;stroke-width:2.0;"/><text fill="#000000" font-family="sans-serif" font-size="24" lengthAdjust="spacing" textLength="121" x="20" y="1473.9141">DFSP User</text><ellipse cx="83.5" cy="1489.1875" fill="#F8F8F8" filter="url(#f1x26vqltk0myb)" rx="8" ry="8" style="stroke:#383838;stroke-width:2.0;"/><path d="M83.5,1497.1875 L83.5,1524.1875 M70.5,1505.1875 L96.5,1505.1875 M83.5,1524.1875 L70.5,1539.1875 M83.5,1524.1875 L96.5,1539.1875 " fill="none" filter="url(#f1x26vqltk0myb)" style="stroke:#383838;stroke-width:2.0;"/><rect fill="#F8F8F8" filter="url(#f1x26vqltk0myb)" height="74.375" style="stroke:#383838;stroke-width:1.5;" width="250" x="413.5" y="22.8125"/><text fill="#000000" font-family="sans-serif" font-size="24" lengthAdjust="spacing" textLength="196" x="437" y="54.7266">Payment Manager</text><text fill="#000000" font-family="sans-serif" font-size="24" lengthAdjust="spacing" textLength="229" x="427.5" y="84.9141">accessed via browser</text><rect fill="#F8F8F8" filter="url(#f1x26vqltk0myb)" height="74.375" style="stroke:#383838;stroke-width:1.5;" width="250" x="413.5" y="1449"/><text fill="#000000" font-family="sans-serif" font-size="24" lengthAdjust="spacing" textLength="196" x="437" y="1480.9141">Payment Manager</text><text fill="#000000" font-family="sans-serif" font-size="24" lengthAdjust="spacing" textLength="229" x="427.5" y="1511.1016">accessed via browser</text><rect fill="#F8F8F8" filter="url(#f1x26vqltk0myb)" height="44.1875" style="stroke:#383838;stroke-width:1.5;" width="177" x="835" y="53"/><text fill="#000000" font-family="sans-serif" font-size="24" lengthAdjust="spacing" textLength="163" x="842" y="84.9141">Experience API</text><rect fill="#F8F8F8" filter="url(#f1x26vqltk0myb)" height="44.1875" style="stroke:#383838;stroke-width:1.5;" width="177" x="835" y="1449"/><text fill="#000000" font-family="sans-serif" font-size="24" lengthAdjust="spacing" textLength="163" x="842" y="1480.9141">Experience API</text><rect fill="#F8F8F8" filter="url(#f1x26vqltk0myb)" height="44.1875" style="stroke:#383838;stroke-width:1.5;" width="111" x="1402" y="53"/><text fill="#000000" font-family="sans-serif" font-size="24" lengthAdjust="spacing" textLength="97" x="1409" y="84.9141">Keycloak</text><rect fill="#F8F8F8" filter="url(#f1x26vqltk0myb)" height="44.1875" style="stroke:#383838;stroke-width:1.5;" width="111" x="1402" y="1449"/><text fill="#000000" font-family="sans-serif" font-size="24" lengthAdjust="spacing" textLength="97" x="1409" y="1480.9141">Keycloak</text><polygon fill="#383838" points="528.5,144.375,538.5,148.375,528.5,152.375,532.5,148.375" style="stroke:#383838;stroke-width:1.0;"/><line style="stroke:#383838;stroke-width:1.0;" x1="83.5" x2="534.5" y1="148.375" y2="148.375"/><text fill="#000000" font-family="sans-serif" font-size="24" font-weight="bold" lengthAdjust="spacing" textLength="13" x="90.5" y="141.1016">1</text><text fill="#000000" font-family="sans-serif" font-size="24" lengthAdjust="spacing" textLength="279" x="107.5" y="141.1016">Access Payment Manager</text><polygon fill="#383838" points="913.5,188.5625,923.5,192.5625,913.5,196.5625,917.5,192.5625" style="stroke:#383838;stroke-width:1.0;"/><line style="stroke:#383838;stroke-width:1.0;" x1="540.5" x2="919.5" y1="192.5625" y2="192.5625"/><text fill="#000000" font-family="sans-serif" font-size="24" font-weight="bold" lengthAdjust="spacing" textLength="13" x="547.5" y="185.2891">2</text><text fill="#000000" font-family="sans-serif" font-size="24" lengthAdjust="spacing" textLength="270" x="564.5" y="185.2891">Request user information</text><line style="stroke:#383838;stroke-width:1.0;" x1="925.5" x2="967.5" y1="266.9375" y2="266.9375"/><line style="stroke:#383838;stroke-width:1.0;" x1="967.5" x2="967.5" y1="266.9375" y2="279.9375"/><line style="stroke:#383838;stroke-width:1.0;" x1="926.5" x2="967.5" y1="279.9375" y2="279.9375"/><polygon fill="#383838" points="936.5,275.9375,926.5,279.9375,936.5,283.9375,932.5,279.9375" style="stroke:#383838;stroke-width:1.0;"/><text fill="#000000" font-family="sans-serif" font-size="24" font-weight="bold" lengthAdjust="spacing" textLength="13" x="932.5" y="244.5703">3</text><text fill="#000000" font-family="sans-serif" font-size="24" lengthAdjust="spacing" textLength="381" x="949.5" y="229.4766">Check if user already has a session</text><text fill="#000000" font-family="sans-serif" font-size="24" lengthAdjust="spacing" textLength="266" x="956.5" y="259.6641">with a valid access token</text><path d="M10,294.9375 L83,294.9375 L83,316.9375 L73,326.9375 L10,326.9375 L10,294.9375 " fill="#EEEEEE" style="stroke:#000000;stroke-width:1.0;"/><rect fill="none" height="843.75" style="stroke:#000000;stroke-width:2.0;" width="1753.5" x="10" y="294.9375"/><text fill="#000000" font-family="sans-serif" font-size="24" font-weight="bold" lengthAdjust="spacing" textLength="28" x="25" y="320.8516">alt</text><text fill="#000000" font-family="sans-serif" font-size="24" font-weight="bold" lengthAdjust="spacing" textLength="258" x="98" y="321.8516">[Access token is valid]</text><polygon fill="#383838" points="1447.5,374.5,1457.5,378.5,1447.5,382.5,1451.5,378.5" style="stroke:#383838;stroke-width:1.0;"/><line style="stroke:#383838;stroke-width:1.0;" x1="925.5" x2="1453.5" y1="378.5" y2="378.5"/><text fill="#000000" font-family="sans-serif" font-size="24" font-weight="bold" lengthAdjust="spacing" textLength="13" x="932.5" y="371.2266">4</text><text fill="#000000" font-family="sans-serif" font-size="24" lengthAdjust="spacing" textLength="448" x="949.5" y="371.2266">Request user information (using ID token)</text><polygon fill="#383838" points="936.5,418.6875,926.5,422.6875,936.5,426.6875,932.5,422.6875" style="stroke:#383838;stroke-width:1.0;"/><line style="stroke:#383838;stroke-width:1.0;" x1="930.5" x2="1458.5" y1="422.6875" y2="422.6875"/><text fill="#000000" font-family="sans-serif" font-size="24" font-weight="bold" lengthAdjust="spacing" textLength="13" x="942.5" y="415.4141">5</text><text fill="#000000" font-family="sans-serif" font-size="24" lengthAdjust="spacing" textLength="253" x="959.5" y="415.4141">Return user information</text><polygon fill="#383838" points="551.5,462.875,541.5,466.875,551.5,470.875,547.5,466.875" style="stroke:#383838;stroke-width:1.0;"/><line style="stroke:#383838;stroke-width:1.0;" x1="545.5" x2="924.5" y1="466.875" y2="466.875"/><text fill="#000000" font-family="sans-serif" font-size="24" font-weight="bold" lengthAdjust="spacing" textLength="13" x="557.5" y="459.6016">6</text><text fill="#000000" font-family="sans-serif" font-size="24" lengthAdjust="spacing" textLength="253" x="574.5" y="459.6016">Return user information</text><polygon fill="#383838" points="94.5,507.0625,84.5,511.0625,94.5,515.0625,90.5,511.0625" style="stroke:#383838;stroke-width:1.0;"/><line style="stroke:#383838;stroke-width:1.0;" x1="88.5" x2="539.5" y1="511.0625" y2="511.0625"/><text fill="#000000" font-family="sans-serif" font-size="24" font-weight="bold" lengthAdjust="spacing" textLength="13" x="100.5" y="503.7891">7</text><text fill="#000000" font-family="sans-serif" font-size="24" lengthAdjust="spacing" textLength="403" x="117.5" y="503.7891">Display Payment Manager homepage</text><line style="stroke:#000000;stroke-width:1.0;stroke-dasharray:2.0,2.0;" x1="10" x2="1763.5" y1="520.0625" y2="520.0625"/><text fill="#000000" font-family="sans-serif" font-size="24" font-weight="bold" lengthAdjust="spacing" textLength="525" x="15" y="544.9766">[No access token or access token is not valid]</text><polygon fill="#383838" points="551.5,583.4375,541.5,587.4375,551.5,591.4375,547.5,587.4375" style="stroke:#383838;stroke-width:1.0;"/><line style="stroke:#383838;stroke-width:1.0;" x1="545.5" x2="924.5" y1="587.4375" y2="587.4375"/><text fill="#000000" font-family="sans-serif" font-size="24" font-weight="bold" lengthAdjust="spacing" textLength="13" x="557.5" y="580.1641">8</text><text fill="#000000" font-family="sans-serif" font-size="24" lengthAdjust="spacing" textLength="344" x="574.5" y="580.1641">Redirect request to sign-in page</text><polygon fill="#383838" points="94.5,627.625,84.5,631.625,94.5,635.625,90.5,631.625" style="stroke:#383838;stroke-width:1.0;"/><line style="stroke:#383838;stroke-width:1.0;" x1="88.5" x2="539.5" y1="631.625" y2="631.625"/><text fill="#000000" font-family="sans-serif" font-size="24" font-weight="bold" lengthAdjust="spacing" textLength="13" x="100.5" y="624.3516">9</text><text fill="#000000" font-family="sans-serif" font-size="24" lengthAdjust="spacing" textLength="219" x="117.5" y="624.3516">Display sign-in page</text><polygon fill="#383838" points="528.5,671.8125,538.5,675.8125,528.5,679.8125,532.5,675.8125" style="stroke:#383838;stroke-width:1.0;"/><line style="stroke:#383838;stroke-width:1.0;" x1="83.5" x2="534.5" y1="675.8125" y2="675.8125"/><text fill="#000000" font-family="sans-serif" font-size="24" font-weight="bold" lengthAdjust="spacing" textLength="26" x="90.5" y="668.5391">10</text><text fill="#000000" font-family="sans-serif" font-size="24" lengthAdjust="spacing" textLength="305" x="120.5" y="668.5391">Sign in to Payment Manager</text><polygon fill="#383838" points="913.5,716,923.5,720,913.5,724,917.5,720" style="stroke:#383838;stroke-width:1.0;"/><line style="stroke:#383838;stroke-width:1.0;" x1="540.5" x2="919.5" y1="720" y2="720"/><text fill="#000000" font-family="sans-serif" font-size="24" font-weight="bold" lengthAdjust="spacing" textLength="26" x="547.5" y="712.7266">11</text><text fill="#000000" font-family="sans-serif" font-size="24" lengthAdjust="spacing" textLength="303" x="577.5" y="712.7266">Send authentication request</text><polygon fill="#383838" points="1447.5,760.1875,1457.5,764.1875,1447.5,768.1875,1451.5,764.1875" style="stroke:#383838;stroke-width:1.0;"/><line style="stroke:#383838;stroke-width:1.0;" x1="925.5" x2="1453.5" y1="764.1875" y2="764.1875"/><text fill="#000000" font-family="sans-serif" font-size="24" font-weight="bold" lengthAdjust="spacing" textLength="26" x="932.5" y="756.9141">12</text><text fill="#000000" font-family="sans-serif" font-size="24" lengthAdjust="spacing" textLength="303" x="962.5" y="756.9141">Send authentication request</text><line style="stroke:#383838;stroke-width:1.0;" x1="1459.5" x2="1501.5" y1="808.375" y2="808.375"/><line style="stroke:#383838;stroke-width:1.0;" x1="1501.5" x2="1501.5" y1="808.375" y2="821.375"/><line style="stroke:#383838;stroke-width:1.0;" x1="1460.5" x2="1501.5" y1="821.375" y2="821.375"/><polygon fill="#383838" points="1470.5,817.375,1460.5,821.375,1470.5,825.375,1466.5,821.375" style="stroke:#383838;stroke-width:1.0;"/><text fill="#000000" font-family="sans-serif" font-size="24" font-weight="bold" lengthAdjust="spacing" textLength="26" x="1466.5" y="801.1016">13</text><text fill="#000000" font-family="sans-serif" font-size="24" lengthAdjust="spacing" textLength="255" x="1496.5" y="801.1016">Verify user's credentials</text><polygon fill="#383838" points="936.5,861.5625,926.5,865.5625,936.5,869.5625,932.5,865.5625" style="stroke:#383838;stroke-width:1.0;"/><line style="stroke:#383838;stroke-width:1.0;" x1="930.5" x2="1458.5" y1="865.5625" y2="865.5625"/><text fill="#000000" font-family="sans-serif" font-size="24" font-weight="bold" lengthAdjust="spacing" textLength="26" x="942.5" y="858.2891">14</text><text fill="#000000" font-family="sans-serif" font-size="24" lengthAdjust="spacing" textLength="257" x="972.5" y="858.2891">Pass authorization code</text><polygon fill="#383838" points="1447.5,905.75,1457.5,909.75,1447.5,913.75,1451.5,909.75" style="stroke:#383838;stroke-width:1.0;"/><line style="stroke:#383838;stroke-width:1.0;" x1="925.5" x2="1453.5" y1="909.75" y2="909.75"/><text fill="#000000" font-family="sans-serif" font-size="24" font-weight="bold" lengthAdjust="spacing" textLength="26" x="932.5" y="902.4766">15</text><text fill="#000000" font-family="sans-serif" font-size="24" lengthAdjust="spacing" textLength="480" x="962.5" y="902.4766">Present authorization code to request tokens</text><polygon fill="#383838" points="936.5,949.9375,926.5,953.9375,936.5,957.9375,932.5,953.9375" style="stroke:#383838;stroke-width:1.0;"/><line style="stroke:#383838;stroke-width:1.0;" x1="930.5" x2="1458.5" y1="953.9375" y2="953.9375"/><text fill="#000000" font-family="sans-serif" font-size="24" font-weight="bold" lengthAdjust="spacing" textLength="26" x="942.5" y="946.6641">16</text><text fill="#000000" font-family="sans-serif" font-size="24" lengthAdjust="spacing" textLength="371" x="972.5" y="946.6641">Provide ID token and access token</text><polygon fill="#383838" points="1447.5,994.125,1457.5,998.125,1447.5,1002.125,1451.5,998.125" style="stroke:#383838;stroke-width:1.0;"/><line style="stroke:#383838;stroke-width:1.0;" x1="925.5" x2="1453.5" y1="998.125" y2="998.125"/><text fill="#000000" font-family="sans-serif" font-size="24" font-weight="bold" lengthAdjust="spacing" textLength="26" x="932.5" y="990.8516">17</text><text fill="#000000" font-family="sans-serif" font-size="24" lengthAdjust="spacing" textLength="448" x="962.5" y="990.8516">Request user information (using ID token)</text><polygon fill="#383838" points="936.5,1038.3125,926.5,1042.3125,936.5,1046.3125,932.5,1042.3125" style="stroke:#383838;stroke-width:1.0;"/><line style="stroke:#383838;stroke-width:1.0;" x1="930.5" x2="1458.5" y1="1042.3125" y2="1042.3125"/><text fill="#000000" font-family="sans-serif" font-size="24" font-weight="bold" lengthAdjust="spacing" textLength="26" x="942.5" y="1035.0391">18</text><text fill="#000000" font-family="sans-serif" font-size="24" lengthAdjust="spacing" textLength="253" x="972.5" y="1035.0391">Return user information</text><polygon fill="#383838" points="551.5,1082.5,541.5,1086.5,551.5,1090.5,547.5,1086.5" style="stroke:#383838;stroke-width:1.0;"/><line style="stroke:#383838;stroke-width:1.0;" x1="545.5" x2="924.5" y1="1086.5" y2="1086.5"/><text fill="#000000" font-family="sans-serif" font-size="24" font-weight="bold" lengthAdjust="spacing" textLength="26" x="557.5" y="1079.2266">19</text><text fill="#000000" font-family="sans-serif" font-size="24" lengthAdjust="spacing" textLength="253" x="587.5" y="1079.2266">Return user information</text><polygon fill="#383838" points="94.5,1126.6875,84.5,1130.6875,94.5,1134.6875,90.5,1130.6875" style="stroke:#383838;stroke-width:1.0;"/><line style="stroke:#383838;stroke-width:1.0;" x1="88.5" x2="539.5" y1="1130.6875" y2="1130.6875"/><text fill="#000000" font-family="sans-serif" font-size="24" font-weight="bold" lengthAdjust="spacing" textLength="26" x="100.5" y="1123.4141">20</text><text fill="#000000" font-family="sans-serif" font-size="24" lengthAdjust="spacing" textLength="403" x="130.5" y="1123.4141">Display Payment Manager homepage</text><polygon fill="#383838" points="528.5,1177.875,538.5,1181.875,528.5,1185.875,532.5,1181.875" style="stroke:#383838;stroke-width:1.0;"/><line style="stroke:#383838;stroke-width:1.0;" x1="83.5" x2="534.5" y1="1181.875" y2="1181.875"/><text fill="#000000" font-family="sans-serif" font-size="24" font-weight="bold" lengthAdjust="spacing" textLength="26" x="90.5" y="1174.6016">21</text><text fill="#000000" font-family="sans-serif" font-size="24" lengthAdjust="spacing" textLength="333" x="120.5" y="1174.6016">Interact with Payment Manager</text><polygon fill="#383838" points="913.5,1222.0625,923.5,1226.0625,913.5,1230.0625,917.5,1226.0625" style="stroke:#383838;stroke-width:1.0;"/><line style="stroke:#383838;stroke-width:1.0;" x1="540.5" x2="919.5" y1="1226.0625" y2="1226.0625"/><text fill="#000000" font-family="sans-serif" font-size="24" font-weight="bold" lengthAdjust="spacing" textLength="26" x="547.5" y="1218.7891">22</text><text fill="#000000" font-family="sans-serif" font-size="24" lengthAdjust="spacing" textLength="287" x="577.5" y="1218.7891">Send user's action request</text><line style="stroke:#383838;stroke-width:1.0;" x1="925.5" x2="967.5" y1="1300.4375" y2="1300.4375"/><line style="stroke:#383838;stroke-width:1.0;" x1="967.5" x2="967.5" y1="1300.4375" y2="1313.4375"/><line style="stroke:#383838;stroke-width:1.0;" x1="926.5" x2="967.5" y1="1313.4375" y2="1313.4375"/><polygon fill="#383838" points="936.5,1309.4375,926.5,1313.4375,936.5,1317.4375,932.5,1313.4375" style="stroke:#383838;stroke-width:1.0;"/><text fill="#000000" font-family="sans-serif" font-size="24" font-weight="bold" lengthAdjust="spacing" textLength="26" x="932.5" y="1278.0703">23</text><text fill="#000000" font-family="sans-serif" font-size="24" lengthAdjust="spacing" textLength="399" x="962.5" y="1262.9766">Look up user's roles and permissions</text><text fill="#000000" font-family="sans-serif" font-size="24" lengthAdjust="spacing" textLength="288" x="969.5" y="1293.1641">and allow/deny user action</text><polygon fill="#383838" points="551.5,1353.625,541.5,1357.625,551.5,1361.625,547.5,1357.625" style="stroke:#383838;stroke-width:1.0;"/><line style="stroke:#383838;stroke-width:1.0;" x1="545.5" x2="924.5" y1="1357.625" y2="1357.625"/><text fill="#000000" font-family="sans-serif" font-size="24" font-weight="bold" lengthAdjust="spacing" textLength="26" x="557.5" y="1350.3516">24</text><text fill="#000000" font-family="sans-serif" font-size="24" lengthAdjust="spacing" textLength="242" x="587.5" y="1350.3516">Allow/deny user action</text><polygon fill="#383838" points="94.5,1428,84.5,1432,94.5,1436,90.5,1432" style="stroke:#383838;stroke-width:1.0;"/><line style="stroke:#383838;stroke-width:1.0;" x1="88.5" x2="539.5" y1="1432" y2="1432"/><text fill="#000000" font-family="sans-serif" font-size="24" font-weight="bold" lengthAdjust="spacing" textLength="26" x="100.5" y="1409.6328">25</text><text fill="#000000" font-family="sans-serif" font-size="24" lengthAdjust="spacing" textLength="283" x="130.5" y="1394.5391">Display requested page or</text><text fill="#000000" font-family="sans-serif" font-size="24" lengthAdjust="spacing" textLength="377" x="137.5" y="1424.7266">message about missing permission</text><!--MD5=[1042a8b103393b5cd1cf9bcaf0e47d8d]
@startuml

autonumber
skinparam activityFontSize 4
skinparam activityDiamondFontSize 30
skinparam activityArrowFontSize 24
skinparam defaultFontSize 24
skinparam noteFontSize 24
skinparam monochrome true

actor "DFSP User" as user
participant "Payment Manager \n accessed via browser" as browser
participant "Experience API" as api
participant "Keycloak" as keycloak

user -> browser: Access Payment Manager
browser -> api: Request user information
api -> api: Check if user already has a session \n with a valid access token
alt Access token is valid
api -> keycloak: Request user information (using ID token)
keycloak -> api: Return user information
api -> browser: Return user information
browser -> user: Display Payment Manager homepage
else No access token or access token is not valid
api -> browser: Redirect request to sign-in page
browser -> user: Display sign-in page
user -> browser: Sign in to Payment Manager
browser -> api: Send authentication request
api -> keycloak: Send authentication request
keycloak -> keycloak: Verify user's credentials
keycloak -> api: Pass authorization code
api -> keycloak: Present authorization code to request tokens
keycloak -> api: Provide ID token and access token
api -> keycloak: Request user information (using ID token)
keycloak -> api: Return user information
api -> browser: Return user information
browser -> user: Display Payment Manager homepage
end
user -> browser: Interact with Payment Manager
browser -> api: Send user's action request 
api -> api: Look up user's roles and permissions \n and allow/deny user action
api -> browser: Allow/deny user action
browser -> user: Display requested page or \n message about missing permission

@enduml

PlantUML version 1.2021.00(Sun Jan 10 11:25:05 CET 2021)
(GPL source distribution)
Java Runtime: Java(TM) SE Runtime Environment
JVM: Java HotSpot(TM) 64-Bit Server VM
Default Encoding: Cp1250
Language: en
Country: US
--></g></svg>