<?xml version="1.0" encoding="UTF-8" standalone="no"?><svg xmlns="http://www.w3.org/2000/svg" xmlns:xlink="http://www.w3.org/1999/xlink" contentScriptType="application/ecmascript" contentStyleType="text/css" height="2046px" preserveAspectRatio="none" style="width:1308px;height:2046px;" version="1.1" viewBox="0 0 1308 2046" width="1308px" zoomAndPan="magnify"><defs><filter height="300%" id="foh72ji0ryc3t" width="300%" x="-1" y="-1"><feGaussianBlur result="blurOut" stdDeviation="2.0"/><feColorMatrix in="blurOut" result="blurOut2" type="matrix" values="0 0 0 0 0 0 0 0 0 0 0 0 0 0 0 0 0 0 .4 0"/><feOffset dx="4.0" dy="4.0" in="blurOut2" result="blurOut3"/><feBlend in="SourceGraphic" in2="blurOut3" mode="normal"/></filter></defs><g><rect fill="#FFFFFF" filter="url(#foh72ji0ryc3t)" height="374.875" style="stroke:#000000;stroke-width:2.0;" width="1036" x="10" y="173.5625"/><rect fill="#FFFFFF" height="194.9375" style="stroke:none;stroke-width:1.0;" width="1036" x="10" y="353.5"/><rect fill="#FFFFFF" filter="url(#foh72ji0ryc3t)" height="343.6875" style="stroke:#000000;stroke-width:2.0;" width="1036" x="10" y="681"/><rect fill="#FFFFFF" height="207.9375" style="stroke:none;stroke-width:1.0;" width="1036" x="10" y="816.75"/><rect fill="#FFFFFF" filter="url(#foh72ji0ryc3t)" height="282.3125" style="stroke:#000000;stroke-width:2.0;" width="1171.5" x="10" y="1214.4375"/><rect fill="#FFFFFF" height="146.5625" style="stroke:none;stroke-width:1.0;" width="1171.5" x="10" y="1350.1875"/><rect fill="#FFFFFF" filter="url(#foh72ji0ryc3t)" height="461.25" style="stroke:#000000;stroke-width:2.0;" width="1220.5" x="10" y="1510.75"/><rect fill="#FFFFFF" height="207.9375" style="stroke:none;stroke-width:1.0;" width="1220.5" x="10" y="1764.0625"/><line style="stroke:#383838;stroke-width:1.0;stroke-dasharray:5.0,5.0;" x1="140" x2="140" y1="54.1875" y2="1989"/><line style="stroke:#383838;stroke-width:1.0;stroke-dasharray:5.0,5.0;" x1="585.5" x2="585.5" y1="54.1875" y2="1989"/><line style="stroke:#383838;stroke-width:1.0;stroke-dasharray:5.0,5.0;" x1="939" x2="939" y1="54.1875" y2="1989"/><rect fill="#F8F8F8" filter="url(#foh72ji0ryc3t)" height="44.1875" style="stroke:#383838;stroke-width:1.5;" width="237" x="20" y="5"/><text fill="#000000" font-family="sans-serif" font-size="24" lengthAdjust="spacing" textLength="223" x="27" y="36.9141">DFSP Core Backend</text><rect fill="#F8F8F8" filter="url(#foh72ji0ryc3t)" height="44.1875" style="stroke:#383838;stroke-width:1.5;" width="237" x="20" y="1988"/><text fill="#000000" font-family="sans-serif" font-size="24" lengthAdjust="spacing" textLength="223" x="27" y="2019.9141">DFSP Core Backend</text><rect fill="#F8F8F8" filter="url(#foh72ji0ryc3t)" height="44.1875" style="stroke:#383838;stroke-width:1.5;" width="210" x="478.5" y="5"/><text fill="#000000" font-family="sans-serif" font-size="24" lengthAdjust="spacing" textLength="196" x="485.5" y="36.9141">Payment Manager</text><rect fill="#F8F8F8" filter="url(#foh72ji0ryc3t)" height="44.1875" style="stroke:#383838;stroke-width:1.5;" width="210" x="478.5" y="1988"/><text fill="#000000" font-family="sans-serif" font-size="24" lengthAdjust="spacing" textLength="196" x="485.5" y="2019.9141">Payment Manager</text><rect fill="#F8F8F8" filter="url(#foh72ji0ryc3t)" height="44.1875" style="stroke:#383838;stroke-width:1.5;" width="189" x="843" y="5"/><text fill="#000000" font-family="sans-serif" font-size="24" lengthAdjust="spacing" textLength="175" x="850" y="36.9141">Mojaloop Switch</text><rect fill="#F8F8F8" filter="url(#foh72ji0ryc3t)" height="44.1875" style="stroke:#383838;stroke-width:1.5;" width="189" x="843" y="1988"/><text fill="#000000" font-family="sans-serif" font-size="24" lengthAdjust="spacing" textLength="175" x="850" y="2019.9141">Mojaloop Switch</text><rect fill="#EEEEEE" filter="url(#foh72ji0ryc3t)" height="3" style="stroke:#EEEEEE;stroke-width:1.0;" width="1301.5" x="0" y="92.2813"/><line style="stroke:#000000;stroke-width:1.0;" x1="0" x2="1301.5" y1="92.2813" y2="92.2813"/><line style="stroke:#000000;stroke-width:1.0;" x1="0" x2="1301.5" y1="95.2813" y2="95.2813"/><rect fill="#EEEEEE" filter="url(#foh72ji0ryc3t)" height="38.1875" style="stroke:#000000;stroke-width:2.0;" width="161" x="570.25" y="74.1875"/><text fill="#000000" font-family="sans-serif" font-size="24" font-weight="bold" lengthAdjust="spacing" textLength="140" x="576.25" y="103.1016">send money</text><polygon fill="#383838" points="573.5,154.5625,583.5,158.5625,573.5,162.5625,577.5,158.5625" style="stroke:#383838;stroke-width:1.0;"/><line style="stroke:#383838;stroke-width:1.0;" x1="140.5" x2="579.5" y1="158.5625" y2="158.5625"/><text fill="#000000" font-family="sans-serif" font-size="24" font-weight="bold" lengthAdjust="spacing" textLength="13" x="147.5" y="151.2891">1</text><text fill="#000000" font-family="sans-serif" font-size="24" lengthAdjust="spacing" textLength="277" x="164.5" y="151.2891">POST /sendmoney (sync)</text><path d="M10,173.5625 L83,173.5625 L83,195.5625 L73,205.5625 L10,205.5625 L10,173.5625 " fill="#EEEEEE" style="stroke:#000000;stroke-width:1.0;"/><rect fill="none" height="374.875" style="stroke:#000000;stroke-width:2.0;" width="1036" x="10" y="173.5625"/><text fill="#000000" font-family="sans-serif" font-size="24" font-weight="bold" lengthAdjust="spacing" textLength="28" x="25" y="199.4766">alt</text><text fill="#000000" font-family="sans-serif" font-size="24" font-weight="bold" lengthAdjust="spacing" textLength="204" x="98" y="200.4766">[Payee not found]</text><polygon fill="#383838" points="927.5,253.125,937.5,257.125,927.5,261.125,931.5,257.125" style="stroke:#383838;stroke-width:1.0;"/><line style="stroke:#383838;stroke-width:1.0;" x1="585.5" x2="933.5" y1="257.125" y2="257.125"/><text fill="#000000" font-family="sans-serif" font-size="24" font-weight="bold" lengthAdjust="spacing" textLength="13" x="592.5" y="249.8516">2</text><text fill="#000000" font-family="sans-serif" font-size="24" lengthAdjust="spacing" textLength="246" x="609.5" y="249.8516">GET /parties/{type}/{id}</text><polygon fill="#383838" points="596.5,297.3125,586.5,301.3125,596.5,305.3125,592.5,301.3125" style="stroke:#383838;stroke-width:1.0;"/><line style="stroke:#383838;stroke-width:1.0;" x1="590.5" x2="938.5" y1="301.3125" y2="301.3125"/><text fill="#000000" font-family="sans-serif" font-size="24" font-weight="bold" lengthAdjust="spacing" textLength="13" x="602.5" y="294.0391">3</text><text fill="#000000" font-family="sans-serif" font-size="24" lengthAdjust="spacing" textLength="301" x="619.5" y="294.0391">PUT /parties/{type}/{id}/error</text><polygon fill="#383838" points="151.5,341.5,141.5,345.5,151.5,349.5,147.5,345.5" style="stroke:#383838;stroke-width:1.0;"/><line style="stroke:#383838;stroke-width:1.0;" x1="145.5" x2="584.5" y1="345.5" y2="345.5"/><text fill="#000000" font-family="sans-serif" font-size="24" font-weight="bold" lengthAdjust="spacing" textLength="13" x="157.5" y="338.2266">4</text><text fill="#000000" font-family="sans-serif" font-size="24" lengthAdjust="spacing" textLength="203" x="174.5" y="338.2266">Return error (sync)</text><line style="stroke:#000000;stroke-width:1.0;stroke-dasharray:2.0,2.0;" x1="10" x2="1046" y1="354.5" y2="354.5"/><text fill="#000000" font-family="sans-serif" font-size="24" font-weight="bold" lengthAdjust="spacing" textLength="355" x="15" y="379.4141">[Payee DFSP and Payee found]</text><polygon fill="#383838" points="927.5,417.875,937.5,421.875,927.5,425.875,931.5,421.875" style="stroke:#383838;stroke-width:1.0;"/><line style="stroke:#383838;stroke-width:1.0;" x1="585.5" x2="933.5" y1="421.875" y2="421.875"/><text fill="#000000" font-family="sans-serif" font-size="24" font-weight="bold" lengthAdjust="spacing" textLength="13" x="592.5" y="414.6016">5</text><text fill="#000000" font-family="sans-serif" font-size="24" lengthAdjust="spacing" textLength="246" x="609.5" y="414.6016">GET /parties/{type}/{id}</text><polygon fill="#383838" points="596.5,462.0625,586.5,466.0625,596.5,470.0625,592.5,466.0625" style="stroke:#383838;stroke-width:1.0;"/><line style="stroke:#383838;stroke-width:1.0;" x1="590.5" x2="938.5" y1="466.0625" y2="466.0625"/><text fill="#000000" font-family="sans-serif" font-size="24" font-weight="bold" lengthAdjust="spacing" textLength="13" x="602.5" y="458.7891">6</text><text fill="#000000" font-family="sans-serif" font-size="24" lengthAdjust="spacing" textLength="244" x="619.5" y="458.7891">PUT /parties/{type}/{id}</text><polygon fill="#383838" points="151.5,536.4375,141.5,540.4375,151.5,544.4375,147.5,540.4375" style="stroke:#383838;stroke-width:1.0;"/><line style="stroke:#383838;stroke-width:1.0;" x1="145.5" x2="584.5" y1="540.4375" y2="540.4375"/><text fill="#000000" font-family="sans-serif" font-size="24" font-weight="bold" lengthAdjust="spacing" textLength="13" x="157.5" y="518.0703">7</text><text fill="#000000" font-family="sans-serif" font-size="24" lengthAdjust="spacing" textLength="180" x="174.5" y="502.9766">Return party info</text><text fill="#000000" font-family="sans-serif" font-size="24" lengthAdjust="spacing" textLength="247" x="181.5" y="533.1641">HTTP 200 result (sync)</text><polygon fill="#383838" points="573.5,617.8125,583.5,621.8125,573.5,625.8125,577.5,621.8125" style="stroke:#383838;stroke-width:1.0;"/><line style="stroke:#383838;stroke-width:1.0;" x1="140.5" x2="579.5" y1="621.8125" y2="621.8125"/><text fill="#000000" font-family="sans-serif" font-size="24" font-weight="bold" lengthAdjust="spacing" textLength="13" x="147.5" y="599.4453">8</text><text fill="#000000" font-family="sans-serif" font-size="24" lengthAdjust="spacing" textLength="384" x="164.5" y="584.3516">PUT /sendmoney/{transferId} (sync)</text><text fill="#000000" font-family="sans-serif" font-size="24" lengthAdjust="spacing" textLength="217" x="171.5" y="614.5391">("acceptParty": true)</text><polygon fill="#383838" points="927.5,662,937.5,666,927.5,670,931.5,666" style="stroke:#383838;stroke-width:1.0;"/><line style="stroke:#383838;stroke-width:1.0;" x1="585.5" x2="933.5" y1="666" y2="666"/><text fill="#000000" font-family="sans-serif" font-size="24" font-weight="bold" lengthAdjust="spacing" textLength="13" x="592.5" y="658.7266">9</text><text fill="#000000" font-family="sans-serif" font-size="24" lengthAdjust="spacing" textLength="152" x="609.5" y="658.7266">POST /quotes</text><path d="M10,681 L83,681 L83,703 L73,713 L10,713 L10,681 " fill="#EEEEEE" style="stroke:#000000;stroke-width:1.0;"/><rect fill="none" height="343.6875" style="stroke:#000000;stroke-width:2.0;" width="1036" x="10" y="681"/><text fill="#000000" font-family="sans-serif" font-size="24" font-weight="bold" lengthAdjust="spacing" textLength="28" x="25" y="706.9141">alt</text><text fill="#000000" font-family="sans-serif" font-size="24" font-weight="bold" lengthAdjust="spacing" textLength="233" x="98" y="707.9141">[Quote request fails]</text><polygon fill="#383838" points="596.5,760.5625,586.5,764.5625,596.5,768.5625,592.5,764.5625" style="stroke:#383838;stroke-width:1.0;"/><line style="stroke:#383838;stroke-width:1.0;" x1="590.5" x2="938.5" y1="764.5625" y2="764.5625"/><text fill="#000000" font-family="sans-serif" font-size="24" font-weight="bold" lengthAdjust="spacing" textLength="26" x="602.5" y="757.2891">10</text><text fill="#000000" font-family="sans-serif" font-size="24" lengthAdjust="spacing" textLength="233" x="632.5" y="757.2891">PUT /quotes/{id}/error</text><polygon fill="#383838" points="151.5,804.75,141.5,808.75,151.5,812.75,147.5,808.75" style="stroke:#383838;stroke-width:1.0;"/><line style="stroke:#383838;stroke-width:1.0;" x1="145.5" x2="584.5" y1="808.75" y2="808.75"/><text fill="#000000" font-family="sans-serif" font-size="24" font-weight="bold" lengthAdjust="spacing" textLength="26" x="157.5" y="801.4766">11</text><text fill="#000000" font-family="sans-serif" font-size="24" lengthAdjust="spacing" textLength="203" x="187.5" y="801.4766">Return error (sync)</text><line style="stroke:#000000;stroke-width:1.0;stroke-dasharray:2.0,2.0;" x1="10" x2="1046" y1="817.75" y2="817.75"/><text fill="#000000" font-family="sans-serif" font-size="24" font-weight="bold" lengthAdjust="spacing" textLength="335" x="15" y="842.6641">[Quote request is successful]</text><polygon fill="#383838" points="596.5,881.125,586.5,885.125,596.5,889.125,592.5,885.125" style="stroke:#383838;stroke-width:1.0;"/><line style="stroke:#383838;stroke-width:1.0;" x1="590.5" x2="938.5" y1="885.125" y2="885.125"/><text fill="#000000" font-family="sans-serif" font-size="24" font-weight="bold" lengthAdjust="spacing" textLength="26" x="602.5" y="877.8516">12</text><text fill="#000000" font-family="sans-serif" font-size="24" lengthAdjust="spacing" textLength="176" x="632.5" y="877.8516">PUT /quotes/{id}</text><line style="stroke:#383838;stroke-width:1.0;" x1="585.5" x2="627.5" y1="929.3125" y2="929.3125"/><line style="stroke:#383838;stroke-width:1.0;" x1="627.5" x2="627.5" y1="929.3125" y2="942.3125"/><line style="stroke:#383838;stroke-width:1.0;" x1="586.5" x2="627.5" y1="942.3125" y2="942.3125"/><polygon fill="#383838" points="596.5,938.3125,586.5,942.3125,596.5,946.3125,592.5,942.3125" style="stroke:#383838;stroke-width:1.0;"/><text fill="#000000" font-family="sans-serif" font-size="24" font-weight="bold" lengthAdjust="spacing" textLength="26" x="592.5" y="922.0391">13</text><text fill="#000000" font-family="sans-serif" font-size="24" lengthAdjust="spacing" textLength="191" x="622.5" y="922.0391">check quote rules</text><polygon fill="#383838" points="151.5,1012.6875,141.5,1016.6875,151.5,1020.6875,147.5,1016.6875" style="stroke:#383838;stroke-width:1.0;"/><line style="stroke:#383838;stroke-width:1.0;" x1="145.5" x2="584.5" y1="1016.6875" y2="1016.6875"/><text fill="#000000" font-family="sans-serif" font-size="24" font-weight="bold" lengthAdjust="spacing" textLength="26" x="157.5" y="994.3203">14</text><text fill="#000000" font-family="sans-serif" font-size="24" lengthAdjust="spacing" textLength="141" x="187.5" y="979.2266">Return quote</text><text fill="#000000" font-family="sans-serif" font-size="24" lengthAdjust="spacing" textLength="247" x="194.5" y="1009.4141">HTTP 200 result (sync)</text><polygon fill="#383838" points="573.5,1094.0625,583.5,1098.0625,573.5,1102.0625,577.5,1098.0625" style="stroke:#383838;stroke-width:1.0;"/><line style="stroke:#383838;stroke-width:1.0;" x1="140.5" x2="579.5" y1="1098.0625" y2="1098.0625"/><text fill="#000000" font-family="sans-serif" font-size="24" font-weight="bold" lengthAdjust="spacing" textLength="26" x="147.5" y="1075.6953">15</text><text fill="#000000" font-family="sans-serif" font-size="24" lengthAdjust="spacing" textLength="384" x="177.5" y="1060.6016">PUT /sendmoney/{transferId} (sync)</text><text fill="#000000" font-family="sans-serif" font-size="24" lengthAdjust="spacing" textLength="227" x="184.5" y="1090.7891">("acceptQuote": true)</text><polygon fill="#383838" points="927.5,1138.25,937.5,1142.25,927.5,1146.25,931.5,1142.25" style="stroke:#383838;stroke-width:1.0;"/><line style="stroke:#383838;stroke-width:1.0;" x1="585.5" x2="933.5" y1="1142.25" y2="1142.25"/><text fill="#000000" font-family="sans-serif" font-size="24" font-weight="bold" lengthAdjust="spacing" textLength="26" x="592.5" y="1134.9766">16</text><text fill="#000000" font-family="sans-serif" font-size="24" lengthAdjust="spacing" textLength="173" x="622.5" y="1134.9766">POST /transfers</text><line style="stroke:#383838;stroke-width:1.0;" x1="939.5" x2="981.5" y1="1186.4375" y2="1186.4375"/><line style="stroke:#383838;stroke-width:1.0;" x1="981.5" x2="981.5" y1="1186.4375" y2="1199.4375"/><line style="stroke:#383838;stroke-width:1.0;" x1="940.5" x2="981.5" y1="1199.4375" y2="1199.4375"/><polygon fill="#383838" points="950.5,1195.4375,940.5,1199.4375,950.5,1203.4375,946.5,1199.4375" style="stroke:#383838;stroke-width:1.0;"/><text fill="#000000" font-family="sans-serif" font-size="24" font-weight="bold" lengthAdjust="spacing" textLength="26" x="946.5" y="1179.1641">17</text><text fill="#000000" font-family="sans-serif" font-size="24" lengthAdjust="spacing" textLength="318" x="976.5" y="1179.1641">Perform (NDC) liquidity check</text><path d="M10,1214.4375 L83,1214.4375 L83,1236.4375 L73,1246.4375 L10,1246.4375 L10,1214.4375 " fill="#EEEEEE" style="stroke:#000000;stroke-width:1.0;"/><rect fill="none" height="282.3125" style="stroke:#000000;stroke-width:2.0;" width="1171.5" x="10" y="1214.4375"/><text fill="#000000" font-family="sans-serif" font-size="24" font-weight="bold" lengthAdjust="spacing" textLength="28" x="25" y="1240.3516">alt</text><text fill="#000000" font-family="sans-serif" font-size="24" font-weight="bold" lengthAdjust="spacing" textLength="453" x="98" y="1241.3516">[Transfer execution would exceed NDC]</text><polygon fill="#383838" points="596.5,1294,586.5,1298,596.5,1302,592.5,1298" style="stroke:#383838;stroke-width:1.0;"/><line style="stroke:#383838;stroke-width:1.0;" x1="590.5" x2="938.5" y1="1298" y2="1298"/><text fill="#000000" font-family="sans-serif" font-size="24" font-weight="bold" lengthAdjust="spacing" textLength="26" x="602.5" y="1290.7266">18</text><text fill="#000000" font-family="sans-serif" font-size="24" lengthAdjust="spacing" textLength="254" x="632.5" y="1290.7266">PUT /transfers/{id}/error</text><polygon fill="#383838" points="151.5,1338.1875,141.5,1342.1875,151.5,1346.1875,147.5,1342.1875" style="stroke:#383838;stroke-width:1.0;"/><line style="stroke:#383838;stroke-width:1.0;" x1="145.5" x2="584.5" y1="1342.1875" y2="1342.1875"/><text fill="#000000" font-family="sans-serif" font-size="24" font-weight="bold" lengthAdjust="spacing" textLength="26" x="157.5" y="1334.9141">19</text><text fill="#000000" font-family="sans-serif" font-size="24" lengthAdjust="spacing" textLength="203" x="187.5" y="1334.9141">Return error (sync)</text><line style="stroke:#000000;stroke-width:1.0;stroke-dasharray:2.0,2.0;" x1="10" x2="1181.5" y1="1351.1875" y2="1351.1875"/><text fill="#000000" font-family="sans-serif" font-size="24" font-weight="bold" lengthAdjust="spacing" textLength="467" x="15" y="1376.1016">[Transfer execution will not exceed NDC]</text><line style="stroke:#383838;stroke-width:1.0;" x1="939.5" x2="981.5" y1="1418.5625" y2="1418.5625"/><line style="stroke:#383838;stroke-width:1.0;" x1="981.5" x2="981.5" y1="1418.5625" y2="1431.5625"/><line style="stroke:#383838;stroke-width:1.0;" x1="940.5" x2="981.5" y1="1431.5625" y2="1431.5625"/><polygon fill="#383838" points="950.5,1427.5625,940.5,1431.5625,950.5,1435.5625,946.5,1431.5625" style="stroke:#383838;stroke-width:1.0;"/><text fill="#000000" font-family="sans-serif" font-size="24" font-weight="bold" lengthAdjust="spacing" textLength="26" x="946.5" y="1411.2891">20</text><text fill="#000000" font-family="sans-serif" font-size="24" lengthAdjust="spacing" textLength="155" x="976.5" y="1411.2891">Reserve funds</text><line style="stroke:#383838;stroke-width:1.0;" x1="939.5" x2="981.5" y1="1475.75" y2="1475.75"/><line style="stroke:#383838;stroke-width:1.0;" x1="981.5" x2="981.5" y1="1475.75" y2="1488.75"/><line style="stroke:#383838;stroke-width:1.0;" x1="940.5" x2="981.5" y1="1488.75" y2="1488.75"/><polygon fill="#383838" points="950.5,1484.75,940.5,1488.75,950.5,1492.75,946.5,1488.75" style="stroke:#383838;stroke-width:1.0;"/><text fill="#000000" font-family="sans-serif" font-size="24" font-weight="bold" lengthAdjust="spacing" textLength="26" x="946.5" y="1468.4766">21</text><text fill="#000000" font-family="sans-serif" font-size="24" lengthAdjust="spacing" textLength="193" x="976.5" y="1468.4766">Perform validation</text><path d="M10,1510.75 L83,1510.75 L83,1532.75 L73,1542.75 L10,1542.75 L10,1510.75 " fill="#EEEEEE" style="stroke:#000000;stroke-width:1.0;"/><rect fill="none" height="461.25" style="stroke:#000000;stroke-width:2.0;" width="1220.5" x="10" y="1510.75"/><text fill="#000000" font-family="sans-serif" font-size="24" font-weight="bold" lengthAdjust="spacing" textLength="28" x="25" y="1536.6641">alt</text><text fill="#000000" font-family="sans-serif" font-size="24" font-weight="bold" lengthAdjust="spacing" textLength="262" x="98" y="1537.6641">[Validation successful]</text><line style="stroke:#383838;stroke-width:1.0;" x1="939.5" x2="981.5" y1="1594.3125" y2="1594.3125"/><line style="stroke:#383838;stroke-width:1.0;" x1="981.5" x2="981.5" y1="1594.3125" y2="1607.3125"/><line style="stroke:#383838;stroke-width:1.0;" x1="940.5" x2="981.5" y1="1607.3125" y2="1607.3125"/><polygon fill="#383838" points="950.5,1603.3125,940.5,1607.3125,950.5,1611.3125,946.5,1607.3125" style="stroke:#383838;stroke-width:1.0;"/><text fill="#000000" font-family="sans-serif" font-size="24" font-weight="bold" lengthAdjust="spacing" textLength="26" x="946.5" y="1587.0391">22</text><text fill="#000000" font-family="sans-serif" font-size="24" lengthAdjust="spacing" textLength="150" x="976.5" y="1587.0391">Commit funds</text><polygon fill="#383838" points="596.5,1677.6875,586.5,1681.6875,596.5,1685.6875,592.5,1681.6875" style="stroke:#383838;stroke-width:1.0;"/><line style="stroke:#383838;stroke-width:1.0;" x1="590.5" x2="938.5" y1="1681.6875" y2="1681.6875"/><text fill="#000000" font-family="sans-serif" font-size="24" font-weight="bold" lengthAdjust="spacing" textLength="26" x="602.5" y="1659.3203">23</text><text fill="#000000" font-family="sans-serif" font-size="24" lengthAdjust="spacing" textLength="197" x="632.5" y="1644.2266">PUT /transfers/{id}</text><text fill="#000000" font-family="sans-serif" font-size="24" lengthAdjust="spacing" textLength="293" x="639.5" y="1674.4141">transferState=COMMITTED</text><polygon fill="#383838" points="151.5,1752.0625,141.5,1756.0625,151.5,1760.0625,147.5,1756.0625" style="stroke:#383838;stroke-width:1.0;"/><line style="stroke:#383838;stroke-width:1.0;" x1="145.5" x2="584.5" y1="1756.0625" y2="1756.0625"/><text fill="#000000" font-family="sans-serif" font-size="24" font-weight="bold" lengthAdjust="spacing" textLength="26" x="157.5" y="1733.6953">24</text><text fill="#000000" font-family="sans-serif" font-size="24" lengthAdjust="spacing" textLength="210" x="187.5" y="1718.6016">Transfer successful</text><text fill="#000000" font-family="sans-serif" font-size="24" lengthAdjust="spacing" textLength="247" x="194.5" y="1748.7891">HTTP 200 result (sync)</text><line style="stroke:#000000;stroke-width:1.0;stroke-dasharray:2.0,2.0;" x1="10" x2="1230.5" y1="1765.0625" y2="1765.0625"/><text fill="#000000" font-family="sans-serif" font-size="24" font-weight="bold" lengthAdjust="spacing" textLength="187" x="15" y="1789.9766">[Validation fails]</text><line style="stroke:#383838;stroke-width:1.0;" x1="939.5" x2="981.5" y1="1832.4375" y2="1832.4375"/><line style="stroke:#383838;stroke-width:1.0;" x1="981.5" x2="981.5" y1="1832.4375" y2="1845.4375"/><line style="stroke:#383838;stroke-width:1.0;" x1="940.5" x2="981.5" y1="1845.4375" y2="1845.4375"/><polygon fill="#383838" points="950.5,1841.4375,940.5,1845.4375,950.5,1849.4375,946.5,1845.4375" style="stroke:#383838;stroke-width:1.0;"/><text fill="#000000" font-family="sans-serif" font-size="24" font-weight="bold" lengthAdjust="spacing" textLength="26" x="946.5" y="1825.1641">25</text><text fill="#000000" font-family="sans-serif" font-size="24" lengthAdjust="spacing" textLength="242" x="976.5" y="1825.1641">Cancel reserved funds</text><polygon fill="#383838" points="596.5,1915.8125,586.5,1919.8125,596.5,1923.8125,592.5,1919.8125" style="stroke:#383838;stroke-width:1.0;"/><line style="stroke:#383838;stroke-width:1.0;" x1="590.5" x2="938.5" y1="1919.8125" y2="1919.8125"/><text fill="#000000" font-family="sans-serif" font-size="24" font-weight="bold" lengthAdjust="spacing" textLength="26" x="602.5" y="1897.4453">26</text><text fill="#000000" font-family="sans-serif" font-size="24" lengthAdjust="spacing" textLength="197" x="632.5" y="1882.3516">PUT /transfers/{id}</text><text fill="#000000" font-family="sans-serif" font-size="24" lengthAdjust="spacing" textLength="266" x="639.5" y="1912.5391">transferState=ABORTED</text><polygon fill="#383838" points="151.5,1960,141.5,1964,151.5,1968,147.5,1964" style="stroke:#383838;stroke-width:1.0;"/><line style="stroke:#383838;stroke-width:1.0;" x1="145.5" x2="584.5" y1="1964" y2="1964"/><text fill="#000000" font-family="sans-serif" font-size="24" font-weight="bold" lengthAdjust="spacing" textLength="26" x="157.5" y="1956.7266">27</text><text fill="#000000" font-family="sans-serif" font-size="24" lengthAdjust="spacing" textLength="227" x="187.5" y="1956.7266">Transfer failed (sync)</text><!--MD5=[21b2429a3eb3552001866a67698bc545]
@startuml

autonumber
skinparam activityFontSize 4
skinparam activityDiamondFontSize 30
skinparam activityArrowFontSize 24
skinparam defaultFontSize 24
skinparam noteFontSize 24
skinparam monochrome true

participant "DFSP Core Backend" as backend

participant "Payment Manager" as sob

participant "Mojaloop Switch" as sw


== send money ==

    backend -> sob: POST /sendmoney (sync)
    alt Payee not found
    sob -> sw: GET /parties/{type}/{id}
    sw -> sob: PUT /parties/{type}/{id}/error
    sob -> backend: Return error (sync)    
    else Payee DFSP and Payee found
    sob -> sw: GET /parties/{type}/{id}
    sw -> sob: PUT /parties/{type}/{id}
    sob -> backend: Return party info \n HTTP 200 result (sync) 
    end   
    backend -> sob: PUT /sendmoney/{transferId} (sync) \n ("acceptParty": true) 
    sob -> sw: POST /quotes
    alt Quote request fails
    sw -> sob: PUT /quotes/{id}/error
    sob -> backend: Return error (sync)
    else Quote request is successful
    sw -> sob: PUT /quotes/{id}
    sob -> sob: check quote rules
    sob -> backend: Return quote \n HTTP 200 result (sync)
    end
    backend -> sob: PUT /sendmoney/{transferId} (sync) \n ("acceptQuote": true)
    sob -> sw: POST /transfers
    sw -> sw: Perform (NDC) liquidity check
    alt Transfer execution would exceed NDC
    sw -> sob: PUT /transfers/{id}/error
    sob -> backend: Return error (sync)
    else Transfer execution will not exceed NDC
    sw -> sw: Reserve funds
    sw -> sw: Perform validation
    end
    alt Validation successful
    sw -> sw: Commit funds
    sw -> sob: PUT /transfers/{id} \n transferState=COMMITTED
    sob -> backend: Transfer successful \n HTTP 200 result (sync)
    else Validation fails
    sw -> sw: Cancel reserved funds
    sw -> sob: PUT /transfers/{id} \n transferState=ABORTED
    sob -> backend: Transfer failed (sync)
    end

@enduml

PlantUML version 1.2021.00(Sun Jan 10 11:25:05 CET 2021)
(GPL source distribution)
Java Runtime: Java(TM) SE Runtime Environment
JVM: Java HotSpot(TM) 64-Bit Server VM
Default Encoding: Cp1250
Language: en
Country: US
--></g></svg>