<?xml version="1.0" encoding="UTF-8" standalone="no"?><svg xmlns="http://www.w3.org/2000/svg" xmlns:xlink="http://www.w3.org/1999/xlink" contentScriptType="application/ecmascript" contentStyleType="text/css" height="1704px" preserveAspectRatio="none" style="width:1206px;height:1704px;" version="1.1" viewBox="0 0 1206 1704" width="1206px" zoomAndPan="magnify"><defs><filter height="300%" id="f1ij58dusq4c26" width="300%" x="-1" y="-1"><feGaussianBlur result="blurOut" stdDeviation="2.0"/><feColorMatrix in="blurOut" result="blurOut2" type="matrix" values="0 0 0 0 0 0 0 0 0 0 0 0 0 0 0 0 0 0 .4 0"/><feOffset dx="4.0" dy="4.0" in="blurOut2" result="blurOut3"/><feBlend in="SourceGraphic" in2="blurOut3" mode="normal"/></filter></defs><g><rect fill="#FFFFFF" filter="url(#f1ij58dusq4c26)" height="1412.5625" style="stroke:#000000;stroke-width:2.0;" width="1179.5" x="10" y="217.75"/><rect fill="#FFFFFF" height="1276.8125" style="stroke:none;stroke-width:1.0;" width="1179.5" x="10" y="353.5"/><rect fill="#FFFFFF" filter="url(#f1ij58dusq4c26)" height="269.3125" style="stroke:#000000;stroke-width:2.0;" width="909" x="20" y="481.0625"/><rect fill="#FFFFFF" height="133.5625" style="stroke:none;stroke-width:1.0;" width="909" x="20" y="616.8125"/><rect fill="#FFFFFF" filter="url(#f1ij58dusq4c26)" height="282.3125" style="stroke:#000000;stroke-width:2.0;" width="1044.5" x="20" y="865.75"/><rect fill="#FFFFFF" height="146.5625" style="stroke:none;stroke-width:1.0;" width="1044.5" x="20" y="1001.5"/><rect fill="#FFFFFF" filter="url(#f1ij58dusq4c26)" height="461.25" style="stroke:#000000;stroke-width:2.0;" width="1093.5" x="20" y="1162.0625"/><rect fill="#FFFFFF" height="207.9375" style="stroke:none;stroke-width:1.0;" width="1093.5" x="20" y="1415.375"/><line style="stroke:#383838;stroke-width:1.0;stroke-dasharray:5.0,5.0;" x1="150" x2="150" y1="54.1875" y2="1647.3125"/><line style="stroke:#383838;stroke-width:1.0;stroke-dasharray:5.0,5.0;" x1="468.5" x2="468.5" y1="54.1875" y2="1647.3125"/><line style="stroke:#383838;stroke-width:1.0;stroke-dasharray:5.0,5.0;" x1="822" x2="822" y1="54.1875" y2="1647.3125"/><rect fill="#F8F8F8" filter="url(#f1ij58dusq4c26)" height="44.1875" style="stroke:#383838;stroke-width:1.5;" width="237" x="30" y="5"/><text fill="#000000" font-family="sans-serif" font-size="24" lengthAdjust="spacing" textLength="223" x="37" y="36.9141">DFSP Core Backend</text><rect fill="#F8F8F8" filter="url(#f1ij58dusq4c26)" height="44.1875" style="stroke:#383838;stroke-width:1.5;" width="237" x="30" y="1646.3125"/><text fill="#000000" font-family="sans-serif" font-size="24" lengthAdjust="spacing" textLength="223" x="37" y="1678.2266">DFSP Core Backend</text><rect fill="#F8F8F8" filter="url(#f1ij58dusq4c26)" height="44.1875" style="stroke:#383838;stroke-width:1.5;" width="210" x="361.5" y="5"/><text fill="#000000" font-family="sans-serif" font-size="24" lengthAdjust="spacing" textLength="196" x="368.5" y="36.9141">Payment Manager</text><rect fill="#F8F8F8" filter="url(#f1ij58dusq4c26)" height="44.1875" style="stroke:#383838;stroke-width:1.5;" width="210" x="361.5" y="1646.3125"/><text fill="#000000" font-family="sans-serif" font-size="24" lengthAdjust="spacing" textLength="196" x="368.5" y="1678.2266">Payment Manager</text><rect fill="#F8F8F8" filter="url(#f1ij58dusq4c26)" height="44.1875" style="stroke:#383838;stroke-width:1.5;" width="189" x="726" y="5"/><text fill="#000000" font-family="sans-serif" font-size="24" lengthAdjust="spacing" textLength="175" x="733" y="36.9141">Mojaloop Switch</text><rect fill="#F8F8F8" filter="url(#f1ij58dusq4c26)" height="44.1875" style="stroke:#383838;stroke-width:1.5;" width="189" x="726" y="1646.3125"/><text fill="#000000" font-family="sans-serif" font-size="24" lengthAdjust="spacing" textLength="175" x="733" y="1678.2266">Mojaloop Switch</text><rect fill="#EEEEEE" filter="url(#f1ij58dusq4c26)" height="3" style="stroke:#EEEEEE;stroke-width:1.0;" width="1199.5" x="0" y="92.2813"/><line style="stroke:#000000;stroke-width:1.0;" x1="0" x2="1199.5" y1="92.2813" y2="92.2813"/><line style="stroke:#000000;stroke-width:1.0;" x1="0" x2="1199.5" y1="95.2813" y2="95.2813"/><rect fill="#EEEEEE" filter="url(#f1ij58dusq4c26)" height="38.1875" style="stroke:#000000;stroke-width:2.0;" width="161" x="519.25" y="74.1875"/><text fill="#000000" font-family="sans-serif" font-size="24" font-weight="bold" lengthAdjust="spacing" textLength="140" x="525.25" y="103.1016">send money</text><polygon fill="#383838" points="456.5,154.5625,466.5,158.5625,456.5,162.5625,460.5,158.5625" style="stroke:#383838;stroke-width:1.0;"/><line style="stroke:#383838;stroke-width:1.0;" x1="150.5" x2="462.5" y1="158.5625" y2="158.5625"/><text fill="#000000" font-family="sans-serif" font-size="24" font-weight="bold" lengthAdjust="spacing" textLength="13" x="157.5" y="151.2891">1</text><text fill="#000000" font-family="sans-serif" font-size="24" lengthAdjust="spacing" textLength="277" x="174.5" y="151.2891">POST /sendmoney (sync)</text><polygon fill="#383838" points="810.5,198.75,820.5,202.75,810.5,206.75,814.5,202.75" style="stroke:#383838;stroke-width:1.0;"/><line style="stroke:#383838;stroke-width:1.0;" x1="468.5" x2="816.5" y1="202.75" y2="202.75"/><text fill="#000000" font-family="sans-serif" font-size="24" font-weight="bold" lengthAdjust="spacing" textLength="13" x="475.5" y="195.4766">2</text><text fill="#000000" font-family="sans-serif" font-size="24" lengthAdjust="spacing" textLength="246" x="492.5" y="195.4766">GET /parties/{type}/{id}</text><path d="M10,217.75 L83,217.75 L83,239.75 L73,249.75 L10,249.75 L10,217.75 " fill="#EEEEEE" style="stroke:#000000;stroke-width:1.0;"/><rect fill="none" height="1412.5625" style="stroke:#000000;stroke-width:2.0;" width="1179.5" x="10" y="217.75"/><text fill="#000000" font-family="sans-serif" font-size="24" font-weight="bold" lengthAdjust="spacing" textLength="28" x="25" y="243.6641">alt</text><text fill="#000000" font-family="sans-serif" font-size="24" font-weight="bold" lengthAdjust="spacing" textLength="204" x="98" y="244.6641">[Payee not found]</text><polygon fill="#383838" points="479.5,297.3125,469.5,301.3125,479.5,305.3125,475.5,301.3125" style="stroke:#383838;stroke-width:1.0;"/><line style="stroke:#383838;stroke-width:1.0;" x1="473.5" x2="821.5" y1="301.3125" y2="301.3125"/><text fill="#000000" font-family="sans-serif" font-size="24" font-weight="bold" lengthAdjust="spacing" textLength="13" x="485.5" y="294.0391">3</text><text fill="#000000" font-family="sans-serif" font-size="24" lengthAdjust="spacing" textLength="301" x="502.5" y="294.0391">PUT /parties/{type}/{id}/error</text><polygon fill="#383838" points="161.5,341.5,151.5,345.5,161.5,349.5,157.5,345.5" style="stroke:#383838;stroke-width:1.0;"/><line style="stroke:#383838;stroke-width:1.0;" x1="155.5" x2="467.5" y1="345.5" y2="345.5"/><text fill="#000000" font-family="sans-serif" font-size="24" font-weight="bold" lengthAdjust="spacing" textLength="13" x="167.5" y="338.2266">4</text><text fill="#000000" font-family="sans-serif" font-size="24" lengthAdjust="spacing" textLength="203" x="184.5" y="338.2266">Return error (sync)</text><line style="stroke:#000000;stroke-width:1.0;stroke-dasharray:2.0,2.0;" x1="10" x2="1189.5" y1="354.5" y2="354.5"/><text fill="#000000" font-family="sans-serif" font-size="24" font-weight="bold" lengthAdjust="spacing" textLength="355" x="15" y="379.4141">[Payee DFSP and Payee found]</text><polygon fill="#383838" points="479.5,417.875,469.5,421.875,479.5,425.875,475.5,421.875" style="stroke:#383838;stroke-width:1.0;"/><line style="stroke:#383838;stroke-width:1.0;" x1="473.5" x2="821.5" y1="421.875" y2="421.875"/><text fill="#000000" font-family="sans-serif" font-size="24" font-weight="bold" lengthAdjust="spacing" textLength="13" x="485.5" y="414.6016">5</text><text fill="#000000" font-family="sans-serif" font-size="24" lengthAdjust="spacing" textLength="244" x="502.5" y="414.6016">PUT /parties/{type}/{id}</text><polygon fill="#383838" points="810.5,462.0625,820.5,466.0625,810.5,470.0625,814.5,466.0625" style="stroke:#383838;stroke-width:1.0;"/><line style="stroke:#383838;stroke-width:1.0;" x1="468.5" x2="816.5" y1="466.0625" y2="466.0625"/><text fill="#000000" font-family="sans-serif" font-size="24" font-weight="bold" lengthAdjust="spacing" textLength="13" x="475.5" y="458.7891">6</text><text fill="#000000" font-family="sans-serif" font-size="24" lengthAdjust="spacing" textLength="152" x="492.5" y="458.7891">POST /quotes</text><path d="M20,481.0625 L93,481.0625 L93,503.0625 L83,513.0625 L20,513.0625 L20,481.0625 " fill="#EEEEEE" style="stroke:#000000;stroke-width:1.0;"/><rect fill="none" height="269.3125" style="stroke:#000000;stroke-width:2.0;" width="909" x="20" y="481.0625"/><text fill="#000000" font-family="sans-serif" font-size="24" font-weight="bold" lengthAdjust="spacing" textLength="28" x="35" y="506.9766">alt</text><text fill="#000000" font-family="sans-serif" font-size="24" font-weight="bold" lengthAdjust="spacing" textLength="233" x="108" y="507.9766">[Quote request fails]</text><polygon fill="#383838" points="479.5,560.625,469.5,564.625,479.5,568.625,475.5,564.625" style="stroke:#383838;stroke-width:1.0;"/><line style="stroke:#383838;stroke-width:1.0;" x1="473.5" x2="821.5" y1="564.625" y2="564.625"/><text fill="#000000" font-family="sans-serif" font-size="24" font-weight="bold" lengthAdjust="spacing" textLength="13" x="485.5" y="557.3516">7</text><text fill="#000000" font-family="sans-serif" font-size="24" lengthAdjust="spacing" textLength="233" x="502.5" y="557.3516">PUT /quotes/{id}/error</text><polygon fill="#383838" points="161.5,604.8125,151.5,608.8125,161.5,612.8125,157.5,608.8125" style="stroke:#383838;stroke-width:1.0;"/><line style="stroke:#383838;stroke-width:1.0;" x1="155.5" x2="467.5" y1="608.8125" y2="608.8125"/><text fill="#000000" font-family="sans-serif" font-size="24" font-weight="bold" lengthAdjust="spacing" textLength="13" x="167.5" y="601.5391">8</text><text fill="#000000" font-family="sans-serif" font-size="24" lengthAdjust="spacing" textLength="203" x="184.5" y="601.5391">Return error (sync)</text><line style="stroke:#000000;stroke-width:1.0;stroke-dasharray:2.0,2.0;" x1="20" x2="929" y1="617.8125" y2="617.8125"/><text fill="#000000" font-family="sans-serif" font-size="24" font-weight="bold" lengthAdjust="spacing" textLength="335" x="25" y="642.7266">[Quote request is successful]</text><polygon fill="#383838" points="479.5,681.1875,469.5,685.1875,479.5,689.1875,475.5,685.1875" style="stroke:#383838;stroke-width:1.0;"/><line style="stroke:#383838;stroke-width:1.0;" x1="473.5" x2="821.5" y1="685.1875" y2="685.1875"/><text fill="#000000" font-family="sans-serif" font-size="24" font-weight="bold" lengthAdjust="spacing" textLength="13" x="485.5" y="677.9141">9</text><text fill="#000000" font-family="sans-serif" font-size="24" lengthAdjust="spacing" textLength="176" x="502.5" y="677.9141">PUT /quotes/{id}</text><line style="stroke:#383838;stroke-width:1.0;" x1="468.5" x2="510.5" y1="729.375" y2="729.375"/><line style="stroke:#383838;stroke-width:1.0;" x1="510.5" x2="510.5" y1="729.375" y2="742.375"/><line style="stroke:#383838;stroke-width:1.0;" x1="469.5" x2="510.5" y1="742.375" y2="742.375"/><polygon fill="#383838" points="479.5,738.375,469.5,742.375,479.5,746.375,475.5,742.375" style="stroke:#383838;stroke-width:1.0;"/><text fill="#000000" font-family="sans-serif" font-size="24" font-weight="bold" lengthAdjust="spacing" textLength="26" x="475.5" y="722.1016">10</text><text fill="#000000" font-family="sans-serif" font-size="24" lengthAdjust="spacing" textLength="191" x="505.5" y="722.1016">check quote rules</text><polygon fill="#383838" points="810.5,789.5625,820.5,793.5625,810.5,797.5625,814.5,793.5625" style="stroke:#383838;stroke-width:1.0;"/><line style="stroke:#383838;stroke-width:1.0;" x1="468.5" x2="816.5" y1="793.5625" y2="793.5625"/><text fill="#000000" font-family="sans-serif" font-size="24" font-weight="bold" lengthAdjust="spacing" textLength="26" x="475.5" y="786.2891">11</text><text fill="#000000" font-family="sans-serif" font-size="24" lengthAdjust="spacing" textLength="173" x="505.5" y="786.2891">POST /transfers</text><line style="stroke:#383838;stroke-width:1.0;" x1="822.5" x2="864.5" y1="837.75" y2="837.75"/><line style="stroke:#383838;stroke-width:1.0;" x1="864.5" x2="864.5" y1="837.75" y2="850.75"/><line style="stroke:#383838;stroke-width:1.0;" x1="823.5" x2="864.5" y1="850.75" y2="850.75"/><polygon fill="#383838" points="833.5,846.75,823.5,850.75,833.5,854.75,829.5,850.75" style="stroke:#383838;stroke-width:1.0;"/><text fill="#000000" font-family="sans-serif" font-size="24" font-weight="bold" lengthAdjust="spacing" textLength="26" x="829.5" y="830.4766">12</text><text fill="#000000" font-family="sans-serif" font-size="24" lengthAdjust="spacing" textLength="318" x="859.5" y="830.4766">Perform (NDC) liquidity check</text><path d="M20,865.75 L93,865.75 L93,887.75 L83,897.75 L20,897.75 L20,865.75 " fill="#EEEEEE" style="stroke:#000000;stroke-width:1.0;"/><rect fill="none" height="282.3125" style="stroke:#000000;stroke-width:2.0;" width="1044.5" x="20" y="865.75"/><text fill="#000000" font-family="sans-serif" font-size="24" font-weight="bold" lengthAdjust="spacing" textLength="28" x="35" y="891.6641">alt</text><text fill="#000000" font-family="sans-serif" font-size="24" font-weight="bold" lengthAdjust="spacing" textLength="453" x="108" y="892.6641">[Transfer execution would exceed NDC]</text><polygon fill="#383838" points="479.5,945.3125,469.5,949.3125,479.5,953.3125,475.5,949.3125" style="stroke:#383838;stroke-width:1.0;"/><line style="stroke:#383838;stroke-width:1.0;" x1="473.5" x2="821.5" y1="949.3125" y2="949.3125"/><text fill="#000000" font-family="sans-serif" font-size="24" font-weight="bold" lengthAdjust="spacing" textLength="26" x="485.5" y="942.0391">13</text><text fill="#000000" font-family="sans-serif" font-size="24" lengthAdjust="spacing" textLength="254" x="515.5" y="942.0391">PUT /transfers/{id}/error</text><polygon fill="#383838" points="161.5,989.5,151.5,993.5,161.5,997.5,157.5,993.5" style="stroke:#383838;stroke-width:1.0;"/><line style="stroke:#383838;stroke-width:1.0;" x1="155.5" x2="467.5" y1="993.5" y2="993.5"/><text fill="#000000" font-family="sans-serif" font-size="24" font-weight="bold" lengthAdjust="spacing" textLength="26" x="167.5" y="986.2266">14</text><text fill="#000000" font-family="sans-serif" font-size="24" lengthAdjust="spacing" textLength="203" x="197.5" y="986.2266">Return error (sync)</text><line style="stroke:#000000;stroke-width:1.0;stroke-dasharray:2.0,2.0;" x1="20" x2="1064.5" y1="1002.5" y2="1002.5"/><text fill="#000000" font-family="sans-serif" font-size="24" font-weight="bold" lengthAdjust="spacing" textLength="467" x="25" y="1027.4141">[Transfer execution will not exceed NDC]</text><line style="stroke:#383838;stroke-width:1.0;" x1="822.5" x2="864.5" y1="1069.875" y2="1069.875"/><line style="stroke:#383838;stroke-width:1.0;" x1="864.5" x2="864.5" y1="1069.875" y2="1082.875"/><line style="stroke:#383838;stroke-width:1.0;" x1="823.5" x2="864.5" y1="1082.875" y2="1082.875"/><polygon fill="#383838" points="833.5,1078.875,823.5,1082.875,833.5,1086.875,829.5,1082.875" style="stroke:#383838;stroke-width:1.0;"/><text fill="#000000" font-family="sans-serif" font-size="24" font-weight="bold" lengthAdjust="spacing" textLength="26" x="829.5" y="1062.6016">15</text><text fill="#000000" font-family="sans-serif" font-size="24" lengthAdjust="spacing" textLength="155" x="859.5" y="1062.6016">Reserve funds</text><line style="stroke:#383838;stroke-width:1.0;" x1="822.5" x2="864.5" y1="1127.0625" y2="1127.0625"/><line style="stroke:#383838;stroke-width:1.0;" x1="864.5" x2="864.5" y1="1127.0625" y2="1140.0625"/><line style="stroke:#383838;stroke-width:1.0;" x1="823.5" x2="864.5" y1="1140.0625" y2="1140.0625"/><polygon fill="#383838" points="833.5,1136.0625,823.5,1140.0625,833.5,1144.0625,829.5,1140.0625" style="stroke:#383838;stroke-width:1.0;"/><text fill="#000000" font-family="sans-serif" font-size="24" font-weight="bold" lengthAdjust="spacing" textLength="26" x="829.5" y="1119.7891">16</text><text fill="#000000" font-family="sans-serif" font-size="24" lengthAdjust="spacing" textLength="193" x="859.5" y="1119.7891">Perform validation</text><path d="M20,1162.0625 L93,1162.0625 L93,1184.0625 L83,1194.0625 L20,1194.0625 L20,1162.0625 " fill="#EEEEEE" style="stroke:#000000;stroke-width:1.0;"/><rect fill="none" height="461.25" style="stroke:#000000;stroke-width:2.0;" width="1093.5" x="20" y="1162.0625"/><text fill="#000000" font-family="sans-serif" font-size="24" font-weight="bold" lengthAdjust="spacing" textLength="28" x="35" y="1187.9766">alt</text><text fill="#000000" font-family="sans-serif" font-size="24" font-weight="bold" lengthAdjust="spacing" textLength="262" x="108" y="1188.9766">[Validation successful]</text><line style="stroke:#383838;stroke-width:1.0;" x1="822.5" x2="864.5" y1="1245.625" y2="1245.625"/><line style="stroke:#383838;stroke-width:1.0;" x1="864.5" x2="864.5" y1="1245.625" y2="1258.625"/><line style="stroke:#383838;stroke-width:1.0;" x1="823.5" x2="864.5" y1="1258.625" y2="1258.625"/><polygon fill="#383838" points="833.5,1254.625,823.5,1258.625,833.5,1262.625,829.5,1258.625" style="stroke:#383838;stroke-width:1.0;"/><text fill="#000000" font-family="sans-serif" font-size="24" font-weight="bold" lengthAdjust="spacing" textLength="26" x="829.5" y="1238.3516">17</text><text fill="#000000" font-family="sans-serif" font-size="24" lengthAdjust="spacing" textLength="150" x="859.5" y="1238.3516">Commit funds</text><polygon fill="#383838" points="479.5,1329,469.5,1333,479.5,1337,475.5,1333" style="stroke:#383838;stroke-width:1.0;"/><line style="stroke:#383838;stroke-width:1.0;" x1="473.5" x2="821.5" y1="1333" y2="1333"/><text fill="#000000" font-family="sans-serif" font-size="24" font-weight="bold" lengthAdjust="spacing" textLength="26" x="485.5" y="1310.6328">18</text><text fill="#000000" font-family="sans-serif" font-size="24" lengthAdjust="spacing" textLength="197" x="515.5" y="1295.5391">PUT /transfers/{id}</text><text fill="#000000" font-family="sans-serif" font-size="24" lengthAdjust="spacing" textLength="293" x="522.5" y="1325.7266">transferState=COMMITTED</text><polygon fill="#383838" points="161.5,1403.375,151.5,1407.375,161.5,1411.375,157.5,1407.375" style="stroke:#383838;stroke-width:1.0;"/><line style="stroke:#383838;stroke-width:1.0;" x1="155.5" x2="467.5" y1="1407.375" y2="1407.375"/><text fill="#000000" font-family="sans-serif" font-size="24" font-weight="bold" lengthAdjust="spacing" textLength="26" x="167.5" y="1385.0078">19</text><text fill="#000000" font-family="sans-serif" font-size="24" lengthAdjust="spacing" textLength="210" x="197.5" y="1369.9141">Transfer successful</text><text fill="#000000" font-family="sans-serif" font-size="24" lengthAdjust="spacing" textLength="247" x="204.5" y="1400.1016">HTTP 200 result (sync)</text><line style="stroke:#000000;stroke-width:1.0;stroke-dasharray:2.0,2.0;" x1="20" x2="1113.5" y1="1416.375" y2="1416.375"/><text fill="#000000" font-family="sans-serif" font-size="24" font-weight="bold" lengthAdjust="spacing" textLength="187" x="25" y="1441.2891">[Validation fails]</text><line style="stroke:#383838;stroke-width:1.0;" x1="822.5" x2="864.5" y1="1483.75" y2="1483.75"/><line style="stroke:#383838;stroke-width:1.0;" x1="864.5" x2="864.5" y1="1483.75" y2="1496.75"/><line style="stroke:#383838;stroke-width:1.0;" x1="823.5" x2="864.5" y1="1496.75" y2="1496.75"/><polygon fill="#383838" points="833.5,1492.75,823.5,1496.75,833.5,1500.75,829.5,1496.75" style="stroke:#383838;stroke-width:1.0;"/><text fill="#000000" font-family="sans-serif" font-size="24" font-weight="bold" lengthAdjust="spacing" textLength="26" x="829.5" y="1476.4766">20</text><text fill="#000000" font-family="sans-serif" font-size="24" lengthAdjust="spacing" textLength="242" x="859.5" y="1476.4766">Cancel reserved funds</text><polygon fill="#383838" points="479.5,1567.125,469.5,1571.125,479.5,1575.125,475.5,1571.125" style="stroke:#383838;stroke-width:1.0;"/><line style="stroke:#383838;stroke-width:1.0;" x1="473.5" x2="821.5" y1="1571.125" y2="1571.125"/><text fill="#000000" font-family="sans-serif" font-size="24" font-weight="bold" lengthAdjust="spacing" textLength="26" x="485.5" y="1548.7578">21</text><text fill="#000000" font-family="sans-serif" font-size="24" lengthAdjust="spacing" textLength="197" x="515.5" y="1533.6641">PUT /transfers/{id}</text><text fill="#000000" font-family="sans-serif" font-size="24" lengthAdjust="spacing" textLength="266" x="522.5" y="1563.8516">transferState=ABORTED</text><polygon fill="#383838" points="161.5,1611.3125,151.5,1615.3125,161.5,1619.3125,157.5,1615.3125" style="stroke:#383838;stroke-width:1.0;"/><line style="stroke:#383838;stroke-width:1.0;" x1="155.5" x2="467.5" y1="1615.3125" y2="1615.3125"/><text fill="#000000" font-family="sans-serif" font-size="24" font-weight="bold" lengthAdjust="spacing" textLength="26" x="167.5" y="1608.0391">22</text><text fill="#000000" font-family="sans-serif" font-size="24" lengthAdjust="spacing" textLength="227" x="197.5" y="1608.0391">Transfer failed (sync)</text><!--MD5=[9c8f6ab299dda6b10637ccbfbf5f5467]
@startuml

autonumber
skinparam activityFontSize 4
skinparam activityDiamondFontSize 30
skinparam activityArrowFontSize 24
skinparam defaultFontSize 24
skinparam noteFontSize 24
skinparam monochrome true

participant "DFSP Core Backend" as backend

participant "Payment Manager" as sob

participant "Mojaloop Switch" as sw


== send money ==

    backend -> sob: POST /sendmoney (sync)
    sob -> sw: GET /parties/{type}/{id}
    alt Payee not found
    sw -> sob: PUT /parties/{type}/{id}/error
    sob -> backend: Return error (sync)
    else Payee DFSP and Payee found
    sw -> sob: PUT /parties/{type}/{id}
    sob -> sw: POST /quotes
    alt Quote request fails
    sw -> sob: PUT /quotes/{id}/error
    sob -> backend: Return error (sync)
    else Quote request is successful
    sw -> sob: PUT /quotes/{id}
    sob -> sob: check quote rules
    end
    sob -> sw: POST /transfers
    sw -> sw: Perform (NDC) liquidity check
    alt Transfer execution would exceed NDC
    sw -> sob: PUT /transfers/{id}/error
    sob -> backend: Return error (sync)
    else Transfer execution will not exceed NDC
    sw -> sw: Reserve funds
    sw -> sw: Perform validation
    end
    alt Validation successful
    sw -> sw: Commit funds
    sw -> sob: PUT /transfers/{id} \n transferState=COMMITTED
    sob -> backend: Transfer successful \n HTTP 200 result (sync)
    else Validation fails
    sw -> sw: Cancel reserved funds
    sw -> sob: PUT /transfers/{id} \n transferState=ABORTED
    sob -> backend: Transfer failed (sync)
    end

    end

@enduml

PlantUML version 1.2021.00(Sun Jan 10 11:25:05 CET 2021)
(GPL source distribution)
Java Runtime: Java(TM) SE Runtime Environment
JVM: Java HotSpot(TM) 64-Bit Server VM
Default Encoding: Cp1250
Language: en
Country: US
--></g></svg>