<?xml version="1.0" encoding="UTF-8" standalone="no"?><svg xmlns="http://www.w3.org/2000/svg" xmlns:xlink="http://www.w3.org/1999/xlink" contentScriptType="application/ecmascript" contentStyleType="text/css" height="1825px" preserveAspectRatio="none" style="width:1206px;height:1825px;" version="1.1" viewBox="0 0 1206 1825" width="1206px" zoomAndPan="magnify"><defs><filter height="300%" id="f75tdvc9gcfry" width="300%" x="-1" y="-1"><feGaussianBlur result="blurOut" stdDeviation="2.0"/><feColorMatrix in="blurOut" result="blurOut2" type="matrix" values="0 0 0 0 0 0 0 0 0 0 0 0 0 0 0 0 0 0 .4 0"/><feOffset dx="4.0" dy="4.0" in="blurOut2" result="blurOut3"/><feBlend in="SourceGraphic" in2="blurOut3" mode="normal"/></filter></defs><g><rect fill="#FFFFFF" filter="url(#f75tdvc9gcfry)" height="1533.3125" style="stroke:#000000;stroke-width:2.0;" width="1179.5" x="10" y="217.75"/><rect fill="#FFFFFF" height="1367.375" style="stroke:none;stroke-width:1.0;" width="1179.5" x="10" y="383.6875"/><rect fill="#FFFFFF" filter="url(#f75tdvc9gcfry)" height="299.5" style="stroke:#000000;stroke-width:2.0;" width="909" x="20" y="511.25"/><rect fill="#FFFFFF" height="133.5625" style="stroke:none;stroke-width:1.0;" width="909" x="20" y="677.1875"/><rect fill="#FFFFFF" filter="url(#f75tdvc9gcfry)" height="312.5" style="stroke:#000000;stroke-width:2.0;" width="1044.5" x="20" y="926.125"/><rect fill="#FFFFFF" height="146.5625" style="stroke:none;stroke-width:1.0;" width="1044.5" x="20" y="1092.0625"/><rect fill="#FFFFFF" filter="url(#f75tdvc9gcfry)" height="491.4375" style="stroke:#000000;stroke-width:2.0;" width="1093.5" x="20" y="1252.625"/><rect fill="#FFFFFF" height="238.125" style="stroke:none;stroke-width:1.0;" width="1093.5" x="20" y="1505.9375"/><line style="stroke:#383838;stroke-width:1.0;stroke-dasharray:5.0,5.0;" x1="150" x2="150" y1="54.1875" y2="1768.0625"/><line style="stroke:#383838;stroke-width:1.0;stroke-dasharray:5.0,5.0;" x1="468.5" x2="468.5" y1="54.1875" y2="1768.0625"/><line style="stroke:#383838;stroke-width:1.0;stroke-dasharray:5.0,5.0;" x1="822" x2="822" y1="54.1875" y2="1768.0625"/><rect fill="#F8F8F8" filter="url(#f75tdvc9gcfry)" height="44.1875" style="stroke:#383838;stroke-width:1.5;" width="237" x="30" y="5"/><text fill="#000000" font-family="sans-serif" font-size="24" lengthAdjust="spacing" textLength="223" x="37" y="36.9141">DFSP Core Backend</text><rect fill="#F8F8F8" filter="url(#f75tdvc9gcfry)" height="44.1875" style="stroke:#383838;stroke-width:1.5;" width="237" x="30" y="1767.0625"/><text fill="#000000" font-family="sans-serif" font-size="24" lengthAdjust="spacing" textLength="223" x="37" y="1798.9766">DFSP Core Backend</text><rect fill="#F8F8F8" filter="url(#f75tdvc9gcfry)" height="44.1875" style="stroke:#383838;stroke-width:1.5;" width="210" x="361.5" y="5"/><text fill="#000000" font-family="sans-serif" font-size="24" lengthAdjust="spacing" textLength="196" x="368.5" y="36.9141">Payment Manager</text><rect fill="#F8F8F8" filter="url(#f75tdvc9gcfry)" height="44.1875" style="stroke:#383838;stroke-width:1.5;" width="210" x="361.5" y="1767.0625"/><text fill="#000000" font-family="sans-serif" font-size="24" lengthAdjust="spacing" textLength="196" x="368.5" y="1798.9766">Payment Manager</text><rect fill="#F8F8F8" filter="url(#f75tdvc9gcfry)" height="44.1875" style="stroke:#383838;stroke-width:1.5;" width="189" x="726" y="5"/><text fill="#000000" font-family="sans-serif" font-size="24" lengthAdjust="spacing" textLength="175" x="733" y="36.9141">Mojaloop Switch</text><rect fill="#F8F8F8" filter="url(#f75tdvc9gcfry)" height="44.1875" style="stroke:#383838;stroke-width:1.5;" width="189" x="726" y="1767.0625"/><text fill="#000000" font-family="sans-serif" font-size="24" lengthAdjust="spacing" textLength="175" x="733" y="1798.9766">Mojaloop Switch</text><rect fill="#EEEEEE" filter="url(#f75tdvc9gcfry)" height="3" style="stroke:#EEEEEE;stroke-width:1.0;" width="1199.5" x="0" y="92.2813"/><line style="stroke:#000000;stroke-width:1.0;" x1="0" x2="1199.5" y1="92.2813" y2="92.2813"/><line style="stroke:#000000;stroke-width:1.0;" x1="0" x2="1199.5" y1="95.2813" y2="95.2813"/><rect fill="#EEEEEE" filter="url(#f75tdvc9gcfry)" height="38.1875" style="stroke:#000000;stroke-width:2.0;" width="161" x="519.25" y="74.1875"/><text fill="#000000" font-family="sans-serif" font-size="24" font-weight="bold" lengthAdjust="spacing" textLength="140" x="525.25" y="103.1016">send money</text><polygon fill="#383838" points="456.5,154.5625,466.5,158.5625,456.5,162.5625,460.5,158.5625" style="stroke:#383838;stroke-width:1.0;"/><line style="stroke:#383838;stroke-width:1.0;" x1="150.5" x2="462.5" y1="158.5625" y2="158.5625"/><text fill="#000000" font-family="sans-serif" font-size="24" font-weight="bold" lengthAdjust="spacing" textLength="13" x="157.5" y="151.2891">1</text><text fill="#000000" font-family="sans-serif" font-size="24" lengthAdjust="spacing" textLength="277" x="174.5" y="151.2891">POST /sendmoney (sync)</text><polygon fill="#383838" points="810.5,198.75,820.5,202.75,810.5,206.75,814.5,202.75" style="stroke:#383838;stroke-width:1.0;"/><line style="stroke:#383838;stroke-width:1.0;" x1="468.5" x2="816.5" y1="202.75" y2="202.75"/><text fill="#000000" font-family="sans-serif" font-size="24" font-weight="bold" lengthAdjust="spacing" textLength="13" x="475.5" y="195.4766">2</text><text fill="#000000" font-family="sans-serif" font-size="24" lengthAdjust="spacing" textLength="246" x="492.5" y="195.4766">GET /parties/{type}/{id}</text><path d="M10,217.75 L83,217.75 L83,239.75 L73,249.75 L10,249.75 L10,217.75 " fill="#EEEEEE" style="stroke:#000000;stroke-width:1.0;"/><rect fill="none" height="1533.3125" style="stroke:#000000;stroke-width:2.0;" width="1179.5" x="10" y="217.75"/><text fill="#000000" font-family="sans-serif" font-size="24" font-weight="bold" lengthAdjust="spacing" textLength="28" x="25" y="243.6641">alt</text><text fill="#000000" font-family="sans-serif" font-size="24" font-weight="bold" lengthAdjust="spacing" textLength="204" x="98" y="244.6641">[Payee not found]</text><polygon fill="#383838" points="479.5,297.3125,469.5,301.3125,479.5,305.3125,475.5,301.3125" style="stroke:#383838;stroke-width:1.0;"/><line style="stroke:#383838;stroke-width:1.0;" x1="473.5" x2="821.5" y1="301.3125" y2="301.3125"/><text fill="#000000" font-family="sans-serif" font-size="24" font-weight="bold" lengthAdjust="spacing" textLength="13" x="485.5" y="294.0391">3</text><text fill="#000000" font-family="sans-serif" font-size="24" lengthAdjust="spacing" textLength="301" x="502.5" y="294.0391">PUT /parties/{type}/{id}/error</text><polygon fill="#383838" points="161.5,371.6875,151.5,375.6875,161.5,379.6875,157.5,375.6875" style="stroke:#383838;stroke-width:1.0;"/><line style="stroke:#383838;stroke-width:1.0;" x1="155.5" x2="467.5" y1="375.6875" y2="375.6875"/><text fill="#000000" font-family="sans-serif" font-size="24" font-weight="bold" lengthAdjust="spacing" textLength="13" x="167.5" y="353.3203">4</text><text fill="#000000" font-family="sans-serif" font-size="24" lengthAdjust="spacing" textLength="130" x="184.5" y="338.2266">Return error</text><text fill="#000000" font-family="sans-serif" font-size="24" lengthAdjust="spacing" textLength="247" x="191.5" y="368.4141">HTTP 200 result (sync)</text><line style="stroke:#000000;stroke-width:1.0;stroke-dasharray:2.0,2.0;" x1="10" x2="1189.5" y1="384.6875" y2="384.6875"/><text fill="#000000" font-family="sans-serif" font-size="24" font-weight="bold" lengthAdjust="spacing" textLength="355" x="15" y="409.6016">[Payee DFSP and Payee found]</text><polygon fill="#383838" points="479.5,448.0625,469.5,452.0625,479.5,456.0625,475.5,452.0625" style="stroke:#383838;stroke-width:1.0;"/><line style="stroke:#383838;stroke-width:1.0;" x1="473.5" x2="821.5" y1="452.0625" y2="452.0625"/><text fill="#000000" font-family="sans-serif" font-size="24" font-weight="bold" lengthAdjust="spacing" textLength="13" x="485.5" y="444.7891">5</text><text fill="#000000" font-family="sans-serif" font-size="24" lengthAdjust="spacing" textLength="244" x="502.5" y="444.7891">PUT /parties/{type}/{id}</text><polygon fill="#383838" points="810.5,492.25,820.5,496.25,810.5,500.25,814.5,496.25" style="stroke:#383838;stroke-width:1.0;"/><line style="stroke:#383838;stroke-width:1.0;" x1="468.5" x2="816.5" y1="496.25" y2="496.25"/><text fill="#000000" font-family="sans-serif" font-size="24" font-weight="bold" lengthAdjust="spacing" textLength="13" x="475.5" y="488.9766">6</text><text fill="#000000" font-family="sans-serif" font-size="24" lengthAdjust="spacing" textLength="152" x="492.5" y="488.9766">POST /quotes</text><path d="M20,511.25 L93,511.25 L93,533.25 L83,543.25 L20,543.25 L20,511.25 " fill="#EEEEEE" style="stroke:#000000;stroke-width:1.0;"/><rect fill="none" height="299.5" style="stroke:#000000;stroke-width:2.0;" width="909" x="20" y="511.25"/><text fill="#000000" font-family="sans-serif" font-size="24" font-weight="bold" lengthAdjust="spacing" textLength="28" x="35" y="537.1641">alt</text><text fill="#000000" font-family="sans-serif" font-size="24" font-weight="bold" lengthAdjust="spacing" textLength="233" x="108" y="538.1641">[Quote request fails]</text><polygon fill="#383838" points="479.5,590.8125,469.5,594.8125,479.5,598.8125,475.5,594.8125" style="stroke:#383838;stroke-width:1.0;"/><line style="stroke:#383838;stroke-width:1.0;" x1="473.5" x2="821.5" y1="594.8125" y2="594.8125"/><text fill="#000000" font-family="sans-serif" font-size="24" font-weight="bold" lengthAdjust="spacing" textLength="13" x="485.5" y="587.5391">7</text><text fill="#000000" font-family="sans-serif" font-size="24" lengthAdjust="spacing" textLength="233" x="502.5" y="587.5391">PUT /quotes/{id}/error</text><polygon fill="#383838" points="161.5,665.1875,151.5,669.1875,161.5,673.1875,157.5,669.1875" style="stroke:#383838;stroke-width:1.0;"/><line style="stroke:#383838;stroke-width:1.0;" x1="155.5" x2="467.5" y1="669.1875" y2="669.1875"/><text fill="#000000" font-family="sans-serif" font-size="24" font-weight="bold" lengthAdjust="spacing" textLength="13" x="167.5" y="646.8203">8</text><text fill="#000000" font-family="sans-serif" font-size="24" lengthAdjust="spacing" textLength="130" x="184.5" y="631.7266">Return error</text><text fill="#000000" font-family="sans-serif" font-size="24" lengthAdjust="spacing" textLength="247" x="191.5" y="661.9141">HTTP 200 result (sync)</text><line style="stroke:#000000;stroke-width:1.0;stroke-dasharray:2.0,2.0;" x1="20" x2="929" y1="678.1875" y2="678.1875"/><text fill="#000000" font-family="sans-serif" font-size="24" font-weight="bold" lengthAdjust="spacing" textLength="335" x="25" y="703.1016">[Quote request is successful]</text><polygon fill="#383838" points="479.5,741.5625,469.5,745.5625,479.5,749.5625,475.5,745.5625" style="stroke:#383838;stroke-width:1.0;"/><line style="stroke:#383838;stroke-width:1.0;" x1="473.5" x2="821.5" y1="745.5625" y2="745.5625"/><text fill="#000000" font-family="sans-serif" font-size="24" font-weight="bold" lengthAdjust="spacing" textLength="13" x="485.5" y="738.2891">9</text><text fill="#000000" font-family="sans-serif" font-size="24" lengthAdjust="spacing" textLength="176" x="502.5" y="738.2891">PUT /quotes/{id}</text><line style="stroke:#383838;stroke-width:1.0;" x1="468.5" x2="510.5" y1="789.75" y2="789.75"/><line style="stroke:#383838;stroke-width:1.0;" x1="510.5" x2="510.5" y1="789.75" y2="802.75"/><line style="stroke:#383838;stroke-width:1.0;" x1="469.5" x2="510.5" y1="802.75" y2="802.75"/><polygon fill="#383838" points="479.5,798.75,469.5,802.75,479.5,806.75,475.5,802.75" style="stroke:#383838;stroke-width:1.0;"/><text fill="#000000" font-family="sans-serif" font-size="24" font-weight="bold" lengthAdjust="spacing" textLength="26" x="475.5" y="782.4766">10</text><text fill="#000000" font-family="sans-serif" font-size="24" lengthAdjust="spacing" textLength="191" x="505.5" y="782.4766">check quote rules</text><polygon fill="#383838" points="810.5,849.9375,820.5,853.9375,810.5,857.9375,814.5,853.9375" style="stroke:#383838;stroke-width:1.0;"/><line style="stroke:#383838;stroke-width:1.0;" x1="468.5" x2="816.5" y1="853.9375" y2="853.9375"/><text fill="#000000" font-family="sans-serif" font-size="24" font-weight="bold" lengthAdjust="spacing" textLength="26" x="475.5" y="846.6641">11</text><text fill="#000000" font-family="sans-serif" font-size="24" lengthAdjust="spacing" textLength="173" x="505.5" y="846.6641">POST /transfers</text><line style="stroke:#383838;stroke-width:1.0;" x1="822.5" x2="864.5" y1="898.125" y2="898.125"/><line style="stroke:#383838;stroke-width:1.0;" x1="864.5" x2="864.5" y1="898.125" y2="911.125"/><line style="stroke:#383838;stroke-width:1.0;" x1="823.5" x2="864.5" y1="911.125" y2="911.125"/><polygon fill="#383838" points="833.5,907.125,823.5,911.125,833.5,915.125,829.5,911.125" style="stroke:#383838;stroke-width:1.0;"/><text fill="#000000" font-family="sans-serif" font-size="24" font-weight="bold" lengthAdjust="spacing" textLength="26" x="829.5" y="890.8516">12</text><text fill="#000000" font-family="sans-serif" font-size="24" lengthAdjust="spacing" textLength="318" x="859.5" y="890.8516">Perform (NDC) liquidity check</text><path d="M20,926.125 L93,926.125 L93,948.125 L83,958.125 L20,958.125 L20,926.125 " fill="#EEEEEE" style="stroke:#000000;stroke-width:1.0;"/><rect fill="none" height="312.5" style="stroke:#000000;stroke-width:2.0;" width="1044.5" x="20" y="926.125"/><text fill="#000000" font-family="sans-serif" font-size="24" font-weight="bold" lengthAdjust="spacing" textLength="28" x="35" y="952.0391">alt</text><text fill="#000000" font-family="sans-serif" font-size="24" font-weight="bold" lengthAdjust="spacing" textLength="453" x="108" y="953.0391">[Transfer execution would exceed NDC]</text><polygon fill="#383838" points="479.5,1005.6875,469.5,1009.6875,479.5,1013.6875,475.5,1009.6875" style="stroke:#383838;stroke-width:1.0;"/><line style="stroke:#383838;stroke-width:1.0;" x1="473.5" x2="821.5" y1="1009.6875" y2="1009.6875"/><text fill="#000000" font-family="sans-serif" font-size="24" font-weight="bold" lengthAdjust="spacing" textLength="26" x="485.5" y="1002.4141">13</text><text fill="#000000" font-family="sans-serif" font-size="24" lengthAdjust="spacing" textLength="254" x="515.5" y="1002.4141">PUT /transfers/{id}/error</text><polygon fill="#383838" points="161.5,1080.0625,151.5,1084.0625,161.5,1088.0625,157.5,1084.0625" style="stroke:#383838;stroke-width:1.0;"/><line style="stroke:#383838;stroke-width:1.0;" x1="155.5" x2="467.5" y1="1084.0625" y2="1084.0625"/><text fill="#000000" font-family="sans-serif" font-size="24" font-weight="bold" lengthAdjust="spacing" textLength="26" x="167.5" y="1061.6953">14</text><text fill="#000000" font-family="sans-serif" font-size="24" lengthAdjust="spacing" textLength="130" x="197.5" y="1046.6016">Return error</text><text fill="#000000" font-family="sans-serif" font-size="24" lengthAdjust="spacing" textLength="247" x="204.5" y="1076.7891">HTTP 200 result (sync)</text><line style="stroke:#000000;stroke-width:1.0;stroke-dasharray:2.0,2.0;" x1="20" x2="1064.5" y1="1093.0625" y2="1093.0625"/><text fill="#000000" font-family="sans-serif" font-size="24" font-weight="bold" lengthAdjust="spacing" textLength="467" x="25" y="1117.9766">[Transfer execution will not exceed NDC]</text><line style="stroke:#383838;stroke-width:1.0;" x1="822.5" x2="864.5" y1="1160.4375" y2="1160.4375"/><line style="stroke:#383838;stroke-width:1.0;" x1="864.5" x2="864.5" y1="1160.4375" y2="1173.4375"/><line style="stroke:#383838;stroke-width:1.0;" x1="823.5" x2="864.5" y1="1173.4375" y2="1173.4375"/><polygon fill="#383838" points="833.5,1169.4375,823.5,1173.4375,833.5,1177.4375,829.5,1173.4375" style="stroke:#383838;stroke-width:1.0;"/><text fill="#000000" font-family="sans-serif" font-size="24" font-weight="bold" lengthAdjust="spacing" textLength="26" x="829.5" y="1153.1641">15</text><text fill="#000000" font-family="sans-serif" font-size="24" lengthAdjust="spacing" textLength="155" x="859.5" y="1153.1641">Reserve funds</text><line style="stroke:#383838;stroke-width:1.0;" x1="822.5" x2="864.5" y1="1217.625" y2="1217.625"/><line style="stroke:#383838;stroke-width:1.0;" x1="864.5" x2="864.5" y1="1217.625" y2="1230.625"/><line style="stroke:#383838;stroke-width:1.0;" x1="823.5" x2="864.5" y1="1230.625" y2="1230.625"/><polygon fill="#383838" points="833.5,1226.625,823.5,1230.625,833.5,1234.625,829.5,1230.625" style="stroke:#383838;stroke-width:1.0;"/><text fill="#000000" font-family="sans-serif" font-size="24" font-weight="bold" lengthAdjust="spacing" textLength="26" x="829.5" y="1210.3516">16</text><text fill="#000000" font-family="sans-serif" font-size="24" lengthAdjust="spacing" textLength="193" x="859.5" y="1210.3516">Perform validation</text><path d="M20,1252.625 L93,1252.625 L93,1274.625 L83,1284.625 L20,1284.625 L20,1252.625 " fill="#EEEEEE" style="stroke:#000000;stroke-width:1.0;"/><rect fill="none" height="491.4375" style="stroke:#000000;stroke-width:2.0;" width="1093.5" x="20" y="1252.625"/><text fill="#000000" font-family="sans-serif" font-size="24" font-weight="bold" lengthAdjust="spacing" textLength="28" x="35" y="1278.5391">alt</text><text fill="#000000" font-family="sans-serif" font-size="24" font-weight="bold" lengthAdjust="spacing" textLength="262" x="108" y="1279.5391">[Validation successful]</text><line style="stroke:#383838;stroke-width:1.0;" x1="822.5" x2="864.5" y1="1336.1875" y2="1336.1875"/><line style="stroke:#383838;stroke-width:1.0;" x1="864.5" x2="864.5" y1="1336.1875" y2="1349.1875"/><line style="stroke:#383838;stroke-width:1.0;" x1="823.5" x2="864.5" y1="1349.1875" y2="1349.1875"/><polygon fill="#383838" points="833.5,1345.1875,823.5,1349.1875,833.5,1353.1875,829.5,1349.1875" style="stroke:#383838;stroke-width:1.0;"/><text fill="#000000" font-family="sans-serif" font-size="24" font-weight="bold" lengthAdjust="spacing" textLength="26" x="829.5" y="1328.9141">17</text><text fill="#000000" font-family="sans-serif" font-size="24" lengthAdjust="spacing" textLength="150" x="859.5" y="1328.9141">Commit funds</text><polygon fill="#383838" points="479.5,1419.5625,469.5,1423.5625,479.5,1427.5625,475.5,1423.5625" style="stroke:#383838;stroke-width:1.0;"/><line style="stroke:#383838;stroke-width:1.0;" x1="473.5" x2="821.5" y1="1423.5625" y2="1423.5625"/><text fill="#000000" font-family="sans-serif" font-size="24" font-weight="bold" lengthAdjust="spacing" textLength="26" x="485.5" y="1401.1953">18</text><text fill="#000000" font-family="sans-serif" font-size="24" lengthAdjust="spacing" textLength="197" x="515.5" y="1386.1016">PUT /transfers/{id}</text><text fill="#000000" font-family="sans-serif" font-size="24" lengthAdjust="spacing" textLength="293" x="522.5" y="1416.2891">transferState=COMMITTED</text><polygon fill="#383838" points="161.5,1493.9375,151.5,1497.9375,161.5,1501.9375,157.5,1497.9375" style="stroke:#383838;stroke-width:1.0;"/><line style="stroke:#383838;stroke-width:1.0;" x1="155.5" x2="467.5" y1="1497.9375" y2="1497.9375"/><text fill="#000000" font-family="sans-serif" font-size="24" font-weight="bold" lengthAdjust="spacing" textLength="26" x="167.5" y="1475.5703">19</text><text fill="#000000" font-family="sans-serif" font-size="24" lengthAdjust="spacing" textLength="210" x="197.5" y="1460.4766">Transfer successful</text><text fill="#000000" font-family="sans-serif" font-size="24" lengthAdjust="spacing" textLength="247" x="204.5" y="1490.6641">HTTP 200 result (sync)</text><line style="stroke:#000000;stroke-width:1.0;stroke-dasharray:2.0,2.0;" x1="20" x2="1113.5" y1="1506.9375" y2="1506.9375"/><text fill="#000000" font-family="sans-serif" font-size="24" font-weight="bold" lengthAdjust="spacing" textLength="187" x="25" y="1531.8516">[Validation fails]</text><line style="stroke:#383838;stroke-width:1.0;" x1="822.5" x2="864.5" y1="1574.3125" y2="1574.3125"/><line style="stroke:#383838;stroke-width:1.0;" x1="864.5" x2="864.5" y1="1574.3125" y2="1587.3125"/><line style="stroke:#383838;stroke-width:1.0;" x1="823.5" x2="864.5" y1="1587.3125" y2="1587.3125"/><polygon fill="#383838" points="833.5,1583.3125,823.5,1587.3125,833.5,1591.3125,829.5,1587.3125" style="stroke:#383838;stroke-width:1.0;"/><text fill="#000000" font-family="sans-serif" font-size="24" font-weight="bold" lengthAdjust="spacing" textLength="26" x="829.5" y="1567.0391">20</text><text fill="#000000" font-family="sans-serif" font-size="24" lengthAdjust="spacing" textLength="242" x="859.5" y="1567.0391">Cancel reserved funds</text><polygon fill="#383838" points="479.5,1657.6875,469.5,1661.6875,479.5,1665.6875,475.5,1661.6875" style="stroke:#383838;stroke-width:1.0;"/><line style="stroke:#383838;stroke-width:1.0;" x1="473.5" x2="821.5" y1="1661.6875" y2="1661.6875"/><text fill="#000000" font-family="sans-serif" font-size="24" font-weight="bold" lengthAdjust="spacing" textLength="26" x="485.5" y="1639.3203">21</text><text fill="#000000" font-family="sans-serif" font-size="24" lengthAdjust="spacing" textLength="197" x="515.5" y="1624.2266">PUT /transfers/{id}</text><text fill="#000000" font-family="sans-serif" font-size="24" lengthAdjust="spacing" textLength="266" x="522.5" y="1654.4141">transferState=ABORTED</text><polygon fill="#383838" points="161.5,1732.0625,151.5,1736.0625,161.5,1740.0625,157.5,1736.0625" style="stroke:#383838;stroke-width:1.0;"/><line style="stroke:#383838;stroke-width:1.0;" x1="155.5" x2="467.5" y1="1736.0625" y2="1736.0625"/><text fill="#000000" font-family="sans-serif" font-size="24" font-weight="bold" lengthAdjust="spacing" textLength="26" x="167.5" y="1713.6953">22</text><text fill="#000000" font-family="sans-serif" font-size="24" lengthAdjust="spacing" textLength="154" x="197.5" y="1698.6016">Transfer failed</text><text fill="#000000" font-family="sans-serif" font-size="24" lengthAdjust="spacing" textLength="247" x="204.5" y="1728.7891">HTTP 200 result (sync)</text><!--MD5=[d5e7e29f48ee867257697df301583ada]
@startuml

autonumber
skinparam activityFontSize 4
skinparam activityDiamondFontSize 30
skinparam activityArrowFontSize 24
skinparam defaultFontSize 24
skinparam noteFontSize 24
skinparam monochrome true

participant "DFSP Core Backend" as backend

participant "Payment Manager" as sob

participant "Mojaloop Switch" as sw


== send money ==

    backend -> sob: POST /sendmoney (sync)
    sob -> sw: GET /parties/{type}/{id}
    alt Payee not found
    sw -> sob: PUT /parties/{type}/{id}/error
    sob -> backend: Return error \n HTTP 200 result (sync)
    else Payee DFSP and Payee found
    sw -> sob: PUT /parties/{type}/{id}
    sob -> sw: POST /quotes
    alt Quote request fails
    sw -> sob: PUT /quotes/{id}/error
    sob -> backend: Return error \n HTTP 200 result (sync)
    else Quote request is successful
    sw -> sob: PUT /quotes/{id}
    sob -> sob: check quote rules
    end
    sob -> sw: POST /transfers
    sw -> sw: Perform (NDC) liquidity check
    alt Transfer execution would exceed NDC
    sw -> sob: PUT /transfers/{id}/error
    sob -> backend: Return error \n HTTP 200 result (sync)
    else Transfer execution will not exceed NDC
    sw -> sw: Reserve funds
    sw -> sw: Perform validation
    end
    alt Validation successful
    sw -> sw: Commit funds
    sw -> sob: PUT /transfers/{id} \n transferState=COMMITTED
    sob -> backend: Transfer successful \n HTTP 200 result (sync)
    else Validation fails
    sw -> sw: Cancel reserved funds
    sw -> sob: PUT /transfers/{id} \n transferState=ABORTED
    sob -> backend: Transfer failed \n HTTP 200 result (sync)
    end

    end

@enduml

PlantUML version 1.2021.00(Sun Jan 10 11:25:05 CET 2021)
(GPL source distribution)
Java Runtime: Java(TM) SE Runtime Environment
JVM: Java HotSpot(TM) 64-Bit Server VM
Default Encoding: Cp1250
Language: en
Country: US
--></g></svg>